<svg xmlns="http://www.w3.org/2000/svg" width="262" height="20" fill="none"><path fill="#fff" d="M28.385.763H1.773a1.64 1.64 0 0 0-1.64 1.64v15.6c0 .906.734 1.64 1.64 1.64h26.612a1.64 1.64 0 0 0 1.64-1.64v-15.6a1.64 1.64 0 0 0-1.64-1.64Z"/><path fill="#00579F" d="m11.368 13.987 1.279-7.392h2.045l-1.28 7.392h-2.044ZM20.8 6.755a5.352 5.352 0 0 0-1.832-.31c-2.021 0-3.444 1.002-3.456 2.438-.012 1.063 1.016 1.655 1.791 2.009.796.362 1.064.593 1.06.917-.005.495-.636.721-1.223.721-.819 0-1.254-.112-1.925-.388l-.264-.117-.287 1.655c.478.206 1.361.385 2.278.394 2.15 0 3.545-.991 3.561-2.525.008-.841-.537-1.481-1.717-2.009-.715-.342-1.152-.57-1.148-.916 0-.307.37-.636 1.171-.636a3.823 3.823 0 0 1 1.531.283l.183.086.277-1.602Zm5.263-.16h-1.58c-.49 0-.856.132-1.071.613l-3.037 6.774h2.147s.351-.91.43-1.11l2.62.002c.06.26.248 1.108.248 1.108h1.898l-1.655-7.387Zm-2.507 4.773c.169-.426.814-2.066.814-2.066-.012.02.168-.428.271-.706l.139.638.473 2.134h-1.697ZM9.632 6.595 7.63 11.636l-.213-1.024C7.044 9.43 5.883 8.151 4.585 7.51l1.83 6.464 2.164-.002 3.22-7.378H9.632"/><path fill="#F2AE14" d="M5.763 6.595H2.466l-.026.154c2.565.612 4.263 2.09 4.968 3.867L6.69 7.219c-.123-.468-.482-.608-.926-.624"/><path fill="#003058" d="M67.025.763H40.413a1.64 1.64 0 0 0-1.64 1.64v15.6c0 .906.734 1.64 1.64 1.64h26.612a1.64 1.64 0 0 0 1.64-1.64v-15.6a1.64 1.64 0 0 0-1.64-1.64Z"/><path fill="#EB001B" d="M49.445 16.317c3.425 0 6.202-2.735 6.202-6.11 0-3.375-2.777-6.11-6.202-6.11-3.426 0-6.202 2.735-6.202 6.11 0 3.375 2.776 6.11 6.202 6.11Z"/><path fill="#F79E1B" d="M57.826 16.373c3.425 0 6.202-2.736 6.202-6.111 0-3.375-2.777-6.11-6.202-6.11s-6.202 2.735-6.202 6.11c0 3.375 2.777 6.11 6.202 6.11Z"/><path fill="#FF5F00" d="M53.58 5.654a6.04 6.04 0 0 0-2.068 4.553 6.04 6.04 0 0 0 2.067 4.552 6.04 6.04 0 0 0 2.067-4.553 6.04 6.04 0 0 0-2.067-4.552Z"/><path fill="#0A7EC2" fill-rule="evenodd" d="M105.438.763H79.281c-1.027 0-1.868.814-1.868 1.81V17.95c0 .995.84 1.81 1.868 1.81h26.157c1.027 0 1.868-.815 1.868-1.81V2.573c0-.996-.841-1.81-1.868-1.81Z" clip-rule="evenodd"/><path fill="#fff" fill-rule="evenodd" d="M83.921 10.627h1.448l-.724-1.81-.724 1.81Zm20.174-3.438h-3.709l-.905.996-.814-.996h-7.87l-.724 1.629-.724-1.629h-3.166v.724l-.362-.724h-2.714l-2.623 6.333h3.166l.362-.995h.905l.361.995h3.528v-.724l.272.724h1.81l.27-.814v.814h7.238l.904-.995.814.995h3.709l-2.352-3.166 2.624-3.167Zm-10.946 5.428h-.995V9.09l-1.538 3.528h-.905L88.173 9.09v3.528h-2.08l-.362-.995H83.56l-.362.995h-1.176l1.9-4.523h1.537l1.72 4.252V8.094h1.718l1.357 3.076 1.266-3.076h1.72v4.523h-.091Zm8.956 0h-1.357l-1.176-1.538-1.357 1.538h-4.071V8.094h4.161l1.267 1.447 1.357-1.447h1.266l-1.99 2.262 1.9 2.261ZM95.139 9v.814H97.4v.904H95.14v.905h2.533l1.176-1.357L97.762 9H95.14ZM143.705.763h-26.157c-.747 0-1.494.755-1.494 1.51v15.104c0 1.51.747 2.266 2.242 2.266h25.409c1.494 0 2.241-.755 2.241-2.266V3.03c0-1.51-.747-2.266-2.241-2.266Z" clip-rule="evenodd"/><path fill="url(#a)" fill-rule="evenodd" d="M135.28 10.36H136.497a.513.513 0 0 1 .081.007l.02.002c.007 0 .014.002.02.003l.012.002.008.002.02.005.02.006a.29.29 0 0 1 .04.015.659.659 0 0 1 .041.019l.02.01.02.012.02.014.02.014.02.016a.286.286 0 0 1 .06.06l.021.024.02.027.02.032a.51.51 0 0 1 .06.155.597.597 0 0 1-.06.412l-.02.033-.02.027a1.333 1.333 0 0 1-.061.066.246.246 0 0 1-.02.018.255.255 0 0 1-.02.016l-.02.014c-.007.005-.013.01-.02.013l-.02.012-.02.011a.655.655 0 0 1-.081.033l-.02.006a.489.489 0 0 1-.02.005l-.008.002-.012.002a.89.89 0 0 1-.04.006l-.021.002a.747.747 0 0 1-.02.001l-.02.002H135.28v-1.105Zm1.619-1.251a.558.558 0 0 1-.02.304.38.38 0 0 1-.04.083.379.379 0 0 1-.02.03l-.02.026-.02.023-.02.02a.864.864 0 0 1-.081.062.227.227 0 0 1-.02.012l-.02.01-.02.01-.02.009-.02.007-.02.007a.606.606 0 0 1-.061.014l-.005.001a.353.353 0 0 1-.055.007l-.02.001a1.153 1.153 0 0 1-.04.002H135.28v-1.02H136.417l.02.002.02.002.02.002.015.002h.005a.299.299 0 0 1 .04.01.655.655 0 0 1 .021.006l.02.006.02.008.02.008.02.01.02.01a.235.235 0 0 1 .02.012.231.231 0 0 1 .02.013l.02.015.02.016a.937.937 0 0 1 .021.018l.02.02.02.023.02.026a.374.374 0 0 1 .04.067.502.502 0 0 1 .04.115Zm2.494-5.293h.009v10.483a1.904 1.904 0 0 1-.029.346 1.824 1.824 0 0 1-.06.26l-.02.064-.02.057-.02.053a11.777 11.777 0 0 1-.061.137.69.69 0 0 1-.02.04l-.02.039-.02.036-.02.035-.02.033-.021.033a.503.503 0 0 1-.04.06.499.499 0 0 1-.02.029l-.02.027-.02.027-.02.026-.02.025a.465.465 0 0 0-.02.024l-.021.024a.408.408 0 0 1-.04.045.395.395 0 0 1-.02.022l-.02.021-.02.02a.417.417 0 0 0-.02.02l-.02.02-.02.019-.021.018a.324.324 0 0 1-.02.018l-.02.018a.318.318 0 0 1-.02.017l-.02.016-.02.016-.02.016-.02.016-.02.015-.021.014-.02.015a.303.303 0 0 1-.02.014l-.02.013-.02.014-.02.012-.02.013-.02.012-.02.012a1.103 1.103 0 0 1-.021.012l-.02.011a.304.304 0 0 1-.04.022l-.02.01c-.007.004-.013.008-.02.01a.372.372 0 0 0-.02.01l-.02.01-.021.01-.02.01a.322.322 0 0 1-.04.017l-.02.008-.02.008-.02.008-.02.008-.02.007a1.73 1.73 0 0 1-.041.014l-.02.007-.02.007-.02.006-.02.006-.02.006-.02.005-.02.006-.021.005-.02.005-.02.005-.02.004-.02.005-.02.003-.02.004-.02.004-.02.004-.021.003-.02.003-.02.003c-.007 0-.013.002-.02.003l-.02.002-.02.002-.02.002-.02.002-.02.002-.021.001-.02.002h-.02l-.02.002h-.04l-.02.001H134.261v-4.274H137.543l.02-.001h.02l.02-.002.02-.001.02-.001.021-.002.02-.002.02-.002.02-.002.02-.003.02-.002.02-.003a.541.541 0 0 0 .02-.003l.02-.004.021-.003a1.56 1.56 0 0 1 .04-.008l.02-.005.02-.004.02-.005a.408.408 0 0 0 .04-.01l.02-.007a.827.827 0 0 0 .021-.006l.02-.006.02-.007.02-.007.02-.007.02-.008.02-.008a.328.328 0 0 0 .04-.017l.021-.009.02-.01.02-.009.02-.01.02-.011a.304.304 0 0 0 .04-.023l.02-.012.021-.013.02-.014.02-.014.02-.014.02-.016.02-.016a.317.317 0 0 0 .02-.017.294.294 0 0 0 .02-.018 1.908 1.908 0 0 0 .041-.039l.02-.02a.49.49 0 0 1 .02-.023l.02-.024.02-.025a.413.413 0 0 0 .04-.057l.02-.032a.575.575 0 0 0 .041-.076l.02-.046a.968.968 0 0 0 .02-.663.92.92 0 0 0-.02-.053l-.02-.044a3.327 3.327 0 0 0-.061-.104.411.411 0 0 0-.04-.055l-.02-.024-.02-.023-.02-.022-.02-.02a1.828 1.828 0 0 0-.041-.037l-.02-.018a.313.313 0 0 0-.02-.016l-.02-.016-.02-.014-.02-.015-.02-.013-.02-.013-.021-.013-.02-.012a.304.304 0 0 0-.04-.022l-.02-.01-.02-.01-.02-.01a.493.493 0 0 1-.041-.018.326.326 0 0 0-.04-.017.338.338 0 0 0-.02-.008l-.02-.007-.02-.007-.02-.007-.02-.006a.728.728 0 0 1-.02-.007l-.021-.005a.309.309 0 0 0-.02-.006l-.02-.006-.02-.005-.02-.005-.02-.004-.02-.005a1.349 1.349 0 0 1-.02-.004l-.02-.004-.021-.003-.02-.004-.02-.003a.56.56 0 0 0-.02-.003l-.02-.002-.02-.003-.02-.002-.02-.002-.02-.002-.021-.002-.018-.001v-.025l.018-.003.021-.003.02-.003.02-.004.02-.004.02-.005.02-.005a.417.417 0 0 0 .04-.01.381.381 0 0 0 .041-.012l.02-.006.02-.007.02-.007.02-.007.02-.008a.33.33 0 0 0 .04-.017 1.768 1.768 0 0 0 .041-.019l.02-.01.02-.01.02-.01.02-.012a.294.294 0 0 0 .04-.025.287.287 0 0 0 .02-.013 2.44 2.44 0 0 0 .041-.029l.02-.016.02-.016.02-.017.02-.019a2.606 2.606 0 0 0 .081-.085l.02-.025.02-.027.02-.03a.487.487 0 0 0 .04-.068.652.652 0 0 0 .04-.086.877.877 0 0 0 .061-.446.948.948 0 0 0-.061-.249.728.728 0 0 0-.06-.12l-.02-.031-.02-.029-.02-.026-.02-.025a2.324 2.324 0 0 0-.081-.082l-.02-.018-.02-.016-.02-.016-.02-.015a1.85 1.85 0 0 0-.101-.065l-.02-.01-.02-.011-.02-.01-.02-.01a1.6 1.6 0 0 0-.021-.01l-.02-.008a.327.327 0 0 0-.04-.017l-.02-.008-.02-.007-.02-.007-.02-.006-.02-.007a1.842 1.842 0 0 0-.061-.017l-.02-.005-.02-.005-.02-.004-.02-.005a1.129 1.129 0 0 1-.02-.004l-.02-.004-.021-.003a.582.582 0 0 0-.02-.003l-.02-.004-.02-.002-.02-.003-.02-.002-.02-.003-.02-.002-.02-.001-.021-.002-.02-.001-.02-.002h-.02l-.02-.002-.02-.001-.02-.001-.02-.001-.02-.001h-.021l-.02-.001h-.02l-.02-.001H134.261V5.913a2.076 2.076 0 0 1 .124-.714l.02-.054.02-.05.02-.045a9.85 9.85 0 0 1 .081-.16.583.583 0 0 1 .02-.036l.02-.034.02-.032.02-.031.02-.03.021-.03.02-.027a.43.43 0 0 1 .02-.027.422.422 0 0 1 .02-.026l.02-.026.02-.024.02-.024.02-.023a6.262 6.262 0 0 1 .081-.086l.02-.02.02-.02.02-.019.02-.018.02-.018a.394.394 0 0 0 .02-.018l.021-.017a.323.323 0 0 1 .02-.017.313.313 0 0 1 .02-.016l.02-.016.02-.015.02-.016.02-.014.02-.015.02-.014.021-.013.02-.014a.306.306 0 0 1 .02-.013l.02-.012.02-.013.02-.012a.408.408 0 0 0 .02-.012l.02-.011.021-.011.02-.011a.316.316 0 0 1 .02-.01l.02-.011.02-.01.02-.01.02-.01a.44.44 0 0 0 .02-.009l.02-.009.021-.008.02-.009a.35.35 0 0 1 .02-.008l.02-.008.02-.008.02-.007.02-.007a.576.576 0 0 0 .02-.007l.02-.007.021-.007a.396.396 0 0 1 .02-.006l.02-.006a.398.398 0 0 1 .02-.006l.02-.006.02-.005.02-.005.02-.005a.824.824 0 0 0 .02-.005l.021-.005.02-.004.02-.004.02-.004.02-.004.02-.003.02-.004a1.39 1.39 0 0 0 .02-.003l.02-.003.021-.003.02-.002.02-.002.02-.003.02-.001.02-.002.02-.002.02-.001.021-.001.02-.001.02-.001h.04l.02-.001H139.393Z" clip-rule="evenodd"/><path fill="url(#b)" fill-rule="evenodd" d="m122.802 11.111-.043-.02V5.911a2.137 2.137 0 0 1 .063-.514c.007-.025.013-.05.021-.074a1.479 1.479 0 0 1 .06-.178.953.953 0 0 1 .04-.096.772.772 0 0 1 .02-.043l.02-.04.02-.04.02-.036.02-.036.02-.034.02-.032a7.58 7.58 0 0 1 .061-.09l.02-.028a.433.433 0 0 1 .02-.027l.02-.026.02-.025.02-.025.02-.024.02-.023.02-.022.02-.022a4.224 4.224 0 0 1 .081-.082l.02-.019a.33.33 0 0 1 .02-.018l.02-.018.02-.018.02-.017.02-.017.02-.016.02-.016.02-.015.021-.016.02-.014a.312.312 0 0 1 .02-.015.307.307 0 0 1 .02-.014.302.302 0 0 1 .02-.013l.02-.014.02-.013.02-.012.02-.013.02-.012a.4.4 0 0 0 .02-.012l.02-.011a.408.408 0 0 0 .02-.011l.021-.011a.322.322 0 0 1 .04-.021l.02-.01a.317.317 0 0 1 .02-.01l.02-.01.02-.009.02-.009.02-.008.02-.009.02-.008.02-.008.02-.008.021-.007.02-.008a.383.383 0 0 1 .02-.007l.02-.006.02-.007.02-.006.02-.006c.007-.002.013-.005.02-.006l.02-.006.02-.006a.72.72 0 0 0 .02-.005l.02-.005a.78.78 0 0 0 .02-.005l.021-.004.02-.005a.486.486 0 0 1 .02-.004l.02-.004a.535.535 0 0 1 .02-.004c.007 0 .013-.002.02-.003l.02-.003.02-.004a1.962 1.962 0 0 1 .04-.005l.02-.003.02-.002.02-.002.021-.002.02-.002a.838.838 0 0 1 .02-.002l.02-.001.02-.001.02-.001.02-.001h.02l.02-.001H127.899v10.483a2.17 2.17 0 0 1-.077.567l-.02.068-.02.06-.02.055a8.788 8.788 0 0 1-.021.05c-.006.017-.013.032-.02.048l-.02.044a.752.752 0 0 1-.04.081l-.02.038-.02.036-.02.034-.02.033-.02.031-.02.03-.02.03a.524.524 0 0 0-.02.028l-.021.027c-.006.01-.013.018-.02.027a.411.411 0 0 1-.02.025.404.404 0 0 1-.04.049.382.382 0 0 1-.02.023l-.02.023-.02.022-.02.021-.02.021-.02.02a.375.375 0 0 0-.02.02l-.02.02a3.554 3.554 0 0 1-.021.018l-.02.018a.294.294 0 0 1-.02.018l-.02.017a.318.318 0 0 1-.02.017l-.02.016-.02.016-.02.016-.02.015-.02.015a.401.401 0 0 0-.02.015l-.02.014-.02.014-.021.013a.347.347 0 0 1-.02.013l-.02.013a.301.301 0 0 1-.02.012c-.006.005-.013.008-.02.012l-.02.012-.02.012-.02.011-.02.011-.02.01a.366.366 0 0 0-.02.011l-.02.01a.465.465 0 0 0-.02.01l-.021.01a.382.382 0 0 1-.02.01l-.02.008-.02.009-.02.009-.02.008-.02.008-.02.008-.02.007a.444.444 0 0 0-.02.008l-.02.007-.02.007-.02.006-.021.007-.02.006-.02.006-.02.006-.02.005-.02.005-.02.005-.02.005-.02.005-.02.004a1.191 1.191 0 0 0-.02.005l-.02.004c-.007 0-.014.002-.02.003l-.021.004-.02.003-.02.004-.02.003-.02.003-.02.002-.02.002-.02.003-.02.002-.02.002-.02.001-.02.002h-.02l-.021.002h-.02l-.02.002H122.759v-4.418l.043.011.02.005.021.005.02.005.02.005.02.004.02.005.02.005.02.004.02.005.02.004.02.004.02.005.02.004.02.004.021.004.02.004.02.004.02.004.02.004.02.004.02.003.02.004.02.004.02.004.02.003.02.004.021.003.02.004.02.003.02.003.02.004.02.003.02.003.02.003.02.003.02.004.02.003.02.003.02.003.021.002.02.003.02.003.02.003.02.003.02.002.02.003.02.003.02.002.02.003.02.002.02.003.02.002.021.002.02.003.02.002.02.002.02.002.02.002.02.003.02.002.02.002.02.001.02.002.02.002.02.002.021.002.02.002.02.001.02.002.02.002.02.001.02.002.02.001.02.002.02.001.02.001.02.002h.02l.021.002.02.001.02.001.02.001.02.001.02.001.02.001.02.001.02.001h.02l.02.002h.02l.02.001h.021l.02.001h.02l.02.001h.02l.02.001h.06l.02.001h.181l.02-.001h.04l.02-.001h.02l.02-.002h.041l.02-.002h.02l.02-.002h.02l.02-.002h.02l.02-.002.02-.001.02-.001.02-.002.02-.001.02-.002.021-.001.02-.002.02-.002.02-.002.02-.001.02-.003.02-.002.02-.002.02-.002.02-.002.02-.003.02-.002.02-.003.021-.002.02-.003.02-.003a.89.89 0 0 1 .02-.003l.02-.003.02-.003.02-.003.02-.003.02-.004a.515.515 0 0 0 .04-.007l.02-.004.021-.004.02-.003.02-.005.02-.004.02-.004.02-.005.02-.004.02-.005.02-.005.02-.005.02-.005a.404.404 0 0 0 .02-.005l.02-.005.021-.006.02-.005.02-.006a.774.774 0 0 1 .02-.006l.02-.006.02-.007.02-.006.02-.007.02-.007.02-.006a.344.344 0 0 0 .02-.008l.02-.007.02-.008.021-.008a.42.42 0 0 1 .02-.007l.02-.009.02-.008.02-.009.02-.009.02-.009.02-.01c.007-.002.013-.006.02-.009a.312.312 0 0 0 .04-.02.308.308 0 0 0 .04-.021 2.115 2.115 0 0 0 .041-.023l.02-.012.02-.012.02-.012.02-.013.02-.014.02-.013.02-.015a.305.305 0 0 0 .04-.03.31.31 0 0 0 .02-.015l.02-.017.021-.016.02-.018a.407.407 0 0 1 .02-.018l.02-.019.02-.02.02-.02.02-.021.02-.023a.416.416 0 0 0 .04-.047.416.416 0 0 0 .04-.053 3.976 3.976 0 0 0 .041-.059l.02-.032.02-.035.02-.037.02-.04.02-.044a.883.883 0 0 0 .04-.103 1.315 1.315 0 0 0 .04-.138 1.39 1.39 0 0 0 .04-.24c.007-.068.01-.138.01-.209V8.09H125.678v2.432c0 .038-.001.076-.005.113a1.014 1.014 0 0 1-.06.28.902.902 0 0 1-.08.169l-.02.032-.02.03-.02.026-.02.025-.02.024a4.402 4.402 0 0 1-.061.061l-.02.018a.317.317 0 0 1-.04.033l-.02.015-.02.015-.02.013-.02.013a.42.42 0 0 0-.02.012l-.02.012-.02.01a2.043 2.043 0 0 1-.061.03l-.02.01a.33.33 0 0 1-.04.015l-.02.008-.02.007-.02.006-.02.006-.02.006a.54.54 0 0 0-.02.006l-.02.005a1.577 1.577 0 0 1-.101.02l-.02.003-.02.002-.02.003-.02.002-.02.002-.02.002-.02.001-.02.002a1.475 1.475 0 0 1-.041.001h-.14l-.02-.001-.02-.001-.02-.001-.02-.001-.021-.001-.02-.002-.02-.001-.02-.002-.02-.001-.02-.002-.02-.002-.02-.002-.02-.002-.02-.002-.02-.003-.02-.003-.02-.002-.021-.003-.02-.003-.02-.003-.02-.003-.02-.003-.02-.004-.02-.003-.02-.004-.02-.004-.02-.004-.02-.004-.02-.004-.02-.004-.021-.004-.02-.005-.02-.004-.02-.005-.02-.005-.02-.005-.02-.005-.02-.005-.02-.005-.02-.005-.02-.006-.02-.005-.02-.006-.021-.006-.02-.005-.02-.006-.02-.007-.02-.006-.02-.006-.02-.006-.02-.007-.02-.007-.02-.006-.02-.007-.02-.007-.02-.007-.021-.007-.02-.007-.02-.008-.02-.007-.02-.008-.02-.007-.02-.008-.02-.008-.02-.008-.02-.008-.02-.008-.02-.008-.021-.008-.02-.008-.02-.009-.02-.009-.02-.008-.02-.009-.02-.009-.02-.009-.02-.009-.02-.009-.02-.01-.02-.008-.02-.01-.021-.01-.02-.009Z" clip-rule="evenodd"/><path fill="url(#c)" fill-rule="evenodd" d="M128.638 8.621a1.259 1.259 0 0 0-.043.036V5.913a2.135 2.135 0 0 1 .103-.654l.02-.059.02-.053.02-.05.02-.046.02-.044a9.048 9.048 0 0 1 .081-.152.558.558 0 0 1 .04-.066l.02-.03.02-.03.02-.03.02-.028.02-.027a.5.5 0 0 0 .02-.026l.02-.025a4.463 4.463 0 0 1 .121-.137l.02-.02.02-.02.02-.02.02-.02a.41.41 0 0 0 .02-.018l.02-.018.02-.018.021-.017a.33.33 0 0 1 .04-.033.318.318 0 0 1 .02-.016.32.32 0 0 1 .02-.015l.02-.015.02-.015.02-.014.02-.014.02-.014.02-.013.02-.014.021-.012a.31.31 0 0 1 .02-.013l.02-.012a.307.307 0 0 1 .02-.012l.02-.01.02-.012.02-.01.02-.012.02-.01.02-.01a.427.427 0 0 0 .02-.01l.02-.01a.45.45 0 0 0 .02-.009l.021-.008a.347.347 0 0 1 .02-.01l.02-.008.02-.008a.361.361 0 0 1 .02-.008l.02-.008.02-.007.02-.007.02-.008.02-.006.02-.007a.59.59 0 0 0 .02-.006l.02-.006.021-.006.02-.006.02-.005a.44.44 0 0 1 .02-.006l.02-.005.02-.005.02-.004.02-.004.02-.005.02-.004c.007 0 .014-.002.02-.003l.02-.004.021-.003a.593.593 0 0 1 .02-.004l.02-.002a.718.718 0 0 1 .02-.003l.02-.003.02-.002.02-.002.02-.002.02-.002.02-.002h.02l.02-.002.02-.001h.021l.02-.002H133.735v10.483a2.17 2.17 0 0 1-.057.49l-.021.077a1.54 1.54 0 0 1-.02.068l-.02.06a1.096 1.096 0 0 1-.02.055l-.02.05c-.006.017-.013.032-.02.048a.787.787 0 0 1-.02.044l-.02.042-.02.04-.02.037-.02.036a.642.642 0 0 0-.02.034l-.02.033a4.306 4.306 0 0 1-.041.062l-.02.029a.454.454 0 0 1-.04.055c-.006.01-.013.018-.02.027l-.02.025-.02.025-.02.024-.02.023a.408.408 0 0 0-.02.023l-.02.022-.02.021-.021.021a.345.345 0 0 1-.02.02l-.02.02-.02.02a.331.331 0 0 1-.02.018l-.02.018-.02.018-.02.017-.02.017-.02.016-.02.016-.02.016-.021.015-.02.015a.272.272 0 0 1-.02.015l-.02.014a.346.346 0 0 1-.02.014l-.02.013-.02.013-.02.013-.02.012-.02.012a.423.423 0 0 0-.02.012l-.02.012-.02.011-.021.011-.02.01a.308.308 0 0 1-.02.011l-.02.01a.372.372 0 0 1-.02.01l-.02.01-.02.01-.02.008-.02.009-.02.009-.02.008a.41.41 0 0 0-.02.008l-.02.008-.021.007a.346.346 0 0 1-.02.008l-.02.007-.02.007-.02.006-.02.007-.02.006-.02.006-.02.006-.02.005a.54.54 0 0 0-.02.005l-.02.005-.02.005-.021.005-.02.004a.447.447 0 0 1-.02.005l-.02.004-.02.004-.02.003a1.388 1.388 0 0 1-.02.003l-.02.004c-.007 0-.014.002-.02.003l-.02.003-.02.002-.02.003-.021.002-.02.002-.02.002-.02.001-.02.002-.02.001-.02.001h-.02l-.02.002H128.595v-4.84a1.318 1.318 0 0 0 .063.052l.02.016.02.015.02.015.02.014.02.014.02.014a.347.347 0 0 1 .02.014l.021.013a.302.302 0 0 0 .02.013l.02.012.02.013a.352.352 0 0 0 .04.023l.02.012.02.011.02.011.02.01.02.011.02.01.02.01.021.01a.377.377 0 0 0 .02.01l.02.01.02.008.02.01.02.008.02.009.02.008.02.009.02.008.02.008.02.007.02.008.021.007a.344.344 0 0 0 .02.008l.02.007.02.007.02.006.02.007.02.007.02.006.02.006.02.007.02.005.02.006.021.006.02.006.02.005.02.006.02.005.02.005.02.005.02.005.02.005.02.005.02.004.02.005.02.004.021.005.02.004.02.004.02.004.02.004.02.004.02.003.02.004.02.004.02.003.02.003.02.004.02.003.021.003.02.003.02.003.02.003.02.003.02.002.02.003.02.003.02.002.02.003.02.002.02.002.021.002.02.002.02.003.02.002.02.002.02.001.02.002.02.002.02.002.02.001.02.002.02.001.02.002h.021l.02.002.02.002h.02l.02.002h.02l.02.002h.02l.02.002h.02l.02.001h.02l.02.002h.041l.02.001h.02l.02.001h.04l.02.001H131.248l.02-.001h.02l.02-.001h.02l.02-.001h.021l.02-.001h.02l.02-.002h.02l.02-.001.02-.001h.02l.01-.001h.01l.02-.002h.02l.02-.002.02-.001.021-.001.02-.002.02-.001.02-.002.02-.001.02-.002.02-.001.02-.002.02-.002.02-.002.02-.002.02-.002.02-.002.021-.002.02-.002.02-.002.02-.002.02-.002.02-.003.02-.002.02-.003.02-.002.02-.003.02-.002.02-.003.021-.002.02-.003.02-.003.02-.003.02-.003.02-.003.02-.003.02-.003.02-.002.02-.004.02-.003.02-.003.02-.003.021-.003.02-.004.02-.003.02-.003.02-.004.02-.003.02-.004.02-.003.02-.004.02-.003.02-.004.02-.004.02-.004.021-.003.02-.004.02-.004.02-.004.02-.004.02-.004.02-.004.02-.004.02-.004.02-.004.02-.004.02-.005.02-.004.021-.004.02-.005.02-.004.02-.004.02-.005.02-.004.02-.005.02-.005.02-.004.02-.005.02-.005.02-.005.02-.005v-.886l-.02.01-.02.01-.02.01-.02.01-.02.009-.02.01-.02.009-.02.01-.02.009-.02.009-.02.01-.02.008-.021.009-.02.009-.02.008-.02.01-.02.008-.02.008-.02.008-.02.008-.02.008-.02.008-.02.008-.02.008-.02.008-.021.007-.02.007-.02.008-.02.007-.02.007-.02.007-.02.006-.02.007-.02.007-.02.006-.02.007-.02.006-.02.006-.021.006-.02.006-.02.005-.02.006-.02.006-.02.005-.02.005-.02.005-.02.005-.02.006-.02.004-.02.005-.02.005-.021.004-.02.005-.02.004-.02.004-.02.004-.02.004-.02.004-.02.003-.02.004-.02.004-.02.003-.02.003-.021.004-.02.003-.02.002-.02.003-.02.003-.02.003-.02.002-.02.003-.02.002-.02.002-.02.002-.02.002-.02.002-.021.002-.02.001-.012.001h-.008l-.02.002-.02.002h-.02l-.02.002h-.02l-.02.001h-.02l-.02.001H131.268l-.02-.001-.02-.001-.02-.001-.02-.002h-.02l-.02-.002a.747.747 0 0 1-.02-.002l-.021-.002-.02-.002-.02-.002-.02-.003-.02-.003-.02-.002-.02-.004c-.007 0-.013-.002-.02-.003l-.02-.003a.484.484 0 0 1-.02-.004l-.02-.004a.458.458 0 0 1-.04-.008l-.021-.005-.02-.005-.02-.005-.02-.005-.02-.006-.02-.005-.02-.006-.02-.007-.02-.006-.02-.007a.344.344 0 0 1-.06-.023l-.021-.008a.52.52 0 0 0-.04-.017.384.384 0 0 0-.02-.01l-.02-.01-.02-.01-.02-.01-.02-.01a.304.304 0 0 1-.04-.023.302.302 0 0 1-.04-.025.302.302 0 0 1-.02-.013l-.021-.014-.02-.014-.02-.015-.02-.016-.02-.016-.02-.017-.02-.017-.02-.019a.306.306 0 0 1-.02-.019l-.02-.02a.33.33 0 0 1-.02-.021 4.969 4.969 0 0 1-.041-.046l-.02-.025-.02-.026-.02-.028-.02-.03-.02-.03-.02-.035a.538.538 0 0 1-.04-.076.731.731 0 0 1-.04-.09 1.001 1.001 0 0 1-.04-.117c-.008-.024-.014-.049-.021-.074a2.245 2.245 0 0 1-.04-.244 2.13 2.13 0 0 1 0-.363 2.248 2.248 0 0 1 .04-.244c.007-.025.013-.05.021-.074a1.24 1.24 0 0 1 .1-.246.57.57 0 0 1 .02-.037l.02-.034.02-.031.02-.03.02-.027.02-.027.02-.024a2.762 2.762 0 0 1 .101-.107l.02-.018.02-.018.02-.017.02-.016.02-.016.02-.014.02-.015.021-.014.02-.013a.302.302 0 0 1 .04-.025l.02-.011a.3.3 0 0 1 .02-.011l.02-.011.02-.01.02-.01.02-.01a.476.476 0 0 0 .02-.01l.02-.008a.52.52 0 0 0 .02-.009l.021-.008a.348.348 0 0 1 .02-.008l.02-.007a.37.37 0 0 1 .02-.007l.02-.007.02-.007.02-.006.02-.006.02-.006.02-.006.02-.005a.75.75 0 0 0 .02-.005l.02-.005.021-.004.02-.005a.505.505 0 0 1 .02-.004l.02-.004a.586.586 0 0 1 .02-.004l.02-.003.02-.003.02-.003.02-.003.02-.003.02-.002.02-.003.02-.002.021-.002.02-.001.02-.002.02-.001.02-.002h.02l.02-.001.02-.001h.02l.02-.001H131.429l.02.001h.02l.02.002h.02l.02.002.02.001.02.001h.008l.012.002.02.002.021.001.02.002.02.002.02.002.02.002.02.003.02.002.02.002.02.003.02.003.02.002.02.003.02.003.021.003.02.004.02.003.02.003.02.004.02.004.02.003.02.004.02.004.02.005.02.004.02.004.021.005.02.004.02.005.02.005.02.005.02.005.02.005.02.005.02.005.02.006.02.006.02.005.02.006.021.006.02.006.02.007.02.006.02.006.02.007.02.007.02.006.02.007.02.007.02.008.02.007.02.007.021.008.02.007.02.008.02.008.02.008.02.008.02.008.02.009.02.008.02.008.02.01.02.008.02.009.021.009.02.009.02.009.02.01.02.009.02.01.02.009.02.01.02.01.02.01.02.01.02.01.02.01v-.888l-.02-.005-.02-.005-.02-.005-.02-.005-.02-.004-.02-.005-.02-.004-.02-.005-.02-.004-.02-.005-.02-.004-.02-.005-.021-.004-.02-.004-.02-.004-.02-.005-.02-.004-.02-.004-.02-.004-.02-.004-.02-.004-.02-.004-.02-.004-.02-.003-.02-.004-.021-.004-.02-.004-.02-.004-.02-.003-.02-.004-.02-.003-.02-.004-.02-.003-.02-.004-.02-.003-.02-.004-.02-.003-.02-.003-.021-.004-.02-.003-.02-.003-.02-.003-.02-.003-.02-.003-.02-.003-.02-.003-.02-.003-.02-.003-.02-.003-.02-.002-.02-.003-.021-.003-.02-.002-.02-.003-.02-.002-.02-.003-.02-.002-.02-.003-.02-.002-.02-.002-.02-.003-.02-.002-.02-.002-.021-.002-.02-.002-.02-.002-.02-.002-.02-.002-.02-.001-.02-.002-.02-.002-.02-.001-.02-.002-.02-.001-.02-.002-.02-.001-.021-.001-.02-.001-.02-.002h-.02l-.02-.002h-.02l-.02-.001-.02-.001-.02-.001h-.02l-.02-.001-.02-.001h-.02l-.021-.001h-.02l-.02-.001h-.02l-.02-.001h-.04l-.02-.001H130.947l-.02.001h-.02l-.02.001h-.02l-.021.001h-.02l-.02.001-.02.001-.02.001-.02.001h-.02l-.02.002h-.02l-.02.002-.02.001-.02.001-.02.002-.021.001-.02.002-.02.001-.02.002-.02.001-.02.002-.02.002-.02.001-.02.002-.02.002-.02.002-.02.002-.02.002-.021.003-.02.002-.02.002-.02.003-.02.002-.02.003-.02.002-.02.003-.02.003-.02.003-.02.003-.02.003-.021.003-.02.003-.02.003-.02.004-.02.003-.02.004-.02.003-.02.004-.02.004-.02.004-.02.004-.02.004-.02.004-.021.005-.02.004-.02.005-.02.004-.02.005-.02.005-.02.005-.02.005-.02.005-.02.005-.02.006-.02.005-.02.006-.021.005-.02.006-.02.006-.02.007-.02.006-.02.006-.02.007-.02.006-.02.007-.02.007-.02.007a.395.395 0 0 0-.02.008l-.021.007-.02.008-.02.007-.02.008-.02.008-.02.009-.02.008-.02.009-.02.009-.02.009-.02.009-.02.01a.349.349 0 0 0-.02.009l-.021.01-.02.01-.02.01-.02.01-.02.011-.02.011-.02.011-.02.012-.02.011a.325.325 0 0 0-.04.025.334.334 0 0 0-.04.025l-.021.013-.02.014-.02.014-.02.014-.02.014-.02.015-.02.016-.02.015a.322.322 0 0 0-.02.016Z" clip-rule="evenodd"/><path fill="#fff" d="M182.038.763h-24.795c-1.407 0-2.549.886-2.549 1.978v14.924c0 1.092 1.142 1.978 2.549 1.978h24.563c1.407 0 2.781-.886 2.781-1.978V2.741c0-1.092-1.142-1.978-2.549-1.978Z"/><path fill="#000" d="M179.416 10.41c.518-.107.801-.451.801-.987 0-1.213-1.297-1.038-2.265-1.038v3.488h.685v-1.395h.094l.951 1.395h.839l-1.105-1.463Zm-.578-.409h-.201V8.942h.21c.432 0 .668.179.668.515 0 .357-.236.544-.677.544ZM175.559 8.388h1.939v.596h-1.254v.774h1.211v.588h-1.211v.944h1.254v.587h-1.939V8.388ZM172.617 8.388l.938 2.349.95-2.349h.75l-1.52 3.583h-.368l-1.499-3.583h.749Z"/><path fill="url(#d)" d="M170.225 8.262c1.058 0 1.91.85 1.91 1.897 0 1.051-.857 1.898-1.91 1.898a1.903 1.903 0 0 1-1.909-1.898c0-1.05.856-1.897 1.909-1.897Z"/><path fill="#000" d="M168.114 8.521v.808c-.86-.855-2.003-.2-2.003.809 0 1.063 1.177 1.638 2.003.817v.808c-1.271.608-2.71-.242-2.71-1.625 0-1.328 1.417-2.255 2.71-1.617ZM163.953 11.342c.488 0 .959-.65-.141-1.038-.642-.234-.865-.485-.865-.965 0-.988 1.31-1.336 2.128-.609l-.36.46c-.445-.494-1.066-.264-1.066.106 0 .187.116.294.527.438.779.281 1.01.532 1.01 1.09 0 1.255-1.661 1.59-2.423.48l.441-.421c.159.302.424.46.749.46ZM162.497 8.388h-.685v3.49h.685v-3.49ZM159.607 8.388h-1.002v3.49h1.002c1.323 0 1.888-.954 1.888-1.74 0-1.026-.77-1.75-1.888-1.75Zm.801 2.63c-.21.187-.497.272-.938.272h-.18V8.984h.18c.441 0 .715.072.938.28.244.214.381.537.381.873 0 .336-.137.66-.381.88Z"/><path fill="#fff" fill-rule="evenodd" d="M220.985.763h-26.156c-.747 0-1.495.755-1.495 1.51v15.104c0 1.51.748 2.266 2.242 2.266h25.409c1.495 0 2.242-.755 2.242-2.266V3.03c0-1.51-.747-2.266-2.242-2.266Z" clip-rule="evenodd"/><path fill="#0079BE" fill-rule="evenodd" d="M209.648 16.546c3.448.017 6.596-2.837 6.596-6.309 0-3.796-3.148-6.42-6.596-6.42h-2.967c-3.49 0-6.362 2.624-6.362 6.42 0 3.473 2.872 6.326 6.362 6.31h2.967Z" clip-rule="evenodd"/><path fill="#fff" fill-rule="evenodd" d="M206.638 4.327c-3.211 0-5.813 2.621-5.813 5.856 0 3.233 2.602 5.853 5.813 5.854 3.211 0 5.813-2.62 5.814-5.854-.001-3.235-2.603-5.855-5.814-5.856Zm-3.538 5.728c.002-1.568.945-2.905 2.274-3.437v6.874c-1.329-.532-2.272-1.868-2.274-3.437Zm4.802 3.437V6.618c1.329.53 2.273 1.868 2.275 3.437-.002 1.569-.946 2.906-2.275 3.437Z" clip-rule="evenodd"/><path fill="#E21836" d="M237.828.763h7.462c1.041 0 1.689.856 1.446 1.911l-3.474 15.059c-.244 1.054-1.287 1.91-2.329 1.91h-7.461c-1.043 0-1.69-.856-1.445-1.91l3.474-15.059c.243-1.055 1.285-1.91 2.327-1.91Z"/><path fill="#00447C" d="M244.67.763h7.461c1.042 0 1.69.856 1.445 1.911l-3.474 15.059c-.245 1.054-1.286 1.91-2.33 1.91h-7.459c-1.044 0-1.69-.856-1.446-1.91l3.473-15.059c.245-1.055 1.287-1.91 2.33-1.91Z"/><path fill="#007B84" d="M252.911.763h7.46c1.042 0 1.69.856 1.445 1.911l-3.473 15.059c-.244 1.054-1.287 1.91-2.33 1.91h-7.461c-1.042 0-1.69-.856-1.445-1.91l3.473-15.059c.244-1.055 1.287-1.91 2.331-1.91Z"/><path fill="#fff" fill-rule="evenodd" d="m254.021 11.88-.704 3.038h.244l-.148.63h-.243l-.045.193h-.865l.045-.193h-1.758l.138-.581.179-.003.715-3.084.142-.623h.883l-.07.316s.223-.172.441-.23c.22-.058 1.498-.08 1.498-.08l-.148.617h-.304Zm-1.555 0-.181.778s.254-.12.395-.159c.141-.038.358-.053.358-.053l.13-.566h-.702Zm-.271 1.165-.187.805s.258-.138.4-.177c.141-.038.358-.063.358-.063l.133-.565h-.704Zm-.436 1.882h.703l.159-.684h-.703l-.159.684ZM254.522 11.263h.941l.011.354c-.005.057.045.086.155.088h.158l-.142.585h-.508c-.441.032-.608-.16-.597-.374l-.018-.653Z" clip-rule="evenodd"/><path fill="#fff" fill-rule="evenodd" d="M254.681 14.04h-.899l.121-.522h1.025l.114-.478h-1.013l.137-.585h2.819l-.138.585h-.947l-.114.478h.948l-.122.521h-1.024l-.169.22h.416l.147.657c.012.065.019.107.041.134.022.023.148.035.22.035h.126l-.149.641h-.32a2.5 2.5 0 0 1-.223-.011c-.098-.008-.171-.064-.237-.095a.346.346 0 0 1-.184-.224l-.143-.654-.421.646a.744.744 0 0 1-.664.357h-.655l.132-.568h.251c.072 0 .136-.03.18-.053a.279.279 0 0 0 .131-.116l.614-.969ZM244.754 12.612h2.376l-.136.574h-.955l-.116.488h.97l-.141.593h-.97l-.188.791c-.022.089.237.101.331.101l.482-.065-.155.652h-1.096a.938.938 0 0 1-.251-.035.283.283 0 0 1-.183-.129c-.043-.061-.107-.115-.075-.253l.251-1.052h-.541l.144-.603h.541l.115-.488h-.539l.136-.574ZM246.292 11.583h.976l-.142.597h-1.333l-.137.129c-.057.06-.081.034-.158.077a.91.91 0 0 1-.433.115h-.427l.137-.576h.128c.109 0 .183-.01.219-.035.04-.024.084-.087.132-.186l.217-.45h.971l-.15.33ZM247.666 11.26h.832l-.096.424s.25-.212.43-.284c.179-.071.59-.132.59-.132l1.343-.009-.363 1.541a1.776 1.776 0 0 1-.191.514.556.556 0 0 1-.215.21.837.837 0 0 1-.306.104c-.09.008-.226.011-.413.013h-1.295l-.29 1.22c-.029.12-.041.177-.017.21.022.03.068.063.129.063l.566-.056-.153.669h-.641c-.202 0-.352-.003-.454-.013-.1-.008-.202 0-.273-.055-.065-.052-.159-.12-.161-.192.002-.066.022-.176.055-.326l.923-3.9Zm1.861 1.56h-1.362l-.067.276h1.18c.138-.014.168.003.179-.002l.07-.275Zm-1.303-.25s.25-.247.702-.327c.103-.019.752-.014.752-.014l.078-.33h-1.374l-.158.67Z" clip-rule="evenodd"/><path fill="#fff" fill-rule="evenodd" d="m250.241 13.748-.052.372c-.029.114-.049.201-.131.277-.086.079-.189.16-.438.16l-.458.017.019.418c.004.121.033.109.053.128.021.02.042.03.063.035l.146-.006.437-.027-.143.614h-.504c-.356 0-.618-.011-.709-.076-.088-.06-.105-.127-.109-.241l-.068-1.634h.807l.01.335h.193c.068 0 .111-.007.139-.025.023-.018.038-.045.049-.087l.061-.26h.635Z" clip-rule="evenodd"/><path fill="#fff" d="M238.712 5.57c-.028.135-.547 2.546-.548 2.547-.112.486-.192.837-.466 1.062a.846.846 0 0 1-.552.192c-.339 0-.538-.171-.573-.495l-.006-.11.104-.656s.545-2.199.641-2.49l.009-.035c-1.058.013-1.247.003-1.26-.016l-.034.16-.554 2.48-.048.21-.091.685a1 1 0 0 0 .119.51c.252.448.974.515 1.381.515.525 0 1.018-.115 1.352-.318.576-.347.729-.888.864-1.365l.063-.246s.56-2.284.656-2.581l.007-.034c-.765.012-.992.002-1.064-.015ZM241.809 10.104a12.79 12.79 0 0 0-.946.016l-.017-.03c.038-.171.08-.336.119-.507l.052-.229c.082-.361.162-.775.17-.902.009-.077.033-.268-.182-.268-.092 0-.188.044-.284.088-.052.19-.159.727-.209.97-.109.517-.116.575-.164.828l-.032.034a13.265 13.265 0 0 0-.965.016l-.021-.034c.074-.308.149-.615.219-.922.187-.829.231-1.145.282-1.564l.035-.03c.435-.059.538-.073 1.01-.17l.038.043-.071.268c.079-.049.156-.097.238-.141.221-.107.468-.141.602-.141.205 0 .431.058.525.297.091.214.031.478-.087 1l-.06.263c-.121.58-.141.687-.207 1.081l-.045.034ZM243.333 10.104a13.042 13.042 0 0 0-1.003.015l-.012-.017-.013-.016c.056-.22.087-.298.117-.375.028-.078.055-.156.105-.378.066-.289.106-.494.136-.67.029-.174.048-.32.069-.488l.017-.014.019-.016a20.594 20.594 0 0 0 1.042-.17l.016.039c-.044.18-.088.362-.13.542-.043.18-.084.362-.126.542-.085.381-.118.526-.137.624-.02.098-.026.15-.058.348l-.021.018-.021.016ZM246.702 8.801c.133-.583.032-.856-.098-1.021-.196-.253-.54-.336-.899-.336-.215 0-.727.025-1.128.4-.286.266-.421.631-.501.982-.08.355-.174 1.002.409 1.236.183.078.441.102.608.102.43 0 .869-.121 1.198-.477.255-.282.371-.71.411-.886Zm-.979-.043c-.022.097-.106.467-.223.622-.078.113-.175.18-.28.18-.029 0-.215 0-.219-.277a1.875 1.875 0 0 1 .06-.433c.099-.438.216-.807.513-.807.235 0 .249.272.149.715ZM254.976 9.425a.515.515 0 0 1-.365.18c-.029 0-.215 0-.219-.276a1.795 1.795 0 0 1 .06-.43c.099-.435.216-.802.513-.802.193 0 .287.192.261.503l-.047.216c-.032.136-.069.269-.102.404a.877.877 0 0 1-.101.205Zm1.485-1.952c-.47.087-.593.106-1.043.169l-.035.028-.015.111a.64.64 0 0 0-.327-.278c-.201-.078-.672.024-1.073.396-.286.265-.422.628-.501.975-.081.353-.175.996.408 1.227.184.078.353.1.52.092.179-.01.343-.104.497-.234l-.042.165.026.035c.421-.02.549-.02 1.003-.015l.041-.034c.066-.391.129-.773.302-1.526.081-.358.167-.715.254-1.072l-.015-.039ZM249.267 10.104a12.798 12.798 0 0 0-.946.016l-.017-.03c.039-.171.081-.336.12-.507l.051-.229c.082-.361.162-.775.172-.902.007-.077.031-.268-.184-.268-.09 0-.186.044-.283.088-.052.19-.159.727-.21.97-.107.517-.116.575-.164.828l-.032.034a13.255 13.255 0 0 0-.964.016l-.02-.034c.074-.308.148-.615.218-.922.188-.829.23-1.145.283-1.564l.035-.03c.433-.059.538-.073 1.008-.17l.039.043-.07.268c.077-.049.156-.097.237-.141.22-.107.467-.141.601-.141.206 0 .432.058.526.297.09.214.03.478-.088 1l-.059.263c-.122.58-.142.687-.207 1.081l-.046.034ZM252.924 6.984a.998.998 0 0 1-.508.679c-.208.104-.458.113-.718.113h-.169l.015-.07.307-1.352.009-.069.006-.054.123.012s.636.057.653.06c.251.097.357.35.282.68Zm-.406-1.418-.312.006c-.811.009-1.137.006-1.271-.01l-.034.166-.289 1.361-.728 3.029c.707-.01.999-.01 1.12.003l.194-.944s.141-.594.15-.613c0 0 .042-.062.088-.087h.064c.61 0 1.301 0 1.841-.402.367-.273.619-.68.732-1.173.028-.122.05-.267.05-.412a.882.882 0 0 0-.146-.525c-.276-.388-.823-.393-1.459-.4ZM243.744 7.78c.248-.173.28-.415.069-.54-.211-.125-.582-.086-.831.087-.25.174-.279.416-.07.54.211.126.583.087.832-.087Z"/><path fill="#fff" fill-rule="evenodd" d="m259.585 7.469-.037-.043c-.462.096-.546.111-.971.169l-.034.029-.003.021-.002-.005c-.319.74-.308.58-.565 1.16l-.004-.072-.064-1.259-.04-.043c-.485.096-.497.111-.945.169l-.036.029a.975.975 0 0 1-.007.051l.005.005c.054.29.042.227.098.682.025.223.06.45.085.671.046.367.07.554.124 1.114-.303.507-.375.698-.663 1.142l-.206.33c-.023.036-.045.058-.074.069a.346.346 0 0 1-.136.02h-.157l-.131.593.585-.009a.731.731 0 0 0 .671-.386l.358-.63 2.149-3.807Z" clip-rule="evenodd"/><defs><linearGradient id="a" x1="134.189" x2="139.497" y1="10.774" y2="10.774" gradientUnits="userSpaceOnUse"><stop stop-color="#017D40"/><stop offset="1" stop-color="#4EAE34"/></linearGradient><linearGradient id="b" x1="122.735" x2="127.764" y1="11.746" y2="11.746" gradientUnits="userSpaceOnUse"><stop stop-color="#1C2B72"/><stop offset="1" stop-color="#006AB6"/></linearGradient><linearGradient id="c" x1="128.603" x2="133.631" y1="10.913" y2="10.913" gradientUnits="userSpaceOnUse"><stop stop-color="#762A30"/><stop offset="1" stop-color="#DD0336"/></linearGradient><linearGradient id="d" x1="170.225" x2="170.225" y1="8.262" y2="12.057" gradientUnits="userSpaceOnUse"><stop stop-color="#FF4F00"/><stop offset="1" stop-color="#F48914"/></linearGradient></defs></svg>