<svg width="66" height="65" viewBox="0 0 66 65" fill="none" xmlns="http://www.w3.org/2000/svg">
<g id="Frame" clip-path="url(#clip0_812_12298)">
<g id="Group">
<g id="Group_2">
<path id="Vector" d="M60.9513 37.9674C63.7496 34.8606 63.7496 30.1412 60.9513 27.0343V27.0343C59.4017 25.314 58.6554 23.0147 58.8979 20.7121V20.7121C59.3358 16.5555 56.5604 12.7361 52.4713 11.8705V11.8705C50.2049 11.3907 48.2486 9.96919 47.0928 7.9614V7.9614C45.0068 4.33752 40.5174 2.87918 36.6999 4.58533L33.375 6.07132L32.0192 32.5009L33.375 58.9304L36.7001 60.4165C40.5176 62.1226 45.0069 60.6643 47.0929 57.0404V57.0404C48.2486 55.0327 50.2049 53.6112 52.4713 53.1314V53.1314C56.5603 52.2657 59.3358 48.4463 58.8979 44.2897V44.2897C58.6554 41.987 59.4017 39.6878 60.9513 37.9674V37.9674Z" fill="#00B815"/>
<path id="Vector_2" d="M30.0499 4.58528C26.2325 2.87917 21.7431 4.33755 19.6571 7.96144V7.96144C18.5014 9.96923 16.5451 11.3908 14.2787 11.8706V11.8706C10.1896 12.7362 7.41419 16.5555 7.85206 20.7122V20.7122C8.09461 23.0148 7.34823 25.314 5.79872 27.0344V27.0344C3.0004 30.1412 3.00035 34.8606 5.79869 37.9675V37.9675C7.34824 39.6878 8.09461 41.9871 7.85206 44.2897V44.2897C7.41419 48.4464 10.1896 52.2657 14.2787 53.1314V53.1314C16.5451 53.6112 18.5014 55.0327 19.6572 57.0405V57.0405C21.7432 60.6643 26.2326 62.1226 30.05 60.4165L33.3751 58.9305V6.07135L30.0499 4.58528Z" fill="#00B815"/>
</g>
<g id="Group_3">
<path id="Vector_3" d="M46.9997 25.3853L44.1549 22.846L33.375 34.9234L32.0191 37.9248L33.375 40.6498L46.9997 25.3853Z" fill="#F7F0EB"/>
<path id="Vector_4" d="M22.0462 29.6301L19.35 32.3264L30.6862 43.6627L33.3752 40.6501V34.9236L30.5288 38.1125L22.0462 29.6301Z" fill="#FFFBF5"/>
</g>
</g>
</g>
<defs>
<clipPath id="clip0_812_12298">
<rect width="65" height="65" fill="white" transform="translate(0.875)"/>
</clipPath>
</defs>
</svg>
