<svg width="16" height="17" viewBox="0 0 16 17" fill="none" xmlns="http://www.w3.org/2000/svg">
<path d="M8 0.5C3.58214 0.5 0 4.08214 0 8.5C0 12.9179 3.58214 16.5 8 16.5C12.4179 16.5 16 12.9179 16 8.5C16 4.08214 12.4179 0.5 8 0.5ZM12.1036 5.825L7.13571 12.2C7.09643 12.2393 7.03214 12.325 6.95357 12.325C6.87143 12.325 6.81786 12.2679 6.77143 12.2214C6.725 12.175 3.95357 9.51071 3.95357 9.51071L3.9 9.45714C3.87857 9.425 3.86071 9.38571 3.86071 9.34286C3.86071 9.3 3.87857 9.26071 3.9 9.22857C3.91429 9.21429 3.925 9.20357 3.93929 9.18572C4.21429 8.89643 4.77143 8.31071 4.80714 8.275C4.85357 8.22857 4.89286 8.16786 4.97857 8.16786C5.06786 8.16786 5.125 8.24286 5.16786 8.28571C5.21071 8.32857 6.775 9.83214 6.775 9.83214L10.75 4.725C10.7857 4.69643 10.8286 4.675 10.875 4.675C10.9214 4.675 10.9643 4.69286 11 4.72143L12.0929 5.58214C12.1214 5.61786 12.1393 5.66071 12.1393 5.70714C12.1429 5.75357 12.125 5.79286 12.1036 5.825Z" fill="#00B815"/>
</svg>
