<svg width="24" height="24" viewBox="0 0 21 21" fill="none" xmlns="http://www.w3.org/2000/svg">
    <path d="M16.8001 5.7714V5.7714C17.2291 6.04172 17.4893 6.51328 17.4893 7.02032V13.3523C17.4893 14.244 17.036 15.0746 16.2859 15.5571L11.4799 18.6482C10.6161 19.2038 9.50748 19.2038 8.6437 18.6482L3.83766 15.5571C3.08763 15.0746 2.63428 14.244 2.63428 13.3523V6.99682C2.63428 6.50306 2.88282 6.04246 3.29554 5.7714V5.7714M16.8001 5.7714L12.3412 2.89752C10.9528 2.00269 9.16974 2.00101 7.77968 2.89323L3.29554 5.7714M16.8001 5.7714L12.381 8.69082C10.974 9.62033 9.14847 9.62206 7.73971 8.69524L3.29554 5.7714" stroke="currentColor" stroke-width="1.10538" stroke-linejoin="round"/>
    <path d="M4.91675 14.963L9.03497 17.6173C9.82959 18.1295 10.8577 18.0989 11.6205 17.5404L15.3128 14.837" stroke="currentColor" stroke-width="0.199049"/>
    <path d="M5.81592 14.9519L7.82661 16.2511V14.1631C7.82661 13.6079 7.3765 13.1578 6.82126 13.1578C6.26603 13.1578 5.81592 13.6079 5.81592 14.1631V14.9519Z" fill="currentColor"/>
    <path d="M14.4773 14.8591L12.4975 16.282V10.9614C12.4975 10.4147 12.9407 9.97153 13.4874 9.97153C14.0341 9.97153 14.4773 10.4147 14.4773 10.9614V14.8591Z" fill="currentColor"/>
    <path d="M11.1982 12.8793V17.1481C10.6068 17.5732 9.80994 17.5732 9.21848 17.1481V12.8793C9.21848 12.3326 9.66167 11.8894 10.2084 11.8894C10.7551 11.8894 11.1982 12.3326 11.1982 12.8793Z" fill="currentColor"/>
</svg>
