<svg width="28" height="33" viewBox="0 0 28 33" fill="none" xmlns="http://www.w3.org/2000/svg">
<path d="M26.2757 11.2052V32.1076H5.33327C5.33327 31.3026 5.26236 19.1799 5.33327 11.2052H26.2757Z" fill="url(#paint0_linear_814_10519)"/>
<path d="M0.483887 29.3012C1.36236 29.8076 4.03867 31.3518 5.33845 32.1085V31.5178C4.03784 30.7603 1.36153 29.2169 0.483887 28.7105V29.3012Z" fill="url(#paint1_linear_814_10519)"/>
<path d="M5.33252 32.1076H26.275V31.5169H5.33252C5.33252 31.5169 5.33252 31.5637 5.33252 32.1076Z" fill="url(#paint2_linear_814_10519)"/>
<path d="M26.2759 13.0831V12.3598H5.32337C5.3217 12.5934 5.31919 12.8353 5.31836 13.0831H26.2759Z" fill="url(#paint3_linear_814_10519)"/>
<path d="M27.015 8.15347H5.32007V12.6068H27.015V8.15347Z" fill="url(#paint4_linear_814_10519)"/>
<path d="M27.0151 8.15014H5.31175C4.83955 7.92155 4.42576 7.71716 4.05952 7.53612C3.99278 7.50442 3.92937 7.47272 3.8668 7.44185C3.83176 7.426 3.80006 7.40681 3.76419 7.39096C3.58732 7.3042 3.42548 7.22578 3.27615 7.1507L3.26447 7.14653L3.24862 7.13902C3.15518 7.09146 3.06758 7.04892 2.98081 7.00554L2.96914 7.00136C2.73722 6.88707 2.53615 6.78863 2.35512 6.69853C2.24917 6.64764 2.15073 6.60008 2.0598 6.5567C1.14211 6.10036 0.859289 5.93852 0 5.46633L8.49279 5.44631H8.65046L11.0364 5.43879L12.0801 5.43462C12.0801 5.43462 12.0801 5.4388 12.0843 5.43462L13.7019 5.43045H14.2851L15.8877 5.42628H15.9069L17.1991 5.42294L20.2108 5.4146H20.4511L22.9714 5.40709L24.5023 6.44658H24.5056L24.7183 6.59258L24.9544 6.75359L26.0448 7.49358L27.0151 8.15014Z" fill="url(#paint5_linear_814_10519)"/>
<path d="M17.6429 8.15348H14.3868L14.3826 8.1493L11.2642 5.43629L13.9288 5.42794L17.6388 8.1493L17.6429 8.15348Z" fill="url(#paint6_linear_814_10519)"/>
<path d="M26.0456 7.49194L19.7536 7.50029L17.3793 7.50445H16.5325L15.4663 7.50779H14.5995L13.6985 7.51197H11.7055L4.07532 7.52364H4.06698L4.05947 7.52031L3.76414 7.38182L3.27527 7.14989L3.26442 7.14573L3.24774 7.13821L3.13428 7.07481L2.45269 6.7044L2.44934 6.70106L2.35425 6.65017L10.5133 6.63015L11.0481 6.62597L12.3987 6.62181L14.2775 6.61847H14.8874L15.1118 6.6143H15.6666L16.832 6.61013H17.1866L24.7191 6.59094L24.9552 6.75195L26.0456 7.49194Z" fill="url(#paint7_linear_814_10519)"/>
<path d="M17.6446 8.15347V32.1085H14.396C14.396 31.8014 14.3877 21.7494 14.3877 12.6068V8.15347H17.6446Z" fill="url(#paint8_linear_814_10519)"/>
<path d="M17.4153 8.15347V32.1085H14.1667C14.1667 31.8014 14.1592 21.7494 14.1592 12.6068V8.15347H17.4153Z" fill="url(#paint9_linear_814_10519)"/>
<path d="M25.8169 7.34261L19.4148 7.35095H16.9304L16.5958 7.35429H13.2413L12.0675 7.35846L3.76406 7.3668L3.1342 7.07481L2.97987 7.0039L2.96902 6.99973L2.35417 6.66603L2.05884 6.50417L10.0043 6.48415L10.4298 6.48081L12.2335 6.47665L13.9696 6.47247H14.7613L15.1192 6.46831H15.7808L17.4626 6.46497L17.8289 6.46079L24.5021 6.44494H24.5063L24.7191 6.59094L24.9551 6.75195L25.8169 7.34261Z" fill="url(#paint10_linear_814_10519)"/>
<path d="M5.33918 11.2044V32.1076C4.03857 31.3501 1.36226 29.8067 0.484619 29.3003V8.51471C1.24797 8.93601 1.73685 9.20715 2.05971 9.38485C3.17428 10.003 2.27661 9.50665 3.76493 10.3301C4.11949 10.527 4.61171 10.7989 5.30081 11.181L5.32083 11.1927L5.33918 11.2044Z" fill="url(#paint11_linear_814_10519)"/>
<path d="M5.33001 13.0806V11.2511L5.28913 11.2277L3.44207 10.2049L2.3592 9.60341L0.474609 8.56058V10.7922L5.33001 13.0806Z" fill="url(#paint12_linear_814_10519)"/>
<path d="M5.32009 8.15351V12.6068L4.05952 12.0011L3.76419 11.8593L2.35429 11.1777L2.05896 11.0359L0.483876 10.2759L0 10.044V5.46469L2.05896 6.50417L2.35429 6.65351L3.76419 7.3668L4.05952 7.51613L5.32009 8.15351Z" fill="url(#paint13_linear_814_10519)"/>
<path d="M4.05947 7.51611V31.3927C3.05169 30.8062 2.76053 30.6368 2.35425 30.4007V6.65432L3.76414 7.36678L4.05947 7.51611Z" fill="url(#paint14_linear_814_10519)"/>
<path d="M3.76406 7.36591V31.1949C2.75628 30.6126 2.46512 30.4424 2.05884 30.2105V6.50328L3.76406 7.36591Z" fill="url(#paint15_linear_814_10519)"/>
<path d="M17.4151 8.15348H14.159L14.1548 8.1493L11.0364 5.43629L13.701 5.42794L17.411 8.1493L17.4151 8.15348Z" fill="url(#paint16_linear_814_10519)"/>
<path d="M14.1758 6.2522C14.1758 6.2522 19.0404 5.13513 23.7289 9.72607C23.7289 9.72607 22.193 9.12457 21.9711 9.35483C21.9711 9.35483 22.6118 10.0781 22.7203 11.1335C22.7203 11.1335 21.3196 9.46078 19.1989 8.26278C16.9188 6.97385 14.1916 6.46327 14.1916 6.46327L14.1758 6.2522Z" fill="url(#paint17_linear_814_10519)"/>
<path opacity="0.3" d="M19.2789 8.13167C21.0426 9.12861 22.3031 10.4501 22.6777 10.8672C22.6952 10.954 22.7094 11.0416 22.7203 11.1325C22.7203 11.1325 21.3195 9.45982 19.1988 8.26182C16.9188 6.97288 14.1916 6.46231 14.1916 6.46231L14.1841 6.3597C14.5545 6.42894 17.1649 6.93784 19.2789 8.13167Z" fill="url(#paint18_linear_814_10519)"/>
<path d="M22.0404 3.10449C22.4008 1.17151 20.7781 0.177071 20.0515 0.112833C18.0376 -0.0656988 14.1758 6.25133 14.1758 6.25133L14.1933 6.46407C14.1933 6.4649 21.5315 5.83503 22.0404 3.10449Z" fill="url(#paint19_linear_814_10519)"/>
<path opacity="0.3" d="M21.8276 3.25303C22.4433 1.20575 20.5687 0.152914 19.822 0.112869C19.8996 0.107864 19.9772 0.106195 20.0523 0.112869C20.7789 0.177107 22.4016 1.17155 22.0412 3.10453C21.5323 5.83423 14.1941 6.46494 14.1941 6.46494C14.1991 6.44575 21.1193 5.60398 21.8276 3.25303Z" fill="url(#paint20_linear_814_10519)"/>
<path d="M14.1934 6.46492C16.1306 5.39206 22.1757 0.610908 20.0525 0.112854C17.9459 -0.0740207 14.1768 6.25135 14.1768 6.25135L14.1934 6.46492Z" fill="url(#paint21_linear_814_10519)"/>
<path d="M14.1774 6.2523C14.1774 6.2523 9.20021 5.88774 5.26416 11.1394C5.26416 11.1394 6.69158 10.3118 6.94603 10.5045C6.94603 10.5045 6.42212 11.3171 6.47634 12.3766C6.47634 12.3766 7.6051 10.5104 9.51889 9.0037C11.577 7.38189 14.1941 6.46338 14.1941 6.46338L14.1774 6.2523Z" fill="url(#paint22_linear_814_10519)"/>
<path opacity="0.3" d="M9.42049 8.88677C7.82872 10.1407 6.78339 11.6382 6.47555 12.1087C6.47304 12.1963 6.47054 12.2856 6.47555 12.3765C6.47555 12.3765 7.60431 10.5102 9.51811 9.00356C11.5762 7.38176 14.1933 6.46324 14.1933 6.46324L14.1858 6.36063C13.8287 6.48493 11.3276 7.38427 9.42049 8.88677Z" fill="url(#paint23_linear_814_10519)"/>
<path d="M5.92563 4.33859C5.27491 2.48319 6.72735 1.25348 7.43481 1.07912C9.39782 0.596086 14.1765 6.25238 14.1765 6.25238L14.1915 6.46596C14.1923 6.46512 6.84415 6.959 5.92563 4.33859Z" fill="url(#paint24_linear_814_10519)"/>
<path opacity="0.3" d="M6.15961 4.45289C5.23859 2.52408 6.92963 1.19761 7.66294 1.0441C7.58536 1.05078 7.50944 1.06162 7.43603 1.07914C6.72857 1.2535 5.27613 2.4832 5.92685 4.3386C6.84537 6.95902 14.1935 6.46597 14.1935 6.46597C14.1827 6.44761 7.21579 6.66786 6.15961 4.45289Z" fill="url(#paint25_linear_814_10519)"/>
<path d="M14.1925 6.46511C12.116 5.70009 5.41108 1.89419 7.435 1.07828C9.48812 0.57355 14.1767 6.25153 14.1767 6.25153L14.1925 6.46511Z" fill="url(#paint26_linear_814_10519)"/>
<path d="M15.0834 6.39569C15.1218 6.8879 14.7522 7.31755 14.2609 7.35509C13.7687 7.39263 13.339 7.02471 13.3015 6.5325C13.2639 6.04028 13.6318 5.61064 14.1249 5.5731C14.6171 5.53472 15.0459 5.90347 15.0834 6.39569Z" fill="url(#paint27_linear_814_10519)"/>
<defs>
<linearGradient id="paint0_linear_814_10519" x1="24.9676" y1="32.9086" x2="6.15564" y2="9.80923" gradientUnits="userSpaceOnUse">
<stop stop-color="#E0A700"/>
<stop offset="1" stop-color="#FFEAAD"/>
</linearGradient>
<linearGradient id="paint1_linear_814_10519" x1="2.91156" y1="26.9647" x2="2.91156" y2="44.7324" gradientUnits="userSpaceOnUse">
<stop stop-color="white"/>
<stop offset="1"/>
</linearGradient>
<linearGradient id="paint2_linear_814_10519" x1="15.8042" y1="27.1939" x2="15.8042" y2="48.9501" gradientUnits="userSpaceOnUse">
<stop stop-color="white"/>
<stop offset="1"/>
</linearGradient>
<linearGradient id="paint3_linear_814_10519" x1="15.7969" y1="12.3122" x2="15.7969" y2="21.9711" gradientUnits="userSpaceOnUse">
<stop stop-color="#757575"/>
<stop offset="1" stop-color="white"/>
</linearGradient>
<linearGradient id="paint4_linear_814_10519" x1="30.7077" y1="28.2341" x2="11.8956" y2="5.13463" gradientUnits="userSpaceOnUse">
<stop stop-color="#E0A700"/>
<stop offset="1" stop-color="#FFEAAD"/>
</linearGradient>
<linearGradient id="paint5_linear_814_10519" x1="37.7027" y1="4.15473" x2="-10.3346" y2="9.42111" gradientUnits="userSpaceOnUse">
<stop stop-color="#E0A700"/>
<stop offset="1" stop-color="#FFEAAD"/>
</linearGradient>
<linearGradient id="paint6_linear_814_10519" x1="13.6756" y1="6.85231" x2="23.6332" y2="6.11411" gradientUnits="userSpaceOnUse">
<stop stop-color="white"/>
<stop offset="1"/>
</linearGradient>
<linearGradient id="paint7_linear_814_10519" x1="14.2001" y1="6.04041" x2="14.2001" y2="11.1097" gradientUnits="userSpaceOnUse">
<stop stop-color="white"/>
<stop offset="1"/>
</linearGradient>
<linearGradient id="paint8_linear_814_10519" x1="10.969" y1="20.1307" x2="26.4664" y2="20.1307" gradientUnits="userSpaceOnUse">
<stop stop-color="white"/>
<stop offset="1"/>
</linearGradient>
<linearGradient id="paint9_linear_814_10519" x1="15.787" y1="3.86517" x2="15.787" y2="28.9874" gradientUnits="userSpaceOnUse">
<stop stop-color="#094B4B"/>
<stop offset="0.0228" stop-color="#0B6361"/>
<stop offset="0.0655" stop-color="#0F8986"/>
<stop offset="0.1079" stop-color="#12A8A2"/>
<stop offset="0.1492" stop-color="#14BEB7"/>
<stop offset="0.1891" stop-color="#16CBC3"/>
<stop offset="0.2258" stop-color="#16CFC7"/>
<stop offset="0.2885" stop-color="#12BCB4"/>
<stop offset="0.4102" stop-color="#0C9D96"/>
<stop offset="0.538" stop-color="#08857E"/>
<stop offset="0.6729" stop-color="#05746D"/>
<stop offset="0.8197" stop-color="#036A63"/>
<stop offset="1" stop-color="#026760"/>
</linearGradient>
<linearGradient id="paint10_linear_814_10519" x1="2.05896" y1="6.9057" x2="25.8172" y2="6.9057" gradientUnits="userSpaceOnUse">
<stop stop-color="#094B4B"/>
<stop offset="0.1571" stop-color="#0D716F"/>
<stop offset="0.5" stop-color="#16CFC7"/>
<stop offset="0.5405" stop-color="#12BCB4"/>
<stop offset="0.6191" stop-color="#0C9D96"/>
<stop offset="0.7016" stop-color="#08857E"/>
<stop offset="0.7888" stop-color="#05746D"/>
<stop offset="0.8835" stop-color="#036A63"/>
<stop offset="1" stop-color="#026760"/>
</linearGradient>
<linearGradient id="paint11_linear_814_10519" x1="6.73652" y1="18.7213" x2="-15.4296" y2="27.9377" gradientUnits="userSpaceOnUse">
<stop stop-color="#E0A700"/>
<stop offset="1" stop-color="#FFEAAD"/>
</linearGradient>
<linearGradient id="paint12_linear_814_10519" x1="-2.31065" y1="10.8203" x2="9.27165" y2="10.8203" gradientUnits="userSpaceOnUse">
<stop stop-color="#757575"/>
<stop offset="1" stop-color="white"/>
</linearGradient>
<linearGradient id="paint13_linear_814_10519" x1="2.70205" y1="9.01817" x2="-19.4642" y2="18.2346" gradientUnits="userSpaceOnUse">
<stop stop-color="#E0A700"/>
<stop offset="1" stop-color="#FFEAAD"/>
</linearGradient>
<linearGradient id="paint14_linear_814_10519" x1="-2.6638" y1="19.023" x2="12.8738" y2="19.023" gradientUnits="userSpaceOnUse">
<stop stop-color="white"/>
<stop offset="1"/>
</linearGradient>
<linearGradient id="paint15_linear_814_10519" x1="2.91143" y1="4.45573" x2="2.91143" y2="35.6926" gradientUnits="userSpaceOnUse">
<stop stop-color="#094B4B"/>
<stop offset="0.0228" stop-color="#0B6361"/>
<stop offset="0.0655" stop-color="#0F8986"/>
<stop offset="0.1079" stop-color="#12A8A2"/>
<stop offset="0.1492" stop-color="#14BEB7"/>
<stop offset="0.1891" stop-color="#16CBC3"/>
<stop offset="0.2258" stop-color="#16CFC7"/>
<stop offset="0.2885" stop-color="#12BCB4"/>
<stop offset="0.4102" stop-color="#0C9D96"/>
<stop offset="0.538" stop-color="#08857E"/>
<stop offset="0.6729" stop-color="#05746D"/>
<stop offset="0.8197" stop-color="#036A63"/>
<stop offset="1" stop-color="#026760"/>
</linearGradient>
<linearGradient id="paint16_linear_814_10519" x1="14.2258" y1="3.96546" x2="14.2258" y2="10.1467" gradientUnits="userSpaceOnUse">
<stop stop-color="#026760"/>
<stop offset="0.1165" stop-color="#036A63"/>
<stop offset="0.2112" stop-color="#05746D"/>
<stop offset="0.2984" stop-color="#08857E"/>
<stop offset="0.3809" stop-color="#0C9D96"/>
<stop offset="0.4595" stop-color="#12BCB4"/>
<stop offset="0.5" stop-color="#16CFC7"/>
<stop offset="0.8429" stop-color="#0D716F"/>
<stop offset="1" stop-color="#094B4B"/>
</linearGradient>
<linearGradient id="paint17_linear_814_10519" x1="13.5287" y1="5.46075" x2="23.5826" y2="10.1691" gradientUnits="userSpaceOnUse">
<stop stop-color="#026760"/>
<stop offset="0.611" stop-color="#12B8B1"/>
<stop offset="0.7742" stop-color="#16CFC7"/>
<stop offset="0.8109" stop-color="#16CBC3"/>
<stop offset="0.8508" stop-color="#14BEB7"/>
<stop offset="0.8921" stop-color="#12A8A2"/>
<stop offset="0.9345" stop-color="#0F8986"/>
<stop offset="0.9772" stop-color="#0B6361"/>
<stop offset="1" stop-color="#094B4B"/>
</linearGradient>
<linearGradient id="paint18_linear_814_10519" x1="14.3915" y1="6.31219" x2="23.0666" y2="10.6606" gradientUnits="userSpaceOnUse">
<stop stop-color="#026760"/>
<stop offset="0.611" stop-color="#12B8B1"/>
<stop offset="0.7742" stop-color="#16CFC7"/>
<stop offset="0.8109" stop-color="#16CBC3"/>
<stop offset="0.8508" stop-color="#14BEB7"/>
<stop offset="0.8921" stop-color="#12A8A2"/>
<stop offset="0.9345" stop-color="#0F8986"/>
<stop offset="0.9772" stop-color="#0B6361"/>
<stop offset="1" stop-color="#094B4B"/>
</linearGradient>
<linearGradient id="paint19_linear_814_10519" x1="21.6798" y1="1.26434" x2="14.176" y2="6.70424" gradientUnits="userSpaceOnUse">
<stop stop-color="#094B4B"/>
<stop offset="0.0228" stop-color="#0B6361"/>
<stop offset="0.0655" stop-color="#0F8986"/>
<stop offset="0.1079" stop-color="#12A8A2"/>
<stop offset="0.1492" stop-color="#14BEB7"/>
<stop offset="0.1891" stop-color="#16CBC3"/>
<stop offset="0.2258" stop-color="#16CFC7"/>
<stop offset="0.2885" stop-color="#12BCB4"/>
<stop offset="0.4102" stop-color="#0C9D96"/>
<stop offset="0.538" stop-color="#08857E"/>
<stop offset="0.6729" stop-color="#05746D"/>
<stop offset="0.8197" stop-color="#036A63"/>
<stop offset="1" stop-color="#026760"/>
</linearGradient>
<linearGradient id="paint20_linear_814_10519" x1="21.7435" y1="1.35232" x2="14.2397" y2="6.79223" gradientUnits="userSpaceOnUse">
<stop stop-color="#094B4B"/>
<stop offset="0.0228" stop-color="#0B6361"/>
<stop offset="0.0655" stop-color="#0F8986"/>
<stop offset="0.1079" stop-color="#12A8A2"/>
<stop offset="0.1492" stop-color="#14BEB7"/>
<stop offset="0.1891" stop-color="#16CBC3"/>
<stop offset="0.2258" stop-color="#16CFC7"/>
<stop offset="0.2885" stop-color="#12BCB4"/>
<stop offset="0.4102" stop-color="#0C9D96"/>
<stop offset="0.538" stop-color="#08857E"/>
<stop offset="0.6729" stop-color="#05746D"/>
<stop offset="0.8197" stop-color="#036A63"/>
<stop offset="1" stop-color="#026760"/>
</linearGradient>
<linearGradient id="paint21_linear_814_10519" x1="18.4984" y1="4.3318" x2="11.2883" y2="-1.40185" gradientUnits="userSpaceOnUse">
<stop stop-color="#042121"/>
<stop offset="0.2326" stop-color="#063A38"/>
<stop offset="0.5008" stop-color="#08504D"/>
<stop offset="0.7605" stop-color="#0A5D59"/>
<stop offset="1" stop-color="#0A615D"/>
</linearGradient>
<linearGradient id="paint22_linear_814_10519" x1="14.6968" y1="5.37189" x2="5.47604" y2="11.5553" gradientUnits="userSpaceOnUse">
<stop stop-color="#026760"/>
<stop offset="0.611" stop-color="#12B8B1"/>
<stop offset="0.7742" stop-color="#16CFC7"/>
<stop offset="0.8109" stop-color="#16CBC3"/>
<stop offset="0.8508" stop-color="#14BEB7"/>
<stop offset="0.8921" stop-color="#12A8A2"/>
<stop offset="0.9345" stop-color="#0F8986"/>
<stop offset="0.9772" stop-color="#0B6361"/>
<stop offset="1" stop-color="#094B4B"/>
</linearGradient>
<linearGradient id="paint23_linear_814_10519" x1="13.9742" y1="6.34443" x2="6.06152" y2="11.9623" gradientUnits="userSpaceOnUse">
<stop stop-color="#026760"/>
<stop offset="0.611" stop-color="#12B8B1"/>
<stop offset="0.7742" stop-color="#16CFC7"/>
<stop offset="0.8109" stop-color="#16CBC3"/>
<stop offset="0.8508" stop-color="#14BEB7"/>
<stop offset="0.8921" stop-color="#12A8A2"/>
<stop offset="0.9345" stop-color="#0F8986"/>
<stop offset="0.9772" stop-color="#0B6361"/>
<stop offset="1" stop-color="#094B4B"/>
</linearGradient>
<linearGradient id="paint24_linear_814_10519" x1="6.0023" y1="2.46477" x2="14.2459" y2="6.69931" gradientUnits="userSpaceOnUse">
<stop stop-color="#094B4B"/>
<stop offset="0.0228" stop-color="#0B6361"/>
<stop offset="0.0655" stop-color="#0F8986"/>
<stop offset="0.1079" stop-color="#12A8A2"/>
<stop offset="0.1492" stop-color="#14BEB7"/>
<stop offset="0.1891" stop-color="#16CBC3"/>
<stop offset="0.2258" stop-color="#16CFC7"/>
<stop offset="0.2885" stop-color="#12BCB4"/>
<stop offset="0.4102" stop-color="#0C9D96"/>
<stop offset="0.538" stop-color="#08857E"/>
<stop offset="0.6729" stop-color="#05746D"/>
<stop offset="0.8197" stop-color="#036A63"/>
<stop offset="1" stop-color="#026760"/>
</linearGradient>
<linearGradient id="paint25_linear_814_10519" x1="5.95311" y1="2.56125" x2="14.1967" y2="6.79578" gradientUnits="userSpaceOnUse">
<stop stop-color="#094B4B"/>
<stop offset="0.0228" stop-color="#0B6361"/>
<stop offset="0.0655" stop-color="#0F8986"/>
<stop offset="0.1079" stop-color="#12A8A2"/>
<stop offset="0.1492" stop-color="#14BEB7"/>
<stop offset="0.1891" stop-color="#16CBC3"/>
<stop offset="0.2258" stop-color="#16CFC7"/>
<stop offset="0.2885" stop-color="#12BCB4"/>
<stop offset="0.4102" stop-color="#0C9D96"/>
<stop offset="0.538" stop-color="#08857E"/>
<stop offset="0.6729" stop-color="#05746D"/>
<stop offset="0.8197" stop-color="#036A63"/>
<stop offset="1" stop-color="#026760"/>
</linearGradient>
<linearGradient id="paint26_linear_814_10519" x1="9.61292" y1="5.01231" x2="15.8668" y2="-1.75173" gradientUnits="userSpaceOnUse">
<stop stop-color="#042121"/>
<stop offset="0.2326" stop-color="#063A38"/>
<stop offset="0.5008" stop-color="#08504D"/>
<stop offset="0.7605" stop-color="#0A5D59"/>
<stop offset="1" stop-color="#0A615D"/>
</linearGradient>
<linearGradient id="paint27_linear_814_10519" x1="14.1279" y1="5.62586" x2="14.2648" y2="7.41571" gradientUnits="userSpaceOnUse">
<stop stop-color="#073838"/>
<stop offset="0.0521" stop-color="#09504F"/>
<stop offset="0.1498" stop-color="#0D7673"/>
<stop offset="0.2466" stop-color="#109590"/>
<stop offset="0.341" stop-color="#12ABA4"/>
<stop offset="0.4322" stop-color="#14B8B1"/>
<stop offset="0.5161" stop-color="#14BCB5"/>
<stop offset="0.5304" stop-color="#13B3AC"/>
<stop offset="0.5969" stop-color="#0F8D89"/>
<stop offset="0.6664" stop-color="#0C6E6C"/>
<stop offset="0.7387" stop-color="#0A5655"/>
<stop offset="0.8151" stop-color="#084545"/>
<stop offset="0.898" stop-color="#073B3B"/>
<stop offset="1" stop-color="#073838"/>
</linearGradient>
</defs>
</svg>
