<svg viewBox="0 0 40 40" fill="none" xmlns="http://www.w3.org/2000/svg" xmlns:xlink="http://www.w3.org/1999/xlink">
<path d="M25.945 9.68201C25.945 10.3281 25.9105 13.5583 25.9105 14.2899C25.9104 15.0441 25.8435 15.4114 26.0922 15.9018C26.3053 16.3223 26.6829 16.6567 27.1258 16.8171C27.5688 16.9775 28.0725 16.9622 28.5048 16.7753C28.9371 16.5883 29.2933 16.2315 29.4797 15.7987C29.6662 15.3658 29.6808 14.8614 29.5197 14.4183C29.3729 14.0148 29.0924 13.6743 28.7896 13.3701C28.4869 13.0658 28.1563 12.7885 27.8769 12.4627C27.1828 11.6536 25.945 11.168 25.945 9.68201Z" fill="#DB5F7A"></path>
<path d="M24.3336 24.0709V9.7937C22.1205 9.84169 20.326 11.5871 20.326 13.8007V24.0709C20.326 26.2674 18.7747 27.4303 17.094 27.4303C15.4134 27.4303 13.9914 26.2028 13.9914 24.4585C13.9914 22.4605 12.3707 20.8408 10.3726 20.8408H10.0485C10.0485 20.8408 8.17375 31.3065 17.094 31.3065C22.834 31.3065 24.312 26.4828 24.3336 24.0709Z" fill="#DB5F7A"></path>
</svg>
