<svg width="17" height="17" viewBox="0 0 17 17" fill="none" xmlns="http://www.w3.org/2000/svg">
<path d="M2.42305 6.49171C2.21087 6.49171 2.00739 6.40742 1.85736 6.25739C1.70733 6.10736 1.62305 5.90388 1.62305 5.69171C1.62305 5.47953 1.70733 5.27605 1.85736 5.12602C2.00739 4.97599 2.21087 4.89171 2.42305 4.89171H4.49185L6.65745 2.72611C6.7536 2.62919 6.87301 2.55857 7.00426 2.52101C7.13552 2.48345 7.27421 2.48021 7.40707 2.5116C7.53994 2.54299 7.66252 2.60796 7.76309 2.70029C7.86365 2.79261 7.93884 2.90921 7.98145 3.03891L9.17345 6.61091L10.6574 5.12611C10.7316 5.05167 10.8198 4.99264 10.9168 4.95241C11.0139 4.91219 11.118 4.89155 11.223 4.89171H13.623C13.8352 4.89171 14.0387 4.97599 14.1887 5.12602C14.3388 5.27605 14.423 5.47953 14.423 5.69171C14.423 5.90388 14.3388 6.10736 14.1887 6.25739C14.0387 6.40742 13.8352 6.49171 13.623 6.49171H11.5542L9.38865 8.65731C9.2924 8.75401 9.17298 8.82443 9.04178 8.86186C8.91057 8.89929 8.77197 8.90247 8.63919 8.8711C8.50641 8.83973 8.38388 8.77486 8.2833 8.68267C8.18272 8.59048 8.10744 8.47406 8.06465 8.34451L6.87265 4.77251L5.38865 6.25731C5.31448 6.33174 5.22633 6.39077 5.12926 6.431C5.03219 6.47123 4.92812 6.49186 4.82305 6.49171H2.42305ZM13.623 8.09171C13.8352 8.09171 14.0387 8.17599 14.1887 8.32602C14.3388 8.47605 14.423 8.67953 14.423 8.89171V14.4917C14.423 14.7039 14.3388 14.9074 14.1887 15.0574C14.0387 15.2074 13.8352 15.2917 13.623 15.2917H2.42305C2.21087 15.2917 2.00739 15.2074 1.85736 15.0574C1.70733 14.9074 1.62305 14.7039 1.62305 14.4917V8.89171C1.62305 8.67953 1.70733 8.47605 1.85736 8.32602C2.00739 8.17599 2.21087 8.09171 2.42305 8.09171C2.63522 8.09171 2.8387 8.17599 2.98873 8.32602C3.13876 8.47605 3.22305 8.67953 3.22305 8.89171V11.2917H5.12865C5.43185 11.2917 5.70865 11.4629 5.84385 11.7341L6.42305 12.8917H9.62305L10.2022 11.7341C10.2685 11.6011 10.3705 11.4893 10.4969 11.4111C10.6232 11.333 10.7689 11.2916 10.9174 11.2917H12.823V8.89171C12.823 8.67953 12.9073 8.47605 13.0574 8.32602C13.2074 8.17599 13.4109 8.09171 13.623 8.09171Z" fill="#081F40"/>
<path d="M1.62305 8.0918H3.22305V8.8918H1.62305V8.0918ZM12.823 8.0918H14.423V8.8918H12.823V8.0918Z" fill="#081F40"/>
</svg>
