<svg width="31" height="31" viewBox="0 0 31 31" fill="none" xmlns="http://www.w3.org/2000/svg">
<circle cx="15.7777" cy="15.1388" r="15.1195" fill="#4B5B72" fill-opacity="0.08"/>
<g opacity="0.2">
<path d="M10.8223 10.3641C10.8223 9.34783 11.6461 8.52399 12.6624 8.52399C13.6786 8.52399 14.5025 9.34783 14.5025 10.3641V19.9134C14.5025 20.9297 13.6786 21.7535 12.6624 21.7535C11.6461 21.7535 10.8223 20.9297 10.8223 19.9134V10.3641Z" fill="#4B5B72"/>
<path d="M17.0525 10.3641C17.0525 9.34783 17.8763 8.52399 18.8926 8.52399C19.9089 8.52399 20.7327 9.34783 20.7327 10.3641V19.9134C20.7327 20.9297 19.9089 21.7535 18.8926 21.7535C17.8763 21.7535 17.0525 20.9297 17.0525 19.9134V10.3641Z" fill="#4B5B72"/>
</g>
</svg>
