<svg width="15" height="12" viewBox="0 0 15 12" fill="none" xmlns="http://www.w3.org/2000/svg">
<path d="M12.0037 10.0644V11.2237H3.2037V10.0644H12.0037ZM7.60201 0.223663C8.14101 0.223663 8.57847 0.685663 8.57847 1.25428C8.57847 1.70697 8.29924 2.08774 7.91678 2.22736C8.43293 3.61166 9.48217 5.94197 10.6075 5.56205C11.4622 5.27436 12.2922 4.28097 12.8803 3.42551C12.6019 3.24274 12.4175 2.92036 12.4175 2.55059C12.4175 1.98112 12.8549 1.51828 13.3965 1.51828C13.9338 1.51828 14.3712 1.98112 14.3721 2.55059C14.3721 3.12089 13.9338 3.58289 13.3965 3.58289C13.3855 3.58289 13.3762 3.57951 13.3669 3.57866L12.0477 9.51782H3.15801L1.8397 3.57866L1.81009 3.58289C1.27278 3.58289 0.834473 3.12089 0.834473 2.55059C0.834473 1.98112 1.27278 1.51828 1.81009 1.51828C2.34993 1.51828 2.78824 1.98112 2.78824 2.55059C2.78824 2.9212 2.60293 3.24274 2.3254 3.42551C2.91263 4.28097 3.74355 5.27436 4.59817 5.56205C5.72524 5.94112 6.77278 3.61166 7.28893 2.2282C6.90478 2.08774 6.6264 1.70697 6.6264 1.25512C6.6264 0.684817 7.0647 0.223663 7.6037 0.223663H7.60201Z" />
</svg>
