<svg width="106" height="30" viewBox="0 0 106 30" fill="none" xmlns="http://www.w3.org/2000/svg">
<g id="Group 1650">
<g id="Group">
<g id="Group_2">
<g id="Group_3">
<path id="Vector" d="M30.9447 20.1449C31.5515 20.509 32.765 20.9944 33.8572 20.873C34.828 20.873 35.4347 20.3876 35.4347 19.6595C35.4347 19.0527 35.0707 18.5673 33.9785 17.9606C32.6436 17.2325 31.6728 16.1403 31.6728 14.6841C31.6728 12.1357 33.8572 10.4368 36.891 10.4368C38.2258 10.4368 39.318 10.6795 39.9248 11.0435L39.0753 13.5919C38.5899 13.3492 37.7404 13.1065 36.891 13.1065C35.9201 13.1065 35.192 13.5919 35.192 14.32C35.192 14.9268 35.6774 15.2908 36.5269 15.7762C37.8618 16.6257 39.0753 17.7179 39.0753 19.1741C39.0753 21.9652 36.7696 23.6641 33.6145 23.5428C32.1582 23.5428 30.8234 23.1787 30.0953 22.6933L30.9447 20.1449Z" fill="#1A1919"/>
</g>
<g id="Group_4">
<path id="Vector_2" d="M39.8034 23.0572L43.3226 4.85446H46.8418L45.507 12.1356V12.2569C46.4778 11.1648 47.6913 10.4366 49.2689 10.4366C51.0891 10.4366 52.1813 11.6502 52.1813 13.7131C52.1813 14.3199 52.06 15.1694 51.9386 15.8975L50.6037 23.0572H47.0845L48.4194 16.0188C48.5408 15.5334 48.5408 15.048 48.5408 14.5626C48.5408 13.8345 48.1767 13.2277 47.4486 13.2277C46.3564 13.2277 45.1429 14.5626 44.6575 16.8683L43.444 22.9359H39.8034V23.0572Z" fill="#1A1919"/>
</g>
<g id="Group_5">
<path id="Vector_3" d="M65.1659 15.4122C65.1659 19.7808 62.3748 23.5428 58.1274 23.5428C54.9723 23.5428 53.2734 21.3584 53.2734 18.5673C53.2734 14.1987 56.0645 10.4368 60.4331 10.4368C63.5883 10.4368 65.1659 12.8638 65.1659 15.4122ZM56.7926 18.5673C56.7926 19.9022 57.278 20.873 58.4915 20.873C60.4331 20.873 61.4039 17.4752 61.4039 15.2908C61.4039 14.1987 61.0399 13.1065 59.705 13.1065C57.8847 13.2279 56.7926 16.5043 56.7926 18.5673Z" fill="#1A1919"/>
</g>
<g id="Group_6">
<path id="Vector_4" d="M64.1951 27.9109L66.6221 15.2903C66.8648 13.8341 67.2289 12.1352 67.3502 10.9217H70.5054L70.2627 12.1352C71.2335 10.9217 72.5683 10.1936 74.0246 10.1936C76.573 10.1936 77.6651 12.4993 77.6651 14.8049C77.6651 19.1736 74.874 23.4209 70.7481 23.4209C70.1413 23.5423 69.2919 23.0569 68.9278 23.0569H68.8064L67.8356 27.9109H64.1951ZM69.2918 20.3871C69.6559 20.7512 70.1413 20.8725 70.7481 20.8725C72.6897 20.8725 74.1459 17.596 74.1459 15.2903C74.1459 14.3195 73.7819 13.3487 72.6897 13.3487C71.4762 13.3487 70.2627 14.8049 69.8986 16.9893L69.2918 20.3871Z" fill="#1A1919"/>
</g>
<g id="Group_7">
<path id="Vector_5" d="M78.0294 23.057L80.4565 10.9218H84.097L81.67 23.057H78.0294ZM82.6408 9.7083C81.67 9.7083 80.9419 8.73748 80.9419 7.64531C80.9419 6.4318 81.7913 5.46098 83.0049 5.46098C84.097 5.46098 84.8251 6.4318 84.8251 7.40261C84.7038 8.73748 83.733 9.7083 82.6408 9.7083Z" fill="#1A1919"/>
</g>
<g id="Group_8">
<path id="Vector_6" d="M84.7038 23.0572L86.6454 13.3491H84.9465L85.4319 10.922H87.1308L87.2522 10.1939C87.4949 8.7377 88.1016 7.16013 89.3151 6.06796C90.2859 5.2185 91.4995 4.85444 92.8343 4.85444C93.6838 4.85444 94.4119 4.9758 94.776 5.09715L94.0479 7.88824C93.6838 7.76689 93.3197 7.64554 92.9557 7.64554C91.7422 7.64554 91.0141 8.85905 90.8927 10.0726L90.5287 10.922H92.9557L92.4703 13.3491H90.0432L88.1016 23.0572H84.7038Z" fill="#1A1919"/>
</g>
<g id="Group_9">
<path id="Vector_7" d="M97.4454 10.9217L98.0521 16.5039C98.1735 17.7174 98.2948 18.2028 98.4162 19.4163C98.6589 18.2028 98.9016 17.8387 99.5084 16.5039L101.693 10.9217H105.333L100.965 20.1444C99.387 23.2996 97.9308 25.6053 96.2319 27.1828C95.0184 28.3964 93.4408 28.8818 92.7127 29.1245L91.7419 26.0907C92.3486 25.848 93.0767 25.6053 93.8048 25.1199C94.6543 24.5131 95.3824 23.785 95.7465 22.9355C95.8678 22.8142 95.8678 22.6928 95.8678 22.4501L93.6835 10.9217H97.4454Z" fill="#1A1919"/>
</g>
</g>
<g id="Group_10">
<g id="Group_11">
<path id="Vector_8" d="M36.891 10.4368C38.2258 10.4368 39.318 10.6795 39.9248 11.0435L39.0753 13.5919C38.5899 13.3492 37.7404 13.1065 36.891 13.1065C35.9201 13.1065 35.192 13.5919 35.192 14.32C35.192 14.9268 35.6774 15.2908 36.5269 15.7762C37.8618 16.6257 39.0753 17.7179 39.0753 19.1741C39.0753 21.9652 36.7696 23.6641 33.6145 23.5428C32.1582 23.5428 30.8234 23.1787 30.0953 22.6933L30.9447 20.1449C31.5515 20.509 32.765 20.9944 33.8572 20.873C34.828 20.873 35.4347 20.3876 35.4347 19.6595C35.4347 19.0527 35.0707 18.5673 33.9785 17.9606C32.6436 17.2325 31.6728 16.1403 31.6728 14.6841" fill="#1A1919"/>
</g>
<g id="Group_12">
<path id="Vector_9" d="M39.8034 23.0571L42.9586 8.61627L46.8418 5.09707L45.507 12.2568C46.4778 11.1647 47.6913 10.4365 49.2689 10.4365C51.0891 10.4365 52.1813 11.6501 52.1813 13.713C52.1813 14.3198 52.06 15.1693 51.9386 15.8974L50.6037 23.0571H47.0845L48.4194 16.0187C48.5408 15.5333 48.5408 15.0479 48.5408 14.5625C48.5408 13.8344 48.1767 13.2276 47.4486 13.2276C46.3564 13.2276 45.1429 14.5625 44.6575 16.8682L43.444 22.9358H39.8034V23.0571Z" fill="#1A1919"/>
</g>
<g id="Group_13">
<path id="Vector_10" d="M60.3118 10.4368C63.5883 10.4368 65.1659 12.8638 65.1659 15.4122C65.1659 19.7808 62.3748 23.5428 58.1274 23.5428C54.9723 23.5428 53.2734 21.3584 53.2734 18.5673L60.3118 10.4368ZM56.7926 18.5673C56.7926 19.9022 57.278 20.873 58.4915 20.873C60.4331 20.873 61.4039 17.4752 61.4039 15.2908C61.4039 14.1987 61.0399 13.1065 59.705 13.1065C57.8847 13.2279 56.7926 16.5043 56.7926 18.5673Z" fill="#1A1919"/>
</g>
<g id="Group_14">
<path id="Vector_11" d="M70.6268 10.9217L70.3841 12.1352C71.3549 10.9217 72.6897 10.1936 74.146 10.1936C76.6944 10.1936 77.7865 12.4993 77.7865 14.8049C77.7865 19.1736 74.9954 23.4209 70.8695 23.4209C70.1414 23.5423 69.2919 23.0569 68.9278 23.0569H68.8065L67.8357 27.9109H64.3165L66.7435 15.0476L70.6268 10.9217ZM69.2919 20.3871C69.656 20.7512 70.1414 20.8725 70.7481 20.8725C72.6897 20.8725 74.146 17.596 74.146 15.2903C74.146 14.3195 73.7819 13.3487 72.6897 13.3487C71.4762 13.3487 70.2627 14.8049 69.8987 16.9893L69.2919 20.3871Z" fill="#1A1919"/>
</g>
<g id="Group_15">
<path id="Vector_12" d="M78.0294 23.057L80.4565 13.8343L84.097 10.9218L81.67 23.057H78.0294ZM83.0049 5.46098C84.097 5.46098 84.8251 6.31045 84.8251 7.40261C84.8251 8.73748 83.8543 9.7083 82.7622 9.7083C81.7913 9.7083 81.0632 8.73748 81.0632 7.64531" fill="#1A1919"/>
</g>
<g id="Group_16">
<path id="Vector_13" d="M92.713 4.85444C93.5624 4.85444 94.2906 4.9758 94.6546 5.2185L93.9265 8.00959C93.5624 7.88824 93.1984 7.76689 92.8343 7.76689C91.6208 7.76689 90.8927 8.98041 90.7714 10.1939L90.5287 10.922H92.9557L92.4703 13.3491H90.0432L88.1016 23.0572H84.7038L86.6454 13.3491H84.9465L85.4319 10.922H87.1308L87.2522 10.1939" fill="#1A1919"/>
</g>
<g id="Group_17">
<path id="Vector_14" d="M97.4454 10.9217L98.0521 16.3825C98.1735 17.596 98.2948 18.2028 98.4162 19.4163C98.6589 18.2028 98.9016 17.8387 99.5084 16.5039L101.693 10.9217H105.333L100.965 20.1444C99.387 23.2996 97.9308 25.6053 96.2319 27.1828C95.0184 28.3964 93.4408 28.8818 92.7127 29.1245L91.7419 26.0907C92.3486 25.848 93.0767 25.6053 93.8048 25.1199C94.6543 24.5131 95.3824 23.785 95.7465 22.9355C95.8678 22.8142 95.8678 22.5715 95.8678 22.3288L95.0184 13.5914L97.4454 10.9217Z" fill="#1A1919"/>
</g>
</g>
</g>
<g id="Group_18">
<g id="Group_19">
<path id="Vector_15" d="M21.8565 5.38338C21.7532 5.37357 19.5474 5.20997 19.5474 5.20997C19.5474 5.20997 18.0143 3.681 17.8464 3.51273C17.6782 3.34352 17.3496 3.394 17.2215 3.4328C17.2033 3.43794 16.8873 3.53657 16.3642 3.69783C15.8519 2.21748 14.9493 0.857265 13.3605 0.857265C13.3166 0.857265 13.2712 0.859135 13.2254 0.861939C12.7739 0.262228 12.2139 0 11.7301 0C8.02856 0 6.25981 4.65139 5.70544 7.01518C4.26669 7.46204 3.24396 7.78083 3.11495 7.82289C2.3105 8.07624 2.28573 8.10148 2.18149 8.86152C2.10109 9.43693 0 25.7656 0 25.7656L16.3703 28.8479L25.2412 26.9188C25.2412 26.9188 22.1276 5.76247 22.108 5.6171C22.0884 5.47219 21.9612 5.3918 21.8565 5.38338ZM13.1039 4.55182C13.1039 4.60745 13.103 4.6598 13.103 4.71262C12.2018 4.99355 11.2239 5.29737 10.2418 5.60354C10.7929 3.46739 11.825 2.43437 12.7286 2.045C12.9553 2.61807 13.1039 3.44168 13.1039 4.55182ZM11.6278 0.998429C11.7895 0.998429 11.9494 1.05265 12.1036 1.15969C10.9168 1.72014 9.64587 3.13411 9.10832 5.95598C8.32351 6.19998 7.55693 6.4393 6.8469 6.65993C7.47606 4.50648 8.96903 0.998429 11.6278 0.998429ZM12.2658 13.5779C12.2658 13.5779 11.3076 13.0642 10.1339 13.0642C8.41092 13.0642 8.32398 14.1505 8.32398 14.4235C8.32398 15.9169 12.1976 16.4895 12.1976 19.9873C12.1976 22.7395 10.4615 24.5111 8.11878 24.5111C5.30859 24.5111 3.87078 22.753 3.87078 22.753L4.62287 20.2546C4.62287 20.2546 6.09995 21.5303 7.34799 21.5303C8.16131 21.5303 8.49272 20.8852 8.49272 20.4145C8.49272 18.4663 5.31467 18.3793 5.31467 15.1779C5.31467 12.485 7.23861 9.87678 11.1239 9.87678C12.6192 9.87678 13.3596 10.3082 13.3596 10.3082L12.2658 13.5779ZM14.0743 4.41066C14.0743 4.31203 14.0752 4.21574 14.0752 4.10964C14.0752 3.19067 13.9476 2.4498 13.7438 1.86271C14.5628 1.96507 15.1082 2.9018 15.4593 3.97922C15.0484 4.10823 14.581 4.25314 14.0743 4.41066Z" fill="#8DB849"/>
</g>
<g id="Group_20">
<path id="Vector_16" d="M21.8565 5.38338C21.7532 5.37357 19.5474 5.20997 19.5474 5.20997C19.5474 5.20997 18.0143 3.681 17.8464 3.51273C17.6782 3.34352 17.3496 3.394 17.2215 3.4328C17.2033 3.43794 16.8873 3.53657 16.3642 3.69783C15.8519 2.21748 14.9493 0.857265 13.3605 0.857265C13.3166 0.857265 13.2712 0.859135 13.2254 0.861939C12.7739 0.262228 12.2139 0 11.7301 0C8.02856 0 7.11521 4.65139 6.56084 7.01518C5.12209 7.46204 4.01802 9.92212 3.88761 9.96325C3.0841 10.2166 3.05932 10.2418 2.95462 11.0023C2.87375 11.5773 0 25.7656 0 25.7656L16.3703 28.8479L25.2412 26.9188C25.2412 26.9188 22.1276 5.76247 22.108 5.6171C22.0884 5.47219 21.9612 5.3918 21.8565 5.38338ZM13.1039 4.55182C13.1039 4.60745 13.103 4.6598 13.103 4.71262C12.2018 4.99355 11.2239 5.29737 10.2418 5.60354C10.7929 3.46739 11.825 2.43437 12.7286 2.045C12.9553 2.61807 13.1039 3.44168 13.1039 4.55182ZM11.6278 0.998429C11.7895 0.998429 11.9494 1.05265 12.1036 1.15969C10.9168 1.72014 9.64587 3.13411 9.10832 5.95598C8.32351 6.19998 7.55693 6.4393 6.8469 6.65993C7.47606 4.50648 8.96903 0.998429 11.6278 0.998429ZM12.2658 13.5779C12.2658 13.5779 11.3076 13.0642 10.1339 13.0642C8.41092 13.0642 8.32398 14.1505 8.32398 14.4235C8.32398 15.9169 12.1976 16.4895 12.1976 19.9873C12.1976 22.7395 10.4615 24.5111 8.11878 24.5111C5.30859 24.5111 3.87078 22.753 3.87078 22.753L4.62287 20.2546C4.62287 20.2546 6.09995 21.5303 7.34799 21.5303C8.16131 21.5303 8.49272 20.8852 8.49272 20.4145C8.49272 18.4663 5.31467 18.3793 5.31467 15.1779C5.31467 12.485 7.23861 9.87678 11.1239 9.87678C12.6192 9.87678 13.3596 10.3082 13.3596 10.3082L12.2658 13.5779ZM14.0743 4.41066C14.0743 4.31203 14.0752 4.21574 14.0752 4.10964C14.0752 3.19067 13.9476 2.4498 13.7438 1.86271C14.5628 1.96507 15.1082 2.9018 15.4593 3.97922C15.0484 4.10823 14.581 4.25314 14.0743 4.41066Z" fill="#8DB849"/>
</g>
<path id="Vector_17" d="M16.3702 28.8475L25.2411 26.9189C25.2411 26.9189 22.1276 5.76257 22.1079 5.6172C22.0883 5.47183 21.9616 5.3919 21.8564 5.38348C21.7531 5.37367 19.5473 5.21007 19.5473 5.21007C19.5473 5.21007 18.0142 3.68111 17.8464 3.51283C17.7566 3.42215 17.6225 3.39644 17.4958 3.39551C17.1592 3.96577 17.2289 5.0488 17.2289 5.0488L16.1856 28.8124L16.3702 28.8475Z" fill="#55932C"/>
<path id="Vector_18" d="M13.3604 0.857849C13.3165 0.857849 13.2712 0.859718 13.2254 0.862523C12.7738 0.262811 12.2138 0.000583649 11.7301 0.000583649C8.04344 0.000583649 6.27329 4.61551 5.71191 6.98725L6.85571 6.63247C7.4886 4.47809 8.98017 0.998545 11.6277 0.998545C11.7894 0.998545 11.9493 1.05277 12.1035 1.15981C10.92 1.71839 9.65233 3.12722 9.11292 5.93366L10.2488 5.58309C10.8013 3.46049 11.8292 2.43309 12.7294 2.04512C12.9557 2.61865 13.1048 3.4418 13.1048 4.55194C13.1048 4.60242 13.1048 4.65057 13.1038 4.69871L14.0751 4.39816C14.0751 4.30467 14.0761 4.21119 14.0761 4.10975C14.0761 3.19079 13.9485 2.44991 13.7447 1.86282C14.5608 1.96472 15.1058 2.89724 15.4564 3.96999L16.3623 3.68907C15.8486 2.21293 14.9464 0.857849 13.3604 0.857849Z" fill="#4A7A2B"/>
<path id="Vector_19" d="M19.9176 5.23811C19.6961 5.22082 19.547 5.21007 19.547 5.21007C19.547 5.21007 18.0138 3.68111 17.846 3.51283C17.7562 3.42215 17.6221 3.39644 17.4954 3.39551C17.1589 3.96577 17.2285 5.0488 17.2285 5.0488L16.1852 28.8124L16.3703 28.8475L21.0904 27.821L19.9176 5.23811Z" fill="#4C822A"/>
</g>
</g>
</svg>
