<svg xmlns="http://www.w3.org/2000/svg" width="21" height="21" fill="none"><path fill="#8DB849" d="M10.108 1.016c.144 0 .216.072.36.144-.863.36-1.726 1.295-2.158 3.31L6.727 4.9c.504-1.439 1.511-3.885 3.381-3.885Zm.792.72c.144.431.288.935.288 1.726v.144L9.1 4.182c.432-1.511 1.151-2.159 1.799-2.446Zm1.87 1.295-.935.287v-.215c0-.648-.072-1.152-.216-1.583.504.144.935.791 1.151 1.51Zm4.676 1.15a.155.155 0 0 0-.144-.143c-.143 0-1.654-.144-1.654-.144s-1.08-1.08-1.223-1.151c-.144-.144-.36-.072-.432-.072 0 0-.216.072-.575.216C13.058 1.88 12.41.944 11.332.944h-.073A1.272 1.272 0 0 0 10.18.37C7.59.297 6.368 3.534 5.936 5.189c-.575.144-1.15.36-1.798.575-.576.144-.576.216-.648.72-.072.36-1.51 11.726-1.51 11.726l11.438 2.158L19.604 19S17.446 4.325 17.446 4.18Z"/><path fill="#5A863E" d="M17.23 4.038c-.072 0-1.582-.144-1.582-.144s-1.08-1.08-1.223-1.151c-.072-.072-.072-.072-.144-.072l-.864 17.697L19.605 19S17.446 4.325 17.446 4.18c0-.071-.144-.143-.216-.143Z"/><path fill="#FFFFFE" d="m11.331 7.49-.791 2.303s-.647-.36-1.51-.36c-1.224 0-1.296.72-1.296.935 0 1.007 2.734 1.439 2.734 3.885 0 1.942-1.223 3.165-2.877 3.165-1.943 0-2.95-1.223-2.95-1.223l.504-1.726s1.007.863 1.87.863c.576 0 .791-.432.791-.791 0-1.367-2.23-1.44-2.23-3.67 0-1.87 1.367-3.668 4.029-3.668 1.223-.072 1.726.288 1.726.288Z"/></svg>