<svg width="16" height="17" viewBox="0 0 16 17" fill="none" xmlns="http://www.w3.org/2000/svg">
<path fill-rule="evenodd" clip-rule="evenodd" d="M7.10472 13.5777C7.09036 13.5838 7.07635 13.5898 7.06268 13.5959C6.469 13.8456 5.88148 14.1134 5.26832 14.3176C5.21227 14.3358 5.1569 14.3536 5.10222 14.3711C4.28604 14.6248 3.67391 14.6824 3.31094 14.3176C3.1397 14.1447 3.02384 13.8759 2.9695 13.4878C2.8967 12.9642 2.91003 12.6024 2.9695 11.8767C2.98488 11.6897 3.00231 11.4784 3.02281 11.2338C3.09664 10.3595 3.12535 9.99468 2.94181 9.6197C2.85363 9.43878 2.71726 9.25684 2.51117 9.01427C2.0918 8.518 1.6386 8.04902 1.24384 7.53254C1.14951 7.40923 1.05825 7.2839 0.972122 7.15453C0.509691 6.46016 0.432792 5.98006 0.676824 5.61317C0.869589 5.3241 1.26127 5.10578 1.82008 4.91071C1.96979 4.85815 2.13179 4.80661 2.30507 4.75708C2.91823 4.57919 3.54984 4.47104 4.1671 4.31034C4.39985 4.24868 4.58134 4.18501 4.73207 4.10819C5.14221 3.89998 5.32574 3.59373 5.69897 2.98527C5.71947 2.95158 5.74067 2.91688 5.76254 2.88117C6.09783 2.33436 6.41774 1.77543 6.82787 1.27613C6.85863 1.23907 6.88905 1.20302 6.91913 1.16798C7.29851 0.731348 7.642 0.49686 7.99882 0.499892C8.36794 0.503935 8.75142 0.762681 9.20155 1.31858C9.25692 1.38664 9.31297 1.45907 9.36971 1.53589C9.72858 2.01902 10.0229 2.54257 10.3376 3.05299C10.3759 3.11498 10.4149 3.17697 10.4545 3.23897C10.6483 3.54421 10.8411 3.85248 11.1507 4.04856C11.2153 4.09 11.2861 4.12639 11.363 4.15772C12.0151 4.41646 13.0692 4.54281 14.0299 4.85815C14.0805 4.87433 14.129 4.89083 14.1755 4.90768C14.884 5.15834 15.2419 5.42922 15.3834 5.72132C15.5105 5.98107 15.4654 6.257 15.3444 6.55011C15.1844 6.93722 14.9302 7.3122 14.642 7.67303C14.1499 8.29059 13.5603 8.86873 13.1809 9.40542C13.1447 9.45663 13.1119 9.50919 13.0825 9.5631C12.984 9.74503 12.9277 9.94111 12.9205 10.1544C12.9154 10.3575 12.9246 10.587 12.942 10.8305C13.0117 11.8241 13.2024 13.0703 12.9441 13.8506C12.8836 14.0356 12.8077 14.1872 12.6939 14.3034C12.5206 14.4793 12.2602 14.5723 11.8275 14.5672C11.5947 14.5601 11.3107 14.4985 11.0031 14.4055C10.4043 14.2256 9.7132 13.9284 9.12875 13.6828C8.9729 13.6171 8.82422 13.5545 8.68683 13.4999C8.45305 13.4059 8.22439 13.3665 7.99882 13.3695C7.69839 13.3735 7.40309 13.4534 7.10472 13.5777V13.5777ZM7.99882 4.21331C7.99882 4.31101 7.99882 4.40872 7.99882 4.50642C7.99882 4.40872 7.99882 4.31101 7.99882 4.21331C7.99882 4.13043 7.99882 4.04755 7.99882 3.96467C7.99882 4.04755 7.99882 4.13043 7.99882 4.21331ZM9.12875 13.6828C9.1226 13.5858 9.11542 13.4891 9.10722 13.3927C9.11542 13.4891 9.1226 13.5858 9.12875 13.6828Z" fill="url(#paint0_linear_811_7019)"/>
<path d="M3.14106 13.8642C3.152 13.9101 3.1667 13.9545 3.18515 13.9976C3.17969 14.0078 3.17559 14.0185 3.17285 14.03C3.16465 14.0118 3.1585 13.9936 3.15234 13.9744C3.14209 13.937 3.13696 13.8996 3.14106 13.8642V13.8642ZM3.16054 13.8289C3.1708 13.8743 3.18823 13.9198 3.20874 13.9633C3.19985 13.9741 3.19199 13.9855 3.18515 13.9976C3.1667 13.9545 3.152 13.9101 3.14106 13.8642C3.14106 13.8636 3.14106 13.8629 3.14106 13.8622C3.14414 13.843 3.15132 13.8319 3.16054 13.8289V13.8289ZM3.20874 13.8551C3.21079 13.8578 3.2125 13.8605 3.21386 13.8632C3.22685 13.8848 3.23984 13.9067 3.25283 13.9289C3.23847 13.936 3.22514 13.9461 3.21284 13.9582C3.21147 13.9596 3.21011 13.9613 3.20874 13.9633C3.18823 13.9198 3.1708 13.8743 3.16054 13.8289C3.1749 13.8228 3.19438 13.8339 3.20874 13.8551ZM3.18515 13.9976C3.21899 14.0765 3.26513 14.1493 3.32153 14.215C3.36562 14.2645 3.41483 14.309 3.46917 14.3484C3.46302 14.3551 3.45584 14.3608 3.44764 14.3656C3.43124 14.3565 3.41586 14.3474 3.40253 14.3383C3.33178 14.2928 3.28154 14.221 3.23745 14.1513C3.21489 14.1169 3.19131 14.0745 3.17285 14.03C3.17559 14.0185 3.17969 14.0078 3.18515 13.9976ZM3.20874 13.9633C3.24463 14.0381 3.29384 14.1068 3.34921 14.1654C3.39433 14.2139 3.44457 14.2574 3.49891 14.2958C3.49378 14.313 3.48558 14.3292 3.4743 14.3423C3.47225 14.3443 3.47054 14.3464 3.46917 14.3484C3.41483 14.309 3.36562 14.2645 3.32153 14.215C3.26513 14.1493 3.21899 14.0765 3.18515 13.9976C3.19199 13.9855 3.19985 13.9741 3.20874 13.9633V13.9633ZM3.25283 13.9289C3.3246 14.0512 3.39843 14.1715 3.50711 14.2635C3.50574 14.2749 3.50301 14.2857 3.49891 14.2958C3.44457 14.2574 3.39433 14.2139 3.34921 14.1654C3.29384 14.1068 3.24463 14.0381 3.20874 13.9633C3.21011 13.9613 3.21147 13.9596 3.21284 13.9582C3.22514 13.9461 3.23847 13.936 3.25283 13.9289V13.9289ZM3.46917 14.3484C3.50199 14.372 3.53651 14.3932 3.57274 14.412C3.54505 14.408 3.51531 14.3979 3.48661 14.3848C3.47293 14.3787 3.45995 14.3723 3.44764 14.3656C3.45584 14.3608 3.46302 14.3551 3.46917 14.3484V14.3484ZM3.49891 14.2958C3.543 14.3271 3.59017 14.3544 3.63938 14.3777C3.64348 14.3949 3.63323 14.406 3.61477 14.41C3.60144 14.4131 3.58709 14.4131 3.57274 14.412C3.53651 14.3932 3.50199 14.372 3.46917 14.3484C3.47054 14.3464 3.47225 14.3443 3.4743 14.3423C3.48558 14.3292 3.49378 14.313 3.49891 14.2958V14.2958ZM3.50711 14.2635C3.52967 14.2827 3.55325 14.3009 3.57991 14.317C3.59324 14.3261 3.6076 14.3352 3.6199 14.3464C3.63118 14.3585 3.63733 14.3696 3.63938 14.3777C3.59017 14.3544 3.543 14.3271 3.49891 14.2958C3.50301 14.2857 3.50574 14.2749 3.50711 14.2635V14.2635Z" fill="url(#paint1_linear_811_7019)"/>
<path d="M3.07798 12.7821C3.08208 12.8629 3.08823 12.9448 3.08618 13.0267C3.08516 13.056 3.08926 13.1591 3.0626 13.1752C3.06055 13.1766 3.05884 13.1776 3.05747 13.1783C3.00005 12.9974 2.97545 12.8104 2.9857 12.6193C2.98638 12.6166 2.98672 12.6143 2.98672 12.6123C3.01475 12.617 3.04312 12.6187 3.07183 12.6173C3.07319 12.6726 3.07525 12.7275 3.07798 12.7821ZM3.22666 10.2512C3.23691 10.4675 3.22665 10.6848 3.20717 10.9011C3.16718 11.3438 3.08926 11.7825 3.07285 12.2262C3.06773 12.3566 3.06773 12.4869 3.07183 12.6173C3.04312 12.6187 3.01475 12.617 2.98672 12.6123C3.01338 12.1342 3.08926 11.6612 3.1354 11.1861C3.15898 10.9365 3.17436 10.6868 3.17026 10.4372C3.16821 10.3119 3.16103 10.1865 3.14565 10.0612C3.14053 10.0137 3.1354 9.9682 3.12925 9.92272C3.15181 9.92003 3.17436 9.91901 3.19692 9.91969C3.21948 10.0278 3.22153 10.141 3.22666 10.2512ZM3.17847 9.84591C3.18598 9.87016 3.19213 9.89476 3.19692 9.91969C3.17436 9.91901 3.15181 9.92003 3.12925 9.92272C3.11899 9.85399 3.10464 9.78728 3.079 9.72057C3.07969 9.71923 3.08106 9.71855 3.08311 9.71855C3.11387 9.70541 3.13643 9.73472 3.15181 9.76909C3.16513 9.7984 3.17334 9.83074 3.17847 9.84591V9.84591ZM2.9857 12.6193C2.97545 12.8104 3.00005 12.9974 3.05747 13.1783C3.05064 13.1816 3.04449 13.1833 3.03902 13.1833C3.02056 13.1823 3.01133 13.1601 3.00621 13.1378C3.00313 13.1257 3.00108 13.1146 2.99903 13.1065C2.98673 13.0509 2.97545 12.9953 2.96724 12.9397C2.95186 12.8286 2.94776 12.7174 2.95391 12.6052C2.96485 12.6079 2.97579 12.6102 2.98672 12.6123C2.98672 12.6143 2.98638 12.6166 2.9857 12.6193ZM3.14565 10.0612C3.16103 10.1865 3.16821 10.3119 3.17026 10.4372C3.17436 10.6868 3.15898 10.9365 3.1354 11.1861C3.08926 11.6612 3.01338 12.1342 2.98672 12.6123C2.97579 12.6102 2.96485 12.6079 2.95391 12.6052C2.95391 12.6038 2.95391 12.6028 2.95391 12.6022C2.98057 12.1221 3.05645 11.647 3.10259 11.1689C3.12617 10.9193 3.14155 10.6696 3.13745 10.42C3.1354 10.2947 3.12822 10.1693 3.11387 10.044C3.10908 10.0056 3.10396 9.96719 3.09849 9.92878C3.10806 9.92676 3.11831 9.92474 3.12925 9.92272C3.1354 9.9682 3.14053 10.0137 3.14565 10.0612V10.0612ZM3.12925 9.92272C3.11831 9.92474 3.10806 9.92676 3.09849 9.92878C3.0937 9.90048 3.08892 9.87218 3.08413 9.84388C3.08106 9.82973 3.07183 9.80649 3.0667 9.78324C3.06055 9.75696 3.05952 9.73169 3.079 9.72057C3.10464 9.78728 3.11899 9.85399 3.12925 9.92272V9.92272Z" fill="url(#paint2_linear_811_7019)"/>
<path d="M3.85721 9.46861C3.81141 9.4868 3.76663 9.50701 3.72289 9.52925C3.7017 9.49219 3.67948 9.45547 3.65624 9.41908C3.70956 9.40796 3.76083 9.40594 3.79261 9.41807C3.81927 9.42818 3.83978 9.44637 3.85721 9.46861V9.46861ZM3.94436 9.66267C3.90848 9.70411 3.87054 9.74251 3.82952 9.7789C3.80287 9.69299 3.76595 9.6091 3.72289 9.52925C3.76663 9.50701 3.81141 9.4868 3.85721 9.46861C3.87156 9.48882 3.88387 9.51005 3.89412 9.53228C3.91463 9.57473 3.93001 9.61819 3.94436 9.66267ZM3.99153 9.89513C3.95598 9.93961 3.9177 9.98206 3.87669 10.0225C3.87259 9.97498 3.86541 9.92647 3.85618 9.87997C3.84866 9.84561 3.83978 9.81192 3.82952 9.7789C3.87054 9.74251 3.90848 9.70411 3.94436 9.66267C3.96795 9.73847 3.98332 9.8163 3.99153 9.89513ZM3.86849 11.3233C3.83157 11.3321 3.79569 11.3435 3.76082 11.3577C3.79774 11.0928 3.83567 10.827 3.86336 10.5612C3.88181 10.3833 3.89514 10.2014 3.87669 10.0225C3.9177 9.98206 3.95598 9.93961 3.99153 9.89513C4.01306 10.0791 3.99973 10.2711 3.98127 10.4561C3.95051 10.7462 3.90847 11.0342 3.86849 11.3233V11.3233ZM3.81209 11.7741C3.77313 11.7933 3.73519 11.8145 3.6993 11.8388C3.71673 11.6781 3.73827 11.5174 3.76082 11.3577C3.79569 11.3435 3.83157 11.3321 3.86849 11.3233C3.84798 11.4739 3.8285 11.6235 3.81209 11.7741ZM3.77518 12.7646C3.73348 12.7983 3.69281 12.833 3.65316 12.8687C3.63881 12.6443 3.65009 12.4179 3.66649 12.1935C3.6747 12.0753 3.68597 11.957 3.6993 11.8388C3.73519 11.8145 3.77313 11.7933 3.81209 11.7741C3.77825 12.0904 3.75775 12.4068 3.77415 12.7242C3.77484 12.7376 3.77518 12.7511 3.77518 12.7646ZM3.74544 12.9647C3.72904 13.0092 3.70648 13.0527 3.67675 13.0961C3.66547 13.0203 3.65829 12.9445 3.65316 12.8687C3.69281 12.833 3.73348 12.7983 3.77518 12.7646C3.77518 12.8374 3.76595 12.9031 3.74544 12.9647ZM3.72289 9.52925C3.66137 9.56159 3.60395 9.59798 3.54858 9.63841C3.5291 9.59293 3.50654 9.54845 3.48091 9.506C3.51679 9.46557 3.58754 9.43424 3.65624 9.41908C3.67948 9.45547 3.7017 9.49219 3.72289 9.52925V9.52925ZM3.82952 9.7789C3.76903 9.83449 3.70238 9.88301 3.63266 9.92546C3.6142 9.8264 3.58754 9.73039 3.54858 9.63841C3.60395 9.59798 3.66137 9.56159 3.72289 9.52925C3.76595 9.6091 3.80287 9.69299 3.82952 9.7789V9.7789ZM3.87669 10.0225C3.81107 10.0872 3.73929 10.1458 3.66342 10.1973C3.65829 10.1074 3.64906 10.0154 3.63266 9.92546C3.70238 9.88301 3.76903 9.83449 3.82952 9.7789C3.83978 9.81192 3.84866 9.84561 3.85618 9.87997C3.86541 9.92647 3.87259 9.97498 3.87669 10.0225V10.0225ZM3.76082 11.3577C3.73075 11.3698 3.70136 11.3843 3.67265 11.4011C3.63471 11.4234 3.59779 11.4486 3.56396 11.4759C3.56533 11.4685 3.56635 11.4608 3.56703 11.4527C3.6183 11.1252 3.66239 10.7957 3.66752 10.4642C3.66854 10.3783 3.66752 10.2883 3.66342 10.1973C3.73929 10.1458 3.81107 10.0872 3.87669 10.0225C3.89514 10.2014 3.88181 10.3833 3.86336 10.5612C3.83567 10.827 3.79774 11.0928 3.76082 11.3577V11.3577ZM3.6993 11.8388C3.63061 11.8842 3.56601 11.9358 3.50244 11.9873C3.49629 11.9921 3.49013 11.9968 3.48398 12.0015C3.50859 11.8266 3.53627 11.6518 3.56396 11.4759C3.59779 11.4486 3.63471 11.4234 3.67265 11.4011C3.70136 11.3843 3.73075 11.3698 3.76082 11.3577C3.73827 11.5174 3.71673 11.6781 3.6993 11.8388ZM3.65316 12.8687C3.57831 12.9374 3.50757 13.0112 3.44194 13.088C3.42656 12.9566 3.42144 12.8232 3.42451 12.6918C3.42861 12.4604 3.45322 12.2309 3.48398 12.0015C3.49013 11.9968 3.49629 11.9921 3.50244 11.9873C3.56601 11.9358 3.63061 11.8842 3.6993 11.8388C3.68597 11.957 3.6747 12.0753 3.66649 12.1935C3.65009 12.4179 3.63881 12.6443 3.65316 12.8687V12.8687ZM3.67675 13.0961C3.66307 13.1163 3.64735 13.1365 3.62958 13.1568C3.58994 13.2019 3.55029 13.247 3.51064 13.2922C3.50244 13.3023 3.49321 13.3124 3.48296 13.3225C3.46553 13.2447 3.45117 13.1669 3.44194 13.088C3.50757 13.0112 3.57831 12.9374 3.65316 12.8687C3.65829 12.9445 3.66547 13.0203 3.67675 13.0961V13.0961ZM3.54858 9.63841C3.52807 9.65391 3.50791 9.67008 3.48808 9.68692C3.48262 9.66873 3.47681 9.65054 3.47065 9.63234C3.46553 9.61718 3.46142 9.60202 3.45835 9.58686C3.4563 9.57271 3.45527 9.55856 3.45937 9.54441C3.46245 9.53127 3.47065 9.51813 3.48091 9.506C3.50654 9.54845 3.5291 9.59293 3.54858 9.63841V9.63841ZM3.63266 9.92546C3.606 9.94163 3.57865 9.95679 3.55063 9.97094C3.5373 9.87593 3.51679 9.78092 3.48808 9.68692C3.50791 9.67008 3.52807 9.65391 3.54858 9.63841C3.58754 9.73039 3.6142 9.8264 3.63266 9.92546V9.92546ZM3.66342 10.1973C3.63402 10.2176 3.60395 10.2361 3.57319 10.2529C3.57011 10.1579 3.56396 10.0639 3.55063 9.97094C3.57865 9.95679 3.606 9.94163 3.63266 9.92546C3.64906 10.0154 3.65829 10.1074 3.66342 10.1973ZM3.56396 11.4759C3.52192 11.5103 3.48296 11.5477 3.44707 11.5871C3.45596 11.5271 3.46518 11.4672 3.47475 11.4072C3.525 11.0807 3.57011 10.7512 3.57421 10.4197C3.5749 10.3638 3.57455 10.3082 3.57319 10.2529C3.60395 10.2361 3.63402 10.2176 3.66342 10.1973C3.66752 10.2883 3.66854 10.3783 3.66752 10.4642C3.66239 10.7957 3.6183 11.1252 3.56703 11.4527C3.56635 11.4608 3.56533 11.4685 3.56396 11.4759V11.4759ZM3.48398 12.0015C3.44809 12.0308 3.41221 12.0591 3.3753 12.0864C3.39478 11.9196 3.42041 11.7529 3.44707 11.5871C3.48296 11.5477 3.52192 11.5103 3.56396 11.4759C3.53627 11.6518 3.50859 11.8266 3.48398 12.0015ZM3.44194 13.088C3.41392 13.121 3.38691 13.1544 3.36094 13.1881C3.30865 12.8242 3.32916 12.4543 3.3753 12.0864C3.41221 12.0591 3.44809 12.0308 3.48398 12.0015C3.45322 12.2309 3.42861 12.4604 3.42451 12.6918C3.42144 12.8232 3.42656 12.9566 3.44194 13.088V13.088ZM3.48296 13.3225C3.45425 13.3508 3.42349 13.371 3.40195 13.3508C3.39272 13.3417 3.38452 13.3245 3.3794 13.2962C3.37256 13.2605 3.36641 13.2245 3.36094 13.1881C3.38691 13.1544 3.41392 13.121 3.44194 13.088C3.45117 13.1669 3.46553 13.2447 3.48296 13.3225Z" fill="url(#paint3_linear_811_7019)"/>
<path fill-rule="evenodd" clip-rule="evenodd" d="M2.9617 9.2431C2.98631 9.28657 3.00784 9.33003 3.02527 9.3745C3.03963 9.41088 3.05091 9.44828 3.05808 9.48568C3.06013 9.4968 3.05911 9.51196 3.04988 9.51701C3.04851 9.51836 3.0468 9.51903 3.04475 9.51903C3.03655 9.52004 3.0304 9.51297 3.02527 9.50691C3.0075 9.48669 2.99007 9.46648 2.97298 9.44626C2.94905 9.41796 2.92513 9.39 2.9012 9.36237C2.67563 9.09891 2.4504 8.83544 2.2255 8.57198C2.13117 8.46215 2.03718 8.35231 1.94353 8.24248C1.81434 8.09289 1.68617 7.94129 1.56415 7.78563C1.56415 7.78496 1.56415 7.78462 1.56415 7.78462C1.57919 7.7853 1.59423 7.78664 1.60927 7.78867C1.6038 7.78193 1.59833 7.77519 1.59286 7.76845C1.53544 7.69568 1.47187 7.62594 1.40625 7.56024C1.40625 7.55755 1.40625 7.55485 1.40625 7.55216C1.41138 7.53194 1.42163 7.52183 1.43496 7.52082C1.47085 7.51678 1.52827 7.56833 1.57236 7.6128C1.59901 7.64009 1.61952 7.66536 1.62568 7.67243C1.66532 7.7196 1.70531 7.7671 1.74564 7.81494C1.89842 7.99688 2.05324 8.17679 2.20807 8.35771C2.24088 8.3951 2.27369 8.4325 2.30855 8.4699C2.4357 8.60837 2.57207 8.7438 2.69409 8.88834C2.76278 8.96819 2.83661 9.0541 2.90018 9.14607C2.92171 9.17842 2.94324 9.21076 2.9617 9.2431V9.2431ZM1.47905 7.68759C1.51289 7.72802 1.54877 7.76542 1.56415 7.78462C1.57919 7.7853 1.59423 7.78664 1.60927 7.78867C1.6038 7.78193 1.59833 7.77519 1.59286 7.76845C1.53544 7.69568 1.47187 7.62594 1.40625 7.56024C1.40625 7.59258 1.44111 7.64211 1.47905 7.68759V7.68759Z" fill="url(#paint4_linear_811_7019)"/>
<path d="M1.30723 6.88897C1.33936 6.88628 1.37183 6.88426 1.40464 6.88291C1.46001 6.95467 1.5205 7.02441 1.58202 7.09213C1.55434 7.08809 1.52768 7.08303 1.50205 7.07191C1.47334 7.0608 1.44873 7.04462 1.42515 7.02542C1.38721 6.99409 1.35542 6.95467 1.32569 6.91525C1.31953 6.90649 1.31338 6.89773 1.30723 6.88897V6.88897ZM1.08678 6.48872C1.11276 6.48872 1.13873 6.48906 1.16471 6.48973C1.22725 6.63326 1.31031 6.76162 1.40464 6.88291C1.37183 6.88426 1.33936 6.88628 1.30723 6.88897C1.21803 6.76465 1.1442 6.63023 1.08678 6.48872ZM1.04064 6.36137C1.06593 6.36137 1.09122 6.36171 1.11652 6.36238C1.11788 6.36777 1.11959 6.37283 1.12164 6.37754C1.13395 6.41595 1.14933 6.45335 1.16471 6.48973C1.13873 6.48906 1.11276 6.48872 1.08678 6.48872C1.06969 6.44695 1.05431 6.4045 1.04064 6.36137ZM0.96579 6.04804C0.995184 6.0568 1.02458 6.06624 1.05397 6.07635C1.06422 6.1754 1.08781 6.27344 1.11652 6.36238C1.09122 6.36171 1.06593 6.36137 1.04064 6.36137C1.00783 6.26131 0.982194 6.15822 0.966814 6.05411C0.966131 6.05209 0.96579 6.05007 0.96579 6.04804ZM0.96374 5.9874C0.991766 5.99549 1.01979 6.00391 1.04782 6.01267C1.04919 6.03356 1.05123 6.05478 1.05397 6.07635C1.02458 6.06624 0.995184 6.0568 0.96579 6.04804C0.96374 6.02884 0.961689 6.00762 0.96374 5.9874ZM0.985271 5.92575C0.997575 5.9116 1.01603 5.9025 1.04064 5.90149C1.04269 5.90216 1.04508 5.9025 1.04782 5.9025C1.04577 5.93889 1.04577 5.97561 1.04782 6.01267C1.01979 6.00391 0.991766 5.99549 0.96374 5.9874C0.965791 5.96415 0.972967 5.94192 0.985271 5.92575ZM1.40464 6.88291C1.47505 6.88021 1.54545 6.88021 1.61586 6.88291C1.6743 6.95871 1.73582 7.03149 1.80145 7.10021C1.7618 7.09954 1.72181 7.09887 1.68148 7.09819C1.64867 7.09718 1.61483 7.09617 1.58202 7.09213C1.5205 7.02441 1.46001 6.95467 1.40464 6.88291ZM1.16471 6.48973C1.2399 6.49176 1.31509 6.49816 1.39028 6.50894C1.44873 6.64033 1.52665 6.76566 1.61586 6.88291C1.54545 6.88021 1.47505 6.88021 1.40464 6.88291C1.31031 6.76162 1.22725 6.63326 1.16471 6.48973ZM1.11652 6.36238C1.19171 6.36508 1.26622 6.37182 1.34004 6.3826C1.35508 6.42505 1.37183 6.46716 1.39028 6.50894C1.31509 6.49816 1.2399 6.49176 1.16471 6.48973C1.14933 6.45335 1.13395 6.41595 1.12164 6.37754C1.11959 6.37283 1.11788 6.36777 1.11652 6.36238V6.36238ZM1.05397 6.07635C1.13189 6.10195 1.20914 6.13025 1.2857 6.16125C1.29698 6.23705 1.31543 6.31084 1.34004 6.3826C1.26622 6.37182 1.19171 6.36508 1.11652 6.36238C1.08781 6.27344 1.06422 6.1754 1.05397 6.07635V6.07635ZM1.04782 6.01267C1.12506 6.03558 1.20162 6.06085 1.27749 6.08847C1.27955 6.11273 1.28228 6.13699 1.2857 6.16125C1.20914 6.13025 1.13189 6.10195 1.05397 6.07635C1.05123 6.05478 1.04919 6.03356 1.04782 6.01267V6.01267ZM1.04782 5.9025C1.11447 5.90452 1.19957 5.94091 1.27237 5.97426C1.27237 6.01267 1.27408 6.05074 1.27749 6.08847C1.20162 6.06085 1.12506 6.03558 1.04782 6.01267C1.04577 5.97561 1.04577 5.93889 1.04782 5.9025V5.9025ZM1.61586 6.88291C1.64525 6.88426 1.6743 6.88594 1.70301 6.88796C1.75941 6.96174 1.82093 7.03148 1.8845 7.09819C1.87219 7.10122 1.85887 7.10123 1.84656 7.10123C1.83152 7.10123 1.81649 7.10089 1.80145 7.10021C1.73582 7.03149 1.6743 6.95871 1.61586 6.88291ZM1.39028 6.50894C1.41899 6.51298 1.4477 6.5177 1.47641 6.52309C1.53588 6.65145 1.61381 6.77375 1.70301 6.88796C1.6743 6.88594 1.64525 6.88426 1.61586 6.88291C1.52665 6.76566 1.44873 6.64033 1.39028 6.50894ZM1.34004 6.3826C1.36807 6.38664 1.39609 6.39136 1.42412 6.39675C1.43984 6.4392 1.45727 6.48131 1.47641 6.52309C1.4477 6.5177 1.41899 6.51298 1.39028 6.50894C1.37183 6.46716 1.35508 6.42505 1.34004 6.3826V6.3826ZM1.2857 6.16125C1.31372 6.1727 1.34141 6.18449 1.36875 6.19662C1.38208 6.26434 1.40054 6.33206 1.42412 6.39675C1.39609 6.39136 1.36807 6.38664 1.34004 6.3826C1.31543 6.31084 1.29698 6.23705 1.2857 6.16125V6.16125ZM1.27749 6.08847C1.30347 6.09791 1.32979 6.10734 1.35645 6.11677C1.35918 6.14373 1.36328 6.17034 1.36875 6.19662C1.34141 6.18449 1.31372 6.1727 1.2857 6.16125C1.28228 6.13699 1.27955 6.11273 1.27749 6.08847V6.08847ZM1.27237 5.97426C1.298 5.98639 1.32261 5.99751 1.34414 6.00661C1.34551 6.00661 1.34688 6.00694 1.34824 6.00762C1.34893 6.04468 1.35166 6.08106 1.35645 6.11677C1.32979 6.10734 1.30347 6.09791 1.27749 6.08847C1.27408 6.05074 1.27237 6.01267 1.27237 5.97426V5.97426ZM1.70301 6.88796C1.74266 6.89066 1.78265 6.89436 1.82298 6.89908C1.84075 6.92132 1.85921 6.94321 1.87835 6.96478C1.89475 6.98196 1.91116 7.00015 1.91936 7.02239C1.92859 7.04462 1.92551 7.07292 1.90706 7.08809C1.90091 7.09314 1.8927 7.09718 1.8845 7.09819C1.82093 7.03148 1.75941 6.96174 1.70301 6.88796V6.88796ZM1.47641 6.52309C1.51879 6.53117 1.56117 6.54061 1.60355 6.55139C1.66097 6.67571 1.7348 6.79295 1.82298 6.89908C1.78265 6.89436 1.74266 6.89066 1.70301 6.88796C1.61381 6.77375 1.53588 6.65145 1.47641 6.52309V6.52309ZM1.42412 6.39675C1.4665 6.40483 1.50888 6.4146 1.55126 6.42606C1.56698 6.46851 1.58441 6.51029 1.60355 6.55139C1.56117 6.54061 1.51879 6.53117 1.47641 6.52309C1.45727 6.48131 1.43984 6.4392 1.42412 6.39675V6.39675ZM1.36875 6.19662C1.4125 6.21549 1.45591 6.23503 1.49897 6.25524C1.51332 6.31319 1.53075 6.37013 1.55126 6.42606C1.50888 6.4146 1.4665 6.40483 1.42412 6.39675C1.40054 6.33206 1.38208 6.26434 1.36875 6.19662V6.19662ZM1.35645 6.11677C1.39678 6.13227 1.43711 6.14844 1.47744 6.16529C1.48256 6.18652 1.48769 6.20976 1.49384 6.23604C1.49521 6.24278 1.49692 6.24918 1.49897 6.25524C1.45591 6.23503 1.4125 6.21549 1.36875 6.19662C1.36328 6.17034 1.35918 6.14373 1.35645 6.11677V6.11677ZM1.34824 6.00762C1.39746 6.02884 1.4272 6.0531 1.44565 6.08342C1.46103 6.10667 1.46923 6.13396 1.47744 6.16529C1.43711 6.14844 1.39678 6.13227 1.35645 6.11677C1.35166 6.08106 1.34893 6.04468 1.34824 6.00762V6.00762Z" fill="url(#paint5_linear_811_7019)"/>
<path d="M2.22705 10.3353C2.24346 10.3049 2.25644 10.2743 2.26601 10.2433C2.28174 10.2345 2.29506 10.2268 2.306 10.22C2.32651 10.2072 2.34599 10.1941 2.36445 10.1806C2.35077 10.2103 2.33164 10.2386 2.30703 10.2655C2.28447 10.2898 2.25781 10.313 2.22705 10.3353V10.3353ZM1.87331 10.5212C1.89245 10.4835 1.91193 10.4454 1.93175 10.407C2.04249 10.3524 2.19629 10.2807 2.26601 10.2433C2.25644 10.2743 2.24346 10.3049 2.22705 10.3353C2.21543 10.3434 2.20312 10.3514 2.19014 10.3595C2.13682 10.3929 1.97789 10.4657 1.87331 10.5212V10.5212ZM1.34423 10.7618C1.33807 10.7345 1.32372 10.7102 1.31552 10.683C1.52161 10.594 1.72771 10.502 1.93175 10.407C1.91193 10.4454 1.89245 10.4835 1.87331 10.5212C1.69797 10.6041 1.52161 10.684 1.34423 10.7618ZM0.74645 11.0013C0.712955 10.9885 0.679462 10.9757 0.645968 10.9629C0.869493 10.871 1.09302 10.779 1.31552 10.683C1.32372 10.7102 1.33807 10.7345 1.34423 10.7618C1.30424 10.78 0.946392 10.9265 0.74645 11.0013ZM0.473709 11.0883C0.447734 11.0788 0.422783 11.0684 0.398858 11.0569C0.439872 11.0438 0.482938 11.0276 0.522926 11.0114C0.560864 10.9963 0.603929 10.9791 0.645968 10.9629C0.679462 10.9757 0.712955 10.9885 0.74645 11.0013C0.67365 11.0246 0.577268 11.062 0.531127 11.0751C0.51062 11.0805 0.491482 11.0849 0.473709 11.0883ZM0.371175 11.0963C0.342465 11.0957 0.315122 11.0916 0.289147 11.0842C0.326059 11.0771 0.362971 11.068 0.398858 11.0569C0.422783 11.0684 0.447734 11.0788 0.473709 11.0883C0.437822 11.0943 0.40296 11.0974 0.371175 11.0963V11.0963ZM2.26601 10.2433C2.28139 10.1938 2.28857 10.1442 2.28754 10.0957C2.32548 10.0755 2.35624 10.0593 2.37675 10.0472C2.38017 10.0452 2.38359 10.0432 2.387 10.0411C2.387 10.0641 2.38564 10.0876 2.3829 10.1119C2.37983 10.1362 2.37367 10.1584 2.36445 10.1806C2.34599 10.1941 2.32651 10.2072 2.306 10.22C2.29506 10.2268 2.28174 10.2345 2.26601 10.2433V10.2433ZM1.93175 10.407C1.94132 10.3558 1.95123 10.3043 1.96148 10.2524C2.07017 10.1998 2.20962 10.1351 2.28754 10.0957C2.28857 10.1442 2.28139 10.1938 2.26601 10.2433C2.19629 10.2807 2.04249 10.3524 1.93175 10.407V10.407ZM1.31552 10.683C1.30219 10.6415 1.28168 10.6031 1.26528 10.5627C1.49803 10.4626 1.73078 10.3595 1.96148 10.2524C1.95123 10.3043 1.94132 10.3558 1.93175 10.407C1.72771 10.502 1.52161 10.594 1.31552 10.683V10.683ZM0.645968 10.9629C0.600169 10.9353 0.554369 10.9077 0.50857 10.88C0.76183 10.7759 1.01407 10.6708 1.26528 10.5627C1.28168 10.6031 1.30219 10.6415 1.31552 10.683C1.09302 10.779 0.869493 10.871 0.645968 10.9629ZM0.398858 11.0569C0.351693 11.0337 0.307602 11.0064 0.269664 10.9751C0.297348 10.965 0.32606 10.9538 0.353744 10.9427C0.40091 10.9235 0.456277 10.9003 0.50857 10.88C0.554369 10.9077 0.600169 10.9353 0.645968 10.9629C0.603929 10.9791 0.560864 10.9963 0.522926 11.0114C0.482938 11.0276 0.439872 11.0438 0.398858 11.0569ZM0.289147 11.0842C0.262488 11.0761 0.23788 11.064 0.215323 11.0478C0.196866 11.0344 0.179777 11.0209 0.164055 11.0074C0.199942 10.9983 0.234802 10.9872 0.269664 10.9751C0.307602 11.0064 0.351693 11.0337 0.398858 11.0569C0.362971 11.068 0.326059 11.0771 0.289147 11.0842V11.0842ZM2.28754 10.0957C2.28754 10.0189 2.26806 9.9431 2.23423 9.8764C2.27046 9.85888 2.30429 9.8427 2.33574 9.82788C2.36855 9.89257 2.38598 9.96332 2.387 10.0411C2.38359 10.0432 2.38017 10.0452 2.37675 10.0472C2.35624 10.0593 2.32548 10.0755 2.28754 10.0957V10.0957ZM1.96148 10.2524C1.9444 10.1762 1.92765 10.1001 1.91124 10.024C2.0189 9.97444 2.1399 9.91986 2.23423 9.8764C2.26806 9.9431 2.28754 10.0189 2.28754 10.0957C2.20962 10.1351 2.07017 10.1998 1.96148 10.2524V10.2524ZM1.26528 10.5627C1.23246 10.4926 1.19965 10.4222 1.16684 10.3514C1.416 10.2443 1.66414 10.1362 1.91124 10.024C1.92765 10.1001 1.9444 10.1762 1.96148 10.2524C1.73078 10.3595 1.49803 10.4626 1.26528 10.5627V10.5627ZM0.50857 10.88C0.472683 10.8336 0.435772 10.7881 0.399885 10.7416C0.386897 10.7247 0.373909 10.7082 0.360921 10.6921C0.630587 10.5799 0.899226 10.4667 1.16684 10.3514C1.19965 10.4222 1.23246 10.4926 1.26528 10.5627C1.01407 10.6708 0.76183 10.7759 0.50857 10.88V10.88ZM0.269664 10.9751C0.224549 10.9377 0.186612 10.8952 0.157902 10.8477C0.146282 10.8288 0.136028 10.8093 0.127142 10.7891C0.196865 10.7598 0.282995 10.7244 0.360921 10.6921C0.373909 10.7082 0.386897 10.7247 0.399885 10.7416C0.435772 10.7881 0.472683 10.8336 0.50857 10.88C0.456277 10.9003 0.40091 10.9235 0.353744 10.9427C0.32606 10.9538 0.297348 10.965 0.269664 10.9751V10.9751ZM0.164055 11.0074C0.106636 10.9538 0.0635699 10.8932 0.0369109 10.8255C0.0649371 10.814 0.0950144 10.8019 0.127142 10.7891C0.136028 10.8093 0.146282 10.8288 0.157902 10.8477C0.186612 10.8952 0.224549 10.9377 0.269664 10.9751C0.234802 10.9872 0.199942 10.9983 0.164055 11.0074ZM2.23423 9.8764C2.20552 9.8198 2.16656 9.76825 2.11939 9.7258C2.16143 9.70861 2.19937 9.69548 2.2291 9.68436C2.27422 9.72816 2.30976 9.776 2.33574 9.82788C2.30429 9.8427 2.27046 9.85888 2.23423 9.8764ZM1.91124 10.024C1.86886 9.96871 1.82648 9.91379 1.7841 9.85921C1.89586 9.81474 2.03018 9.75915 2.11939 9.7258C2.16656 9.76825 2.20552 9.8198 2.23423 9.8764C2.1399 9.91986 2.0189 9.97444 1.91124 10.024V10.024ZM1.16684 10.3514C1.13711 10.2918 1.10327 10.218 1.07354 10.1574C1.30937 10.0563 1.54622 9.95624 1.7841 9.85921C1.82648 9.91379 1.86886 9.96871 1.91124 10.024C1.66414 10.1362 1.416 10.2443 1.16684 10.3514V10.3514ZM0.360921 10.6921C0.345883 10.6253 0.330843 10.559 0.315804 10.4929C0.56804 10.3787 0.820276 10.2675 1.07354 10.1574C1.10327 10.218 1.13711 10.2918 1.16684 10.3514C0.899226 10.4667 0.630587 10.5799 0.360921 10.6921ZM0.127142 10.7891C0.100483 10.7295 0.0851022 10.6648 0.0830515 10.5991C0.13842 10.5738 0.238904 10.5283 0.315804 10.4929C0.330843 10.559 0.345883 10.6253 0.360921 10.6921C0.282995 10.7244 0.196865 10.7598 0.127142 10.7891V10.7891ZM0.0369109 10.8255C0.0143533 10.7689 0.00205069 10.7072 0 10.6405C0.0116206 10.6344 0.0232402 10.6284 0.0348608 10.6223C0.0478485 10.6156 0.0639117 10.6078 0.0830515 10.5991C0.0851022 10.6648 0.100483 10.7295 0.127142 10.7891C0.0950144 10.8019 0.0649371 10.814 0.0369109 10.8255ZM2.11939 9.7258C2.09273 9.70154 2.063 9.68031 2.03223 9.66111C2.0107 9.64898 1.98712 9.63786 1.96148 9.62978C2.00352 9.61462 2.03839 9.60249 2.06402 9.5944C2.12246 9.60653 2.17271 9.6318 2.21167 9.66717C2.21782 9.67324 2.22363 9.67897 2.2291 9.68436C2.19937 9.69548 2.16143 9.70861 2.11939 9.7258ZM1.7841 9.85921C1.75539 9.84304 1.72668 9.82687 1.69797 9.8107C1.67131 9.79554 1.64465 9.78038 1.61697 9.76522C1.73181 9.72074 1.87638 9.66212 1.96148 9.62978C1.98712 9.63786 2.0107 9.64898 2.03223 9.66111C2.063 9.68031 2.09273 9.70154 2.11939 9.7258C2.03018 9.75915 1.89586 9.81474 1.7841 9.85921ZM1.07354 10.1574C1.04995 10.1129 1.03355 10.0644 1.00074 10.024C1.20512 9.93569 1.41053 9.84944 1.61697 9.76522C1.64465 9.78038 1.67131 9.79554 1.69797 9.8107C1.72668 9.82687 1.75539 9.84304 1.7841 9.85921C1.54622 9.95624 1.30937 10.0563 1.07354 10.1574ZM0.315804 10.4929C0.325374 10.4336 0.334945 10.3743 0.344515 10.3151C0.561888 10.217 0.781312 10.119 1.00074 10.024C1.03355 10.0644 1.04995 10.1129 1.07354 10.1574C0.820276 10.2675 0.56804 10.3787 0.315804 10.4929V10.4929ZM0.0830515 10.5991C0.0810008 10.5425 0.0892036 10.4838 0.108685 10.4262C0.111419 10.4242 0.114497 10.4222 0.117915 10.4202C0.160979 10.3989 0.268639 10.3504 0.344515 10.3151C0.334945 10.3743 0.325374 10.4336 0.315804 10.4929C0.238904 10.5283 0.13842 10.5738 0.0830515 10.5991ZM0 10.6405C0 10.6344 0 10.6284 0 10.6223C0 10.5687 0.0153787 10.5142 0.0471644 10.4616C0.0663042 10.4488 0.0868111 10.437 0.108685 10.4262C0.0892036 10.4838 0.0810008 10.5425 0.0830515 10.5991C0.0639117 10.6078 0.0478485 10.6156 0.0348608 10.6223C0.0232402 10.6284 0.0116206 10.6344 0 10.6405V10.6405ZM1.96148 9.62978C1.9256 9.61866 1.88664 9.61158 1.84562 9.61057C1.88561 9.59845 1.9256 9.59036 1.96559 9.58733C1.98131 9.58665 1.99703 9.58665 2.01275 9.58733C2.03052 9.58868 2.04761 9.59103 2.06402 9.5944C2.03839 9.60249 2.00352 9.61462 1.96148 9.62978V9.62978ZM1.61697 9.76522C1.56844 9.76117 1.51956 9.75713 1.47034 9.75309C1.55545 9.72074 1.6385 9.68739 1.7236 9.65404C1.76462 9.63887 1.80461 9.6227 1.84562 9.61057C1.88664 9.61158 1.9256 9.61866 1.96148 9.62978C1.87638 9.66212 1.73181 9.72074 1.61697 9.76522V9.76522ZM1.00074 10.024C0.98433 10.0037 0.957672 9.9896 0.937165 9.97242C1.11455 9.89964 1.29296 9.82586 1.47034 9.75309C1.51956 9.75713 1.56844 9.76117 1.61697 9.76522C1.41053 9.84944 1.20512 9.93569 1.00074 10.024V10.024ZM0.344515 10.3151C0.357502 10.2868 0.370148 10.2581 0.382452 10.2291C0.564963 10.1422 0.750552 10.0492 0.937165 9.97242C0.957672 9.9896 0.98433 10.0037 1.00074 10.024C0.781312 10.119 0.561888 10.217 0.344515 10.3151V10.3151ZM0.108685 10.4262C0.114837 10.4067 0.122016 10.3878 0.130218 10.3696C0.185587 10.3241 0.254286 10.2948 0.322984 10.2605C0.343491 10.2504 0.363312 10.2399 0.382452 10.2291C0.370148 10.2581 0.357502 10.2868 0.344515 10.3151C0.268639 10.3504 0.160979 10.3989 0.117915 10.4202C0.114497 10.4222 0.111419 10.4242 0.108685 10.4262V10.4262ZM0.0471644 10.4616C0.0553672 10.4488 0.0645948 10.436 0.0748482 10.4232C0.0912538 10.403 0.109711 10.3858 0.130218 10.3696C0.122016 10.3878 0.114837 10.4067 0.108685 10.4262C0.0868111 10.437 0.0663042 10.4488 0.0471644 10.4616Z" fill="#FFBD00"/>
<path d="M1.61387 9.76553C1.66616 9.75441 1.71948 9.73622 1.7687 9.73117C1.69692 9.75643 1.63335 9.78574 1.56568 9.81202C1.54107 9.81202 1.51646 9.81169 1.49185 9.81101C1.53287 9.79619 1.57354 9.78103 1.61387 9.76553ZM1.49185 9.81101C1.51646 9.81169 1.54107 9.81202 1.56568 9.81202C1.55747 9.81607 1.54927 9.81977 1.54107 9.82314C1.42828 9.87166 1.29191 9.93028 1.21399 9.96363C1.08479 10.0202 1.08172 10.0212 1.08274 10.0202C1.08274 10.0202 1.08274 10.0212 1.04173 10.0384C1.03455 10.0303 1.0325 10.0212 1.02532 10.0142C1.17297 9.95049 1.336 9.87368 1.49185 9.81101V9.81101ZM1.02532 10.0142C1.0325 10.0212 1.03455 10.0303 1.04173 10.0384C1.02019 10.0475 0.989435 10.0607 0.942269 10.0809C0.859216 10.1173 0.71054 10.1809 0.575195 10.2396C0.568359 10.2429 0.561181 10.246 0.553661 10.2487C0.563231 10.2338 0.572459 10.219 0.581345 10.2042C0.726944 10.1365 0.877671 10.0778 1.02532 10.0142V10.0142ZM0.581345 10.2042C0.572459 10.219 0.563231 10.2338 0.553661 10.2487C0.484963 10.281 0.418316 10.3073 0.346542 10.3447C0.383455 10.3123 0.429594 10.283 0.478811 10.2557C0.512647 10.2375 0.547509 10.2214 0.581345 10.2042V10.2042ZM1.7687 9.73117C1.79741 9.72813 1.82509 9.72813 1.85072 9.73218C1.88559 9.73622 1.93993 9.75239 1.95941 9.77968C1.90814 9.80293 1.85688 9.82415 1.80561 9.8474C1.79262 9.85279 1.77998 9.85818 1.76767 9.86357C1.7 9.84673 1.63267 9.82954 1.56568 9.81202C1.63335 9.78574 1.69692 9.75643 1.7687 9.73117V9.73117ZM1.08274 10.0202C1.08172 10.0212 1.08479 10.0202 1.21399 9.96363C1.29191 9.93028 1.42828 9.87166 1.54107 9.82314C1.54927 9.81977 1.55747 9.81607 1.56568 9.81202C1.63267 9.82954 1.7 9.84673 1.76767 9.86357C1.53594 9.9633 1.30387 10.0634 1.07146 10.1638C1.05095 10.1264 1.06839 10.0718 1.04173 10.0384C1.08274 10.0212 1.08274 10.0202 1.08274 10.0202ZM0.575195 10.2396C0.71054 10.1809 0.859216 10.1173 0.942269 10.0809C0.989435 10.0607 1.02019 10.0475 1.04173 10.0384C1.06839 10.0718 1.05095 10.1264 1.07146 10.1638C0.88143 10.246 0.691401 10.3278 0.50137 10.4094C0.518459 10.3561 0.535889 10.3026 0.553661 10.2487C0.561181 10.246 0.568359 10.2429 0.575195 10.2396V10.2396ZM0.553661 10.2487C0.535889 10.3026 0.518459 10.3561 0.50137 10.4094C0.469926 10.4228 0.43848 10.4363 0.407037 10.4498C0.355769 10.472 0.304503 10.4953 0.252211 10.5155C0.245033 10.4831 0.270667 10.4336 0.290148 10.4043C0.305528 10.3841 0.323985 10.3639 0.346542 10.3447C0.418316 10.3073 0.484963 10.281 0.553661 10.2487ZM1.80561 9.8474C1.85688 9.82415 1.90814 9.80293 1.95941 9.77968C1.96283 9.78372 1.96488 9.7881 1.96556 9.79282C1.96864 9.80495 1.95634 9.81809 1.9389 9.82921C1.91225 9.8474 1.87226 9.86256 1.8538 9.87166C1.8415 9.87772 1.82919 9.88378 1.81689 9.88985C1.80048 9.88109 1.78408 9.87233 1.76767 9.86357C1.77998 9.85818 1.79262 9.85279 1.80561 9.8474V9.8474ZM1.76767 9.86357C1.78408 9.87233 1.80048 9.88109 1.81689 9.88985C1.57901 9.998 1.336 10.096 1.09709 10.2001C1.08889 10.188 1.07864 10.1759 1.07146 10.1638C1.30387 10.0634 1.53594 9.9633 1.76767 9.86357V9.86357ZM1.07146 10.1638C1.07864 10.1759 1.08889 10.188 1.09709 10.2001C0.897152 10.2861 0.698236 10.373 0.498294 10.4589C0.498977 10.4427 0.500003 10.4262 0.50137 10.4094C0.691401 10.3278 0.88143 10.246 1.07146 10.1638V10.1638ZM0.407037 10.4498C0.43848 10.4363 0.469926 10.4228 0.50137 10.4094C0.500003 10.4262 0.498977 10.4427 0.498294 10.4589C0.463432 10.473 0.42857 10.4882 0.392683 10.5024C0.374226 10.5094 0.337315 10.5266 0.306555 10.5347C0.283997 10.5397 0.265539 10.5408 0.258361 10.5296C0.255627 10.5256 0.253578 10.5209 0.252211 10.5155C0.304503 10.4953 0.355769 10.472 0.407037 10.4498V10.4498Z" fill="url(#paint6_linear_811_7019)"/>
<path d="M13.6922 10.2655C13.6676 10.2386 13.6488 10.2103 13.6358 10.1806C13.6536 10.1941 13.6728 10.2072 13.6933 10.22C13.7042 10.2268 13.7179 10.2345 13.7343 10.2433C13.7438 10.2743 13.7568 10.3049 13.7732 10.3353C13.7425 10.313 13.7148 10.2898 13.6922 10.2655V10.2655ZM13.8101 10.3595C13.7965 10.3514 13.7842 10.3434 13.7732 10.3353C13.7568 10.3049 13.7438 10.2743 13.7343 10.2433C13.804 10.2807 13.9568 10.3524 14.0685 10.407C14.0877 10.4454 14.1072 10.4835 14.127 10.5212C14.0214 10.4657 13.8635 10.3929 13.8101 10.3595V10.3595ZM14.127 10.5212C14.1072 10.4835 14.0877 10.4454 14.0685 10.407C14.2726 10.502 14.4776 10.594 14.6848 10.683C14.6766 10.7102 14.6622 10.7345 14.655 10.7618C14.4787 10.684 14.3023 10.6041 14.127 10.5212ZM14.655 10.7618C14.6622 10.7345 14.6766 10.7102 14.6848 10.683C14.9073 10.779 15.1308 10.871 15.3543 10.9629C15.3208 10.9757 15.2873 10.9885 15.2538 11.0013C15.0539 10.9265 14.695 10.78 14.655 10.7618ZM15.4692 11.0751C15.423 11.062 15.3266 11.0246 15.2538 11.0013C15.2873 10.9885 15.3208 10.9757 15.3543 10.9629C15.3964 10.9791 15.4384 10.9963 15.4763 11.0114C15.5173 11.0276 15.5594 11.0438 15.6004 11.0569C15.5772 11.0684 15.5526 11.0788 15.5266 11.0883C15.5081 11.0849 15.489 11.0805 15.4692 11.0751V11.0751ZM15.5266 11.0883C15.5526 11.0788 15.5772 11.0684 15.6004 11.0569C15.6373 11.068 15.6742 11.0771 15.7111 11.0842C15.6852 11.0916 15.6578 11.0957 15.6291 11.0963C15.5963 11.0974 15.5625 11.0943 15.5266 11.0883V11.0883ZM13.6933 10.22C13.6728 10.2072 13.6536 10.1941 13.6358 10.1806C13.6266 10.1584 13.6194 10.1362 13.6174 10.1119C13.6146 10.0876 13.6133 10.0641 13.6133 10.0411C13.6167 10.0432 13.6198 10.0452 13.6225 10.0472C13.644 10.0593 13.6738 10.0755 13.7117 10.0957C13.7117 10.1442 13.7189 10.1938 13.7343 10.2433C13.7179 10.2345 13.7042 10.2268 13.6933 10.22V10.22ZM13.7343 10.2433C13.7189 10.1938 13.7117 10.1442 13.7117 10.0957C13.7907 10.1351 13.9301 10.1998 14.0388 10.2524C14.0484 10.3043 14.0583 10.3558 14.0685 10.407C13.9568 10.3524 13.804 10.2807 13.7343 10.2433V10.2433ZM14.0685 10.407C14.0583 10.3558 14.0484 10.3043 14.0388 10.2524C14.2695 10.3595 14.5012 10.4626 14.735 10.5627C14.7186 10.6031 14.6981 10.6415 14.6848 10.683C14.4776 10.594 14.2726 10.502 14.0685 10.407V10.407ZM14.6848 10.683C14.6981 10.6415 14.7186 10.6031 14.735 10.5627C14.9862 10.6708 15.2385 10.7759 15.4907 10.88C15.4456 10.9077 15.4001 10.9353 15.3543 10.9629C15.1308 10.871 14.9073 10.779 14.6848 10.683V10.683ZM15.4763 11.0114C15.4384 10.9963 15.3964 10.9791 15.3543 10.9629C15.4001 10.9353 15.4456 10.9077 15.4907 10.88C15.543 10.9003 15.5984 10.9235 15.6455 10.9427C15.6742 10.9538 15.7029 10.965 15.7306 10.9751C15.6917 11.0064 15.6486 11.0337 15.6004 11.0569C15.5594 11.0438 15.5173 11.0276 15.4763 11.0114V11.0114ZM15.6004 11.0569C15.6486 11.0337 15.6917 11.0064 15.7306 10.9751C15.7655 10.9872 15.8003 10.9983 15.8352 11.0074C15.8195 11.0209 15.8027 11.0344 15.785 11.0478C15.7624 11.064 15.7378 11.0761 15.7111 11.0842C15.6742 11.0771 15.6373 11.068 15.6004 11.0569V11.0569ZM13.6225 10.0472C13.6198 10.0452 13.6167 10.0432 13.6133 10.0411C13.6143 9.96332 13.6307 9.89257 13.6635 9.82788C13.6956 9.8427 13.7298 9.85888 13.7661 9.8764C13.7322 9.9431 13.7127 10.0189 13.7117 10.0957C13.6738 10.0755 13.644 10.0593 13.6225 10.0472V10.0472ZM13.7117 10.0957C13.7127 10.0189 13.7322 9.9431 13.7661 9.8764C13.8604 9.91986 13.9814 9.97444 14.089 10.024C14.072 10.1001 14.0552 10.1762 14.0388 10.2524C13.9301 10.1998 13.7907 10.1351 13.7117 10.0957V10.0957ZM14.0388 10.2524C14.0552 10.1762 14.072 10.1001 14.089 10.024C14.3361 10.1362 14.5843 10.2443 14.8334 10.3514C14.8006 10.4222 14.7678 10.4926 14.735 10.5627C14.5012 10.4626 14.2695 10.3595 14.0388 10.2524V10.2524ZM14.735 10.5627C14.7678 10.4926 14.8006 10.4222 14.8334 10.3514C15.1011 10.4667 15.3697 10.5799 15.6383 10.6921C15.6254 10.7082 15.6127 10.7247 15.6004 10.7416C15.5635 10.7881 15.5276 10.8336 15.4907 10.88C15.2385 10.7759 14.9862 10.6708 14.735 10.5627V10.5627ZM15.6455 10.9427C15.5984 10.9235 15.543 10.9003 15.4907 10.88C15.5276 10.8336 15.5635 10.7881 15.6004 10.7416C15.6127 10.7247 15.6254 10.7082 15.6383 10.6921C15.7163 10.7244 15.8034 10.7598 15.8731 10.7891C15.8643 10.8093 15.854 10.8288 15.8424 10.8477C15.8137 10.8952 15.7757 10.9377 15.7306 10.9751C15.7029 10.965 15.6742 10.9538 15.6455 10.9427V10.9427ZM15.7306 10.9751C15.7757 10.9377 15.8137 10.8952 15.8424 10.8477C15.854 10.8288 15.8643 10.8093 15.8731 10.7891C15.9053 10.8019 15.9353 10.814 15.9634 10.8255C15.9357 10.8932 15.8936 10.9538 15.8352 11.0074C15.8003 10.9983 15.7655 10.9872 15.7306 10.9751V10.9751ZM13.6635 9.82788C13.6895 9.776 13.725 9.72816 13.7702 9.68436C13.8009 9.69548 13.8378 9.70861 13.8809 9.7258C13.8337 9.76825 13.7948 9.8198 13.7661 9.8764C13.7298 9.85888 13.6956 9.8427 13.6635 9.82788V9.82788ZM13.7661 9.8764C13.7948 9.8198 13.8337 9.76825 13.8809 9.7258C13.9691 9.75915 14.1044 9.81474 14.2152 9.85921C14.1735 9.91379 14.1314 9.96871 14.089 10.024C13.9814 9.97444 13.8604 9.91986 13.7661 9.8764V9.8764ZM14.089 10.024C14.1314 9.96871 14.1735 9.91379 14.2152 9.85921C14.453 9.95624 14.6899 10.0556 14.9257 10.1574C14.897 10.218 14.8622 10.2918 14.8334 10.3514C14.5843 10.2443 14.3361 10.1362 14.089 10.024V10.024ZM14.8334 10.3514C14.8622 10.2918 14.897 10.218 14.9257 10.1574C15.18 10.2675 15.4322 10.3787 15.6845 10.4929C15.6688 10.559 15.6534 10.6253 15.6383 10.6921C15.3697 10.5799 15.1011 10.4667 14.8334 10.3514ZM15.6383 10.6921C15.6534 10.6253 15.6688 10.559 15.6845 10.4929C15.7614 10.5283 15.8619 10.5738 15.9162 10.5991C15.9142 10.6648 15.8998 10.7295 15.8731 10.7891C15.8034 10.7598 15.7163 10.7244 15.6383 10.6921ZM15.8731 10.7891C15.8998 10.7295 15.9142 10.6648 15.9162 10.5991C15.9353 10.6078 15.9518 10.6156 15.9654 10.6223C15.977 10.6284 15.9887 10.6344 16.0003 10.6405C15.9982 10.7072 15.9859 10.7689 15.9634 10.8255C15.9353 10.814 15.9053 10.8019 15.8731 10.7891ZM13.7702 9.68436C13.7763 9.67897 13.7821 9.67324 13.7876 9.66717C13.8266 9.6318 13.8768 9.60653 13.9363 9.5944C13.9619 9.60249 13.9957 9.61462 14.0388 9.62978C14.0132 9.63786 13.9896 9.64898 13.968 9.66111C13.9363 9.68031 13.9076 9.70154 13.8809 9.7258C13.8378 9.70861 13.8009 9.69548 13.7702 9.68436V9.68436ZM13.8809 9.7258C13.9076 9.70154 13.9363 9.68031 13.968 9.66111C13.9896 9.64898 14.0132 9.63786 14.0388 9.62978C14.1239 9.66212 14.2685 9.72074 14.3823 9.76522C14.3556 9.78038 14.3279 9.79554 14.3013 9.8107C14.2736 9.82687 14.2449 9.84304 14.2152 9.85921C14.1044 9.81474 13.9691 9.75915 13.8809 9.7258ZM14.2152 9.85921C14.2449 9.84304 14.2736 9.82687 14.3013 9.8107C14.3279 9.79554 14.3556 9.78038 14.3823 9.76522C14.5887 9.84944 14.7945 9.93569 14.9995 10.024C14.9667 10.0644 14.9503 10.1129 14.9257 10.1574C14.6899 10.0556 14.453 9.95624 14.2152 9.85921ZM14.9257 10.1574C14.9503 10.1129 14.9667 10.0644 14.9995 10.024C15.219 10.119 15.4374 10.217 15.6558 10.3151C15.6653 10.3743 15.6749 10.4336 15.6845 10.4929C15.4322 10.3787 15.18 10.2675 14.9257 10.1574V10.1574ZM15.6845 10.4929C15.6749 10.4336 15.6653 10.3743 15.6558 10.3151C15.7306 10.3504 15.8383 10.3989 15.8813 10.4202C15.8848 10.4222 15.8882 10.4242 15.8916 10.4262C15.9101 10.4838 15.9183 10.5425 15.9162 10.5991C15.8619 10.5738 15.7614 10.5283 15.6845 10.4929ZM15.9654 10.6223C15.9518 10.6156 15.9353 10.6078 15.9162 10.5991C15.9183 10.5425 15.9101 10.4838 15.8916 10.4262C15.9135 10.437 15.934 10.4488 15.9531 10.4616C15.9849 10.5142 16.0003 10.5687 16.0003 10.6223C16.0003 10.6284 16.0003 10.6344 16.0003 10.6405C15.9887 10.6344 15.977 10.6284 15.9654 10.6223V10.6223ZM13.9363 9.5944C13.9527 9.59103 13.9698 9.58868 13.9875 9.58733C14.0033 9.58665 14.0186 9.58665 14.0337 9.58733C14.0747 9.59036 14.1147 9.59845 14.1547 9.61057C14.1137 9.61158 14.0747 9.61866 14.0388 9.62978C13.9957 9.61462 13.9619 9.60249 13.9363 9.5944ZM14.0388 9.62978C14.0747 9.61866 14.1137 9.61158 14.1547 9.61057C14.1947 9.6227 14.2357 9.63887 14.2767 9.65404C14.3608 9.68739 14.4448 9.72074 14.5289 9.75309C14.4804 9.75713 14.4315 9.76117 14.3823 9.76522C14.2685 9.72074 14.1239 9.66212 14.0388 9.62978V9.62978ZM14.3823 9.76522C14.4315 9.76117 14.4804 9.75713 14.5289 9.75309C14.7073 9.82586 14.8847 9.89964 15.0631 9.97242C15.0426 9.9896 15.0149 10.0037 14.9995 10.024C14.7945 9.93569 14.5887 9.84944 14.3823 9.76522V9.76522ZM14.9995 10.024C15.0149 10.0037 15.0426 9.9896 15.0631 9.97242C15.2497 10.0492 15.4353 10.1422 15.6168 10.2291C15.6298 10.2581 15.6428 10.2868 15.6558 10.3151C15.4374 10.217 15.219 10.119 14.9995 10.024V10.024ZM15.8813 10.4202C15.8383 10.3989 15.7306 10.3504 15.6558 10.3151C15.6428 10.2868 15.6298 10.2581 15.6168 10.2291C15.6366 10.2399 15.6568 10.2504 15.6773 10.2605C15.745 10.2948 15.8147 10.3241 15.8701 10.3696C15.8783 10.3878 15.8854 10.4067 15.8916 10.4262C15.8882 10.4242 15.8848 10.4222 15.8813 10.4202V10.4202ZM15.8916 10.4262C15.8854 10.4067 15.8783 10.3878 15.8701 10.3696C15.8895 10.3858 15.908 10.403 15.9244 10.4232C15.9353 10.436 15.9449 10.4488 15.9531 10.4616C15.934 10.4488 15.9135 10.437 15.8916 10.4262V10.4262Z" fill="#FFBD00"/>
<path d="M14.5054 9.81101C14.4815 9.81169 14.4572 9.81202 14.4326 9.81202C14.365 9.78574 14.3014 9.75643 14.2296 9.73117C14.2778 9.73622 14.3321 9.75441 14.3834 9.76553C14.4244 9.78103 14.4651 9.79619 14.5054 9.81101ZM14.973 10.0142C14.9658 10.0212 14.9638 10.0303 14.9566 10.0384C14.9156 10.0212 14.9145 10.0202 14.9156 10.0202C14.9156 10.0212 14.9135 10.0202 14.7843 9.96363C14.7064 9.93028 14.569 9.87166 14.4572 9.82314C14.449 9.81977 14.4408 9.81607 14.4326 9.81202C14.4572 9.81202 14.4815 9.81169 14.5054 9.81101C14.6613 9.87368 14.8253 9.95049 14.973 10.0142V10.0142ZM15.417 10.2042C15.4259 10.219 15.4347 10.2338 15.4436 10.2487C15.4368 10.246 15.43 10.2429 15.4231 10.2396C15.2878 10.1809 15.1391 10.1173 15.055 10.0809C15.0089 10.0607 14.9771 10.0475 14.9566 10.0384C14.9638 10.0303 14.9658 10.0212 14.973 10.0142C15.1206 10.0778 15.2714 10.1365 15.417 10.2042V10.2042ZM15.5195 10.2557C15.5677 10.283 15.6138 10.3123 15.6518 10.3447C15.58 10.3073 15.5133 10.281 15.4436 10.2487C15.4347 10.2338 15.4259 10.219 15.417 10.2042C15.4508 10.2214 15.4857 10.2375 15.5195 10.2557V10.2557ZM14.4326 9.81202C14.365 9.82954 14.2973 9.84673 14.2296 9.86357C14.2173 9.85818 14.205 9.85279 14.1927 9.8474C14.1414 9.82415 14.0891 9.80293 14.0389 9.77968C14.0584 9.75239 14.1117 9.73622 14.1476 9.73218C14.1722 9.72813 14.1999 9.72813 14.2296 9.73117C14.3014 9.75643 14.365 9.78574 14.4326 9.81202ZM14.9566 10.0384C14.9289 10.0718 14.9463 10.1264 14.9258 10.1638C14.6941 10.0634 14.462 9.9633 14.2296 9.86357C14.2973 9.84673 14.365 9.82954 14.4326 9.81202C14.4408 9.81607 14.449 9.81977 14.4572 9.82314C14.569 9.87166 14.7064 9.93028 14.7843 9.96363C14.9135 10.0202 14.9156 10.0212 14.9156 10.0202C14.9145 10.0202 14.9156 10.0212 14.9566 10.0384V10.0384ZM15.4436 10.2487C15.4614 10.3026 15.4792 10.3561 15.4969 10.4094C15.3069 10.3278 15.1165 10.246 14.9258 10.1638C14.9463 10.1264 14.9289 10.0718 14.9566 10.0384C14.9771 10.0475 15.0089 10.0607 15.055 10.0809C15.1391 10.1173 15.2878 10.1809 15.4231 10.2396C15.43 10.2429 15.4368 10.246 15.4436 10.2487V10.2487ZM15.6518 10.3447C15.6733 10.3639 15.6928 10.3841 15.7071 10.4043C15.7276 10.4336 15.7523 10.4831 15.7461 10.5155C15.6938 10.4953 15.6425 10.472 15.5913 10.4498C15.5598 10.4363 15.5284 10.4228 15.4969 10.4094C15.4792 10.3561 15.4614 10.3026 15.4436 10.2487C15.5133 10.281 15.58 10.3073 15.6518 10.3447V10.3447ZM14.2296 9.86357C14.2132 9.87233 14.1968 9.88109 14.1804 9.88985C14.1688 9.88378 14.1568 9.87772 14.1445 9.87166C14.1261 9.86256 14.0861 9.8474 14.0594 9.82921C14.0409 9.81809 14.0286 9.80495 14.0317 9.79282C14.0331 9.7881 14.0355 9.78372 14.0389 9.77968C14.0891 9.80293 14.1414 9.82415 14.1927 9.8474C14.205 9.85279 14.2173 9.85818 14.2296 9.86357V9.86357ZM14.9258 10.1638C14.9186 10.1759 14.9094 10.188 14.9012 10.2001C14.6613 10.096 14.4183 9.998 14.1804 9.88985C14.1968 9.88109 14.2132 9.87233 14.2296 9.86357C14.462 9.9633 14.6941 10.0634 14.9258 10.1638ZM15.4969 10.4094C15.4976 10.4262 15.4983 10.4427 15.499 10.4589C15.3001 10.373 15.1001 10.2861 14.9012 10.2001C14.9094 10.188 14.9186 10.1759 14.9258 10.1638C15.1165 10.246 15.3069 10.3278 15.4969 10.4094V10.4094ZM15.7461 10.5155C15.7447 10.5209 15.7427 10.5256 15.7399 10.5296C15.7328 10.5408 15.7143 10.5397 15.6918 10.5347C15.661 10.5266 15.6241 10.5094 15.6046 10.5024C15.5697 10.4882 15.5349 10.473 15.499 10.4589C15.4983 10.4427 15.4976 10.4262 15.4969 10.4094C15.5284 10.4228 15.5598 10.4363 15.5913 10.4498C15.6425 10.472 15.6938 10.4953 15.7461 10.5155Z" fill="url(#paint7_linear_811_7019)"/>
<path d="M8.37814 16.2963C8.36378 16.3297 8.34532 16.358 8.32276 16.3822C8.32755 16.3607 8.33165 16.3381 8.33507 16.3145C8.33712 16.3017 8.33883 16.2862 8.3402 16.268C8.36549 16.2471 8.38873 16.2229 8.40992 16.1952C8.40274 16.2326 8.39146 16.266 8.37814 16.2963V16.2963ZM8.41812 16.1528C8.41607 16.1676 8.41334 16.1818 8.40992 16.1952C8.38873 16.2229 8.36549 16.2471 8.3402 16.268C8.34738 16.1902 8.35148 16.0224 8.35763 15.9001C8.38497 15.8671 8.41231 15.8341 8.43966 15.801C8.43043 15.9183 8.42735 16.0911 8.41812 16.1528V16.1528ZM8.43966 15.801C8.41231 15.8341 8.38497 15.8671 8.35763 15.9001C8.36275 15.6777 8.36481 15.4554 8.36275 15.233C8.39146 15.23 8.42017 15.233 8.44888 15.227C8.44786 15.419 8.44478 15.61 8.43966 15.801V15.801ZM8.44888 15.227C8.42017 15.233 8.39146 15.23 8.36275 15.233C8.36173 14.9945 8.35763 14.7549 8.35148 14.5164C8.37677 14.5413 8.4024 14.5663 8.42838 14.5912C8.43863 14.8014 8.44888 15.1845 8.44888 15.227ZM8.4089 14.3678C8.41607 14.4143 8.42017 14.5164 8.42838 14.5912C8.4024 14.5663 8.37677 14.5413 8.35148 14.5164C8.3484 14.4719 8.34737 14.4265 8.34635 14.387C8.34532 14.3436 8.34327 14.2981 8.33815 14.2567C8.35865 14.2728 8.37848 14.2907 8.39762 14.3102C8.40172 14.3277 8.40548 14.3469 8.4089 14.3678V14.3678ZM8.39762 14.3102C8.37848 14.2907 8.35865 14.2728 8.33815 14.2567C8.33404 14.2182 8.32789 14.1819 8.31866 14.1455C8.33644 14.1657 8.35147 14.1889 8.36378 14.2152C8.37813 14.2435 8.38941 14.2759 8.39762 14.3102ZM8.33507 16.3145C8.33165 16.3381 8.32755 16.3607 8.32276 16.3822C8.30636 16.3994 8.2879 16.4146 8.26637 16.4267C8.24518 16.4388 8.22365 16.4496 8.20178 16.459C8.20246 16.4557 8.20314 16.452 8.20383 16.4479C8.2069 16.4237 8.20998 16.3903 8.21305 16.3479C8.25817 16.3286 8.30123 16.3014 8.3402 16.268C8.33883 16.2862 8.33712 16.3017 8.33507 16.3145V16.3145ZM8.3402 16.268C8.30123 16.3014 8.25817 16.3286 8.21305 16.3479C8.21818 16.2609 8.22126 16.1093 8.22638 15.9901C8.27013 15.9597 8.31388 15.9297 8.35763 15.9001C8.35148 16.0224 8.34738 16.1902 8.3402 16.268V16.268ZM8.35763 15.9001C8.31388 15.9297 8.27013 15.9597 8.22638 15.9901C8.23151 15.7384 8.23356 15.4877 8.23151 15.2371C8.2756 15.235 8.31969 15.2381 8.36275 15.233C8.36481 15.4554 8.36275 15.6777 8.35763 15.9001ZM8.36275 15.233C8.31969 15.2381 8.2756 15.235 8.23151 15.2371C8.23048 14.9662 8.22536 14.6963 8.21818 14.4275C8.26261 14.4571 8.30704 14.4868 8.35148 14.5164C8.35763 14.7549 8.36173 14.9945 8.36275 15.233V15.233ZM8.34635 14.387C8.34737 14.4265 8.3484 14.4719 8.35148 14.5164C8.30704 14.4868 8.26261 14.4571 8.21818 14.4275C8.21715 14.3709 8.21511 14.3122 8.21408 14.2617C8.21305 14.2324 8.21203 14.2021 8.20998 14.1728C8.25407 14.194 8.29713 14.2223 8.33815 14.2567C8.34327 14.2981 8.34532 14.3436 8.34635 14.387ZM8.33815 14.2567C8.29713 14.2223 8.25407 14.194 8.20998 14.1728C8.2069 14.1364 8.2028 14.1 8.19665 14.0646C8.21647 14.0734 8.23595 14.0831 8.25509 14.0939C8.2797 14.1081 8.30021 14.1253 8.31866 14.1455C8.32789 14.1819 8.33404 14.2182 8.33815 14.2567V14.2567ZM8.20383 16.4479C8.20314 16.452 8.20246 16.4557 8.20178 16.459C8.13 16.4894 8.0572 16.5035 7.9844 16.4995C7.98508 16.4651 7.98611 16.428 7.98748 16.3883C8.06335 16.3913 8.14128 16.3782 8.21305 16.3479C8.20998 16.3903 8.2069 16.4237 8.20383 16.4479V16.4479ZM8.21305 16.3479C8.14128 16.3782 8.06335 16.3913 7.98748 16.3883C7.98953 16.2862 7.99158 16.1548 7.99363 16.0376C8.07087 16.0214 8.14846 16.0056 8.22638 15.9901C8.22126 16.1093 8.21818 16.2609 8.21305 16.3479V16.3479ZM8.22638 15.9901C8.14846 16.0056 8.07087 16.0214 7.99363 16.0376C7.99671 15.7697 7.99773 15.5019 7.99568 15.234C8.07429 15.2347 8.1529 15.2357 8.23151 15.2371C8.23356 15.4877 8.23151 15.7384 8.22638 15.9901ZM8.23151 15.2371C8.1529 15.2357 8.07429 15.2347 7.99568 15.234C7.99466 14.946 7.98953 14.6579 7.9844 14.3699C8.00491 14.3752 8.02576 14.3803 8.04695 14.385C8.10437 14.3982 8.16179 14.4133 8.21818 14.4275C8.22536 14.6963 8.23048 14.9662 8.23151 15.2371V15.2371ZM8.21408 14.2617C8.21511 14.3122 8.21715 14.3709 8.21818 14.4275C8.16179 14.4133 8.10437 14.3982 8.04695 14.385C8.02576 14.3803 8.00491 14.3752 7.9844 14.3699C7.98338 14.287 7.98132 14.194 7.97927 14.1192C8.00183 14.1192 8.02439 14.1205 8.04695 14.1232C8.10232 14.1303 8.15768 14.1465 8.20998 14.1728C8.21203 14.2021 8.21305 14.2324 8.21408 14.2617V14.2617ZM8.20998 14.1728C8.15768 14.1465 8.10232 14.1303 8.04695 14.1232C8.02439 14.1205 8.00183 14.1192 7.97927 14.1192C7.97859 14.0855 7.97791 14.0535 7.97722 14.0232C8.05105 14.0201 8.12488 14.0333 8.19665 14.0646C8.2028 14.1 8.2069 14.1364 8.20998 14.1728V14.1728ZM7.9844 16.4995C7.92561 16.4974 7.86683 16.485 7.80804 16.4621C7.80497 16.4297 7.80292 16.3913 7.80086 16.3458C7.86034 16.3711 7.92391 16.3852 7.98748 16.3883C7.98611 16.428 7.98508 16.4651 7.9844 16.4995ZM7.98748 16.3883C7.92391 16.3852 7.86034 16.3711 7.80086 16.3458C7.79676 16.2518 7.79266 16.1083 7.78959 15.9901C7.85726 16.0056 7.92527 16.0214 7.99363 16.0376C7.99158 16.1548 7.98953 16.2862 7.98748 16.3883V16.3883ZM7.99363 16.0376C7.92527 16.0214 7.85726 16.0056 7.78959 15.9901C7.78241 15.7364 7.77933 15.4827 7.77831 15.229C7.84598 15.231 7.92801 15.232 7.99568 15.234C7.99773 15.5019 7.99671 15.7697 7.99363 16.0376ZM7.99568 15.234C7.92801 15.232 7.84598 15.231 7.77831 15.229C7.77728 14.9561 7.77831 14.6832 7.78138 14.4103C7.84906 14.3968 7.91673 14.3833 7.9844 14.3699C7.98953 14.6579 7.99466 14.946 7.99568 15.234V15.234ZM7.9844 14.3699C7.91673 14.3833 7.84906 14.3968 7.78138 14.4103C7.78241 14.3254 7.78446 14.2172 7.78548 14.1576C7.84803 14.1323 7.91365 14.1202 7.97927 14.1192C7.98132 14.194 7.98338 14.287 7.9844 14.3699ZM7.97927 14.1192C7.91365 14.1202 7.84803 14.1323 7.78548 14.1576C7.78617 14.1367 7.78685 14.1189 7.78754 14.104C7.78822 14.0912 7.78924 14.0784 7.79061 14.0656C7.85316 14.0404 7.9157 14.0252 7.97722 14.0232C7.97791 14.0535 7.97859 14.0855 7.97927 14.1192V14.1192ZM7.80804 16.4621C7.80052 16.4594 7.793 16.4563 7.78548 16.453C7.73627 16.4317 7.69218 16.3974 7.65732 16.3489C7.65424 16.3236 7.65116 16.2872 7.64911 16.2427C7.66654 16.2619 7.68603 16.2791 7.70653 16.2933C7.73627 16.3145 7.76805 16.3317 7.80086 16.3458C7.80292 16.3913 7.80497 16.4297 7.80804 16.4621V16.4621ZM7.80086 16.3458C7.76805 16.3317 7.73627 16.3145 7.70653 16.2933C7.68603 16.2791 7.66654 16.2619 7.64911 16.2427C7.64296 16.1528 7.63989 15.9992 7.63476 15.8769C7.65937 15.895 7.685 15.9143 7.70961 15.9324C7.73627 15.9506 7.76293 15.9709 7.78959 15.9901C7.79266 16.1083 7.79676 16.2518 7.80086 16.3458V16.3458ZM7.78959 15.9901C7.76293 15.9709 7.73627 15.9506 7.70961 15.9324C7.685 15.9143 7.65937 15.895 7.63476 15.8769C7.62929 15.6572 7.62587 15.4372 7.62451 15.2168C7.67475 15.23 7.72704 15.2249 7.77831 15.229C7.77933 15.4827 7.78241 15.7364 7.78959 15.9901V15.9901ZM7.77831 15.229C7.72704 15.2249 7.67475 15.23 7.62451 15.2168C7.62348 14.9803 7.62553 14.7438 7.62861 14.5073C7.67987 14.475 7.7308 14.4426 7.78138 14.4103C7.77831 14.6832 7.77728 14.9561 7.77831 15.229V15.229ZM7.78138 14.4103C7.7308 14.4426 7.67987 14.475 7.62861 14.5073C7.63066 14.4254 7.63271 14.3082 7.63476 14.2607C7.63476 14.2573 7.6351 14.2536 7.63578 14.2496C7.6809 14.2092 7.73217 14.1788 7.78548 14.1576C7.78446 14.2172 7.78241 14.3254 7.78138 14.4103V14.4103ZM7.78754 14.104C7.78685 14.1189 7.78617 14.1367 7.78548 14.1576C7.73217 14.1788 7.6809 14.2092 7.63578 14.2496C7.63715 14.226 7.63989 14.2027 7.64399 14.1798C7.67885 14.1303 7.72396 14.0939 7.77318 14.0727C7.77933 14.07 7.78514 14.0676 7.79061 14.0656C7.78924 14.0784 7.78822 14.0912 7.78754 14.104V14.104ZM7.65732 16.3489C7.64706 16.3354 7.63784 16.3209 7.62963 16.3054C7.6228 16.2919 7.61664 16.2781 7.61118 16.264C7.59682 16.2266 7.58862 16.1861 7.58349 16.1457C7.60092 16.1821 7.62348 16.2144 7.64911 16.2427C7.65116 16.2872 7.65424 16.3236 7.65732 16.3489V16.3489ZM7.64911 16.2427C7.62348 16.2144 7.60092 16.1821 7.58349 16.1457C7.57837 16.1043 7.57631 16.0618 7.57529 16.0173C7.57119 15.9284 7.56811 15.8395 7.56401 15.7505C7.58793 15.793 7.61152 15.8351 7.63476 15.8769C7.63989 15.9992 7.64296 16.1528 7.64911 16.2427ZM7.63476 15.8769C7.61152 15.8351 7.58793 15.793 7.56401 15.7505C7.55888 15.5605 7.55581 15.3705 7.55068 15.1805C7.57529 15.1916 7.5999 15.2108 7.62451 15.2168C7.62587 15.4372 7.62929 15.6572 7.63476 15.8769V15.8769ZM7.62451 15.2168C7.5999 15.2108 7.57529 15.1916 7.55068 15.1805C7.54658 14.9813 7.55786 14.7762 7.56401 14.5771C7.58588 14.5535 7.60742 14.5302 7.62861 14.5073C7.62553 14.7438 7.62348 14.9803 7.62451 15.2168V15.2168ZM7.63476 14.2607C7.63271 14.3082 7.63066 14.4254 7.62861 14.5073C7.60742 14.5302 7.58588 14.5535 7.56401 14.5771C7.56606 14.5548 7.56777 14.5326 7.56914 14.5103C7.57324 14.4345 7.57221 14.3608 7.5917 14.293C7.60605 14.2775 7.62074 14.2631 7.63578 14.2496C7.6351 14.2536 7.63476 14.2573 7.63476 14.2607ZM7.63578 14.2496C7.62074 14.2631 7.60605 14.2775 7.5917 14.293C7.59887 14.2678 7.60708 14.2445 7.61938 14.2213C7.6269 14.2065 7.6351 14.1926 7.64399 14.1798C7.63989 14.2027 7.63715 14.226 7.63578 14.2496V14.2496Z" fill="#FFBD00"/>
<path d="M7.62748 15.7476C7.63773 15.7692 7.64798 15.7907 7.65824 15.8123C7.66029 15.8851 7.65926 15.9538 7.66541 16.0286C7.65003 15.9831 7.64491 15.9265 7.63568 15.876C7.63294 15.8328 7.63021 15.7901 7.62748 15.7476V15.7476ZM7.62645 15.2443C7.6367 15.2483 7.64491 15.2463 7.65516 15.2483C7.65618 15.2928 7.65619 15.2938 7.65619 15.2928C7.65619 15.2928 7.65619 15.2948 7.65619 15.4343C7.65721 15.5192 7.65721 15.6657 7.65824 15.786C7.65824 15.7948 7.65824 15.8035 7.65824 15.8123C7.64798 15.7907 7.63773 15.7692 7.62748 15.7476C7.62235 15.5818 7.62747 15.4029 7.62645 15.2443ZM7.62235 14.7672C7.6326 14.7531 7.64286 14.7389 7.65311 14.7248C7.65311 14.7322 7.65311 14.7396 7.65311 14.747C7.65413 14.8925 7.65413 15.0532 7.65516 15.1432C7.65516 15.1927 7.65516 15.2261 7.65516 15.2483C7.64491 15.2463 7.6367 15.2483 7.62645 15.2443C7.62542 15.0856 7.61825 14.9259 7.62235 14.7672V14.7672ZM7.6285 14.654C7.63363 14.5994 7.64285 14.5459 7.65721 14.4983C7.65208 14.5782 7.65413 14.6489 7.65311 14.7248C7.64286 14.7389 7.6326 14.7531 7.62235 14.7672C7.6244 14.7298 7.62543 14.6914 7.6285 14.654ZM7.65824 15.8123C7.7013 15.8669 7.74437 15.9211 7.78743 15.975C7.78743 15.9885 7.78743 16.0016 7.78743 16.0144C7.78743 16.07 7.78948 16.1256 7.78743 16.1812C7.75462 16.1741 7.71771 16.1327 7.69925 16.1024C7.68592 16.0811 7.67464 16.0559 7.66541 16.0286C7.65926 15.9538 7.66029 15.8851 7.65824 15.8123V15.8123ZM7.65516 15.2483C7.6972 15.2604 7.74129 15.222 7.78333 15.2261C7.78469 15.4754 7.78606 15.725 7.78743 15.975C7.74437 15.9211 7.7013 15.8669 7.65824 15.8123C7.65824 15.8035 7.65824 15.7948 7.65824 15.786C7.65721 15.6657 7.65721 15.5192 7.65619 15.4343C7.65619 15.2948 7.65619 15.2928 7.65619 15.2928C7.65619 15.2938 7.65618 15.2928 7.65516 15.2483V15.2483ZM7.65311 14.7248C7.69549 14.687 7.73787 14.6493 7.78025 14.6115C7.78162 14.8164 7.78264 15.0212 7.78333 15.2261C7.74129 15.222 7.6972 15.2604 7.65516 15.2483C7.65516 15.2261 7.65516 15.1927 7.65516 15.1432C7.65413 15.0532 7.65413 14.8925 7.65311 14.747C7.65311 14.7396 7.65311 14.7322 7.65311 14.7248V14.7248ZM7.65721 14.4983C7.66644 14.4711 7.67772 14.4458 7.69105 14.4236C7.7095 14.3942 7.74539 14.3518 7.7782 14.3447C7.78025 14.3993 7.78025 14.4549 7.78025 14.5105C7.78025 14.5442 7.78025 14.5779 7.78025 14.6115C7.73787 14.6493 7.69549 14.687 7.65311 14.7248C7.65413 14.6489 7.65208 14.5782 7.65721 14.4983V14.4983ZM7.78743 15.975C7.80247 15.9858 7.81751 15.9969 7.83254 16.0084C7.83186 16.0219 7.83118 16.0353 7.83049 16.0488C7.82947 16.069 7.83152 16.1105 7.82537 16.1428C7.82229 16.163 7.81511 16.1792 7.80281 16.1812C7.79803 16.1826 7.7929 16.1826 7.78743 16.1812C7.78948 16.1256 7.78743 16.07 7.78743 16.0144C7.78743 16.0016 7.78743 15.9885 7.78743 15.975V15.975ZM7.78333 15.2261C7.79871 15.2271 7.81306 15.2311 7.82844 15.2331C7.82844 15.4909 7.83562 15.7506 7.83254 16.0084C7.81751 15.9969 7.80247 15.9858 7.78743 15.975C7.78606 15.725 7.78469 15.4754 7.78333 15.2261V15.2261ZM7.78025 14.6115C7.79529 14.6041 7.81033 14.5967 7.82537 14.5893C7.82639 14.8036 7.82742 15.0189 7.82844 15.2331C7.81306 15.2311 7.79871 15.2271 7.78333 15.2261C7.78264 15.0212 7.78162 14.8164 7.78025 14.6115ZM7.7782 14.3447C7.78367 14.3434 7.7888 14.343 7.79358 14.3437C7.80691 14.3457 7.81306 14.3629 7.81716 14.3851C7.82332 14.4165 7.82127 14.4569 7.82229 14.4771C7.82434 14.5145 7.82434 14.5519 7.82537 14.5893C7.81033 14.5967 7.79529 14.6041 7.78025 14.6115C7.78025 14.5779 7.78025 14.5442 7.78025 14.5105C7.78025 14.4549 7.78025 14.3993 7.7782 14.3447V14.3447Z" fill="url(#paint8_linear_811_7019)"/>
<path d="M13.3509 2.14609C13.355 2.11173 13.3557 2.07837 13.353 2.04603C13.3646 2.03188 13.3742 2.01975 13.3817 2.00964C13.3961 1.99078 13.4094 1.97191 13.4217 1.95304C13.4203 1.98539 13.4131 2.0184 13.4002 2.05209C13.3879 2.08242 13.3715 2.11375 13.3509 2.14609V2.14609ZM13.0895 2.44628C13.0936 2.40383 13.0977 2.36138 13.1018 2.31893C13.1859 2.22796 13.3028 2.10667 13.353 2.04603C13.3557 2.07837 13.355 2.11173 13.3509 2.14609C13.3434 2.15755 13.3349 2.16934 13.3253 2.18147C13.2874 2.232 13.1674 2.35632 13.0895 2.44628ZM12.6865 2.86068C12.6701 2.83642 12.6486 2.81924 12.6301 2.797C12.7901 2.64034 12.948 2.48064 13.1018 2.31893C13.0977 2.36138 13.0936 2.40383 13.0895 2.44628C12.9572 2.58576 12.8229 2.72423 12.6865 2.86068ZM12.2179 3.29832C12.1817 3.29832 12.1455 3.29832 12.1093 3.29832C12.2846 3.13256 12.4589 2.96579 12.6301 2.797C12.6486 2.81924 12.6701 2.83642 12.6865 2.86068C12.6558 2.891 12.3758 3.15581 12.2179 3.29832V3.29832ZM11.9954 3.47722C11.9681 3.47722 11.9414 3.47621 11.9155 3.47419C11.9483 3.44791 11.9821 3.41658 12.0139 3.38727C12.0436 3.35897 12.0764 3.32763 12.1093 3.29832C12.1455 3.29832 12.1817 3.29832 12.2179 3.29832C12.1585 3.34583 12.0826 3.41557 12.0447 3.44387C12.0276 3.456 12.0112 3.46712 11.9954 3.47722V3.47722ZM11.9042 3.52068C11.8768 3.53079 11.8495 3.53686 11.8222 3.53888C11.8539 3.51967 11.8847 3.49744 11.9155 3.47419C11.9414 3.47621 11.9681 3.47722 11.9954 3.47722C11.9647 3.49542 11.9339 3.51058 11.9042 3.52068V3.52068ZM13.353 2.04603C13.3489 1.99448 13.3376 1.94597 13.3192 1.90049C13.3468 1.86915 13.3694 1.84287 13.3838 1.82367C13.3865 1.8203 13.3889 1.81727 13.3909 1.81457C13.3998 1.83614 13.4073 1.85871 13.4135 1.88229C13.4196 1.90554 13.4217 1.92879 13.4217 1.95304C13.4094 1.97191 13.3961 1.99078 13.3817 2.00964C13.3742 2.01975 13.3646 2.03188 13.353 2.04603V2.04603ZM13.1018 2.31893C13.0922 2.26772 13.0826 2.21617 13.0731 2.16429C13.1551 2.07635 13.2607 1.96618 13.3192 1.90049C13.3376 1.94597 13.3489 1.99448 13.353 2.04603C13.3028 2.10667 13.1859 2.22796 13.1018 2.31893ZM12.6301 2.797C12.6024 2.76264 12.5696 2.73535 12.5389 2.703C12.7193 2.52613 12.8977 2.34622 13.0731 2.16429C13.0826 2.21617 13.0922 2.26772 13.1018 2.31893C12.948 2.48064 12.7901 2.64034 12.6301 2.797ZM12.1093 3.29832C12.0573 3.28889 12.005 3.27946 11.9524 3.27002C12.1492 3.08304 12.3451 2.89403 12.5389 2.703C12.5696 2.73535 12.6024 2.76264 12.6301 2.797C12.4589 2.96579 12.2846 3.13256 12.1093 3.29832V3.29832ZM11.9155 3.47419C11.8621 3.46914 11.8109 3.46004 11.7637 3.44387C11.7863 3.42466 11.8088 3.40445 11.8314 3.38322C11.8673 3.34886 11.9103 3.30742 11.9524 3.27002C12.005 3.27946 12.0573 3.28889 12.1093 3.29832C12.0764 3.32763 12.0436 3.35897 12.0139 3.38727C11.9821 3.41658 11.9483 3.44791 11.9155 3.47419V3.47419ZM11.8222 3.53888C11.7945 3.5409 11.7668 3.53888 11.7401 3.5318C11.7189 3.52641 11.6984 3.51967 11.6786 3.51159C11.7073 3.49137 11.736 3.46813 11.7637 3.44387C11.8109 3.46004 11.8621 3.46914 11.9155 3.47419C11.8847 3.49744 11.8539 3.51967 11.8222 3.53888V3.53888ZM13.3192 1.90049C13.2894 1.82973 13.2443 1.76606 13.1869 1.71552C13.2149 1.68655 13.2409 1.65926 13.2648 1.63365C13.3192 1.68318 13.3612 1.74281 13.3909 1.81457C13.3889 1.81727 13.3865 1.8203 13.3838 1.82367C13.3694 1.84287 13.3468 1.86915 13.3192 1.90049ZM13.0731 2.16429C13.0293 2.0996 12.9856 2.03457 12.9418 1.96921C13.0239 1.88431 13.1161 1.79032 13.1869 1.71552C13.2443 1.76606 13.2894 1.82973 13.3192 1.90049C13.2607 1.96618 13.1551 2.07635 13.0731 2.16429ZM12.5389 2.703C12.4821 2.64977 12.4257 2.5962 12.3697 2.5423C12.5625 2.35228 12.7532 2.16226 12.9418 1.96921C12.9856 2.03457 13.0293 2.0996 13.0731 2.16429C12.8977 2.34622 12.7193 2.52613 12.5389 2.703V2.703ZM11.9524 3.27002C11.9011 3.2397 11.8498 3.21039 11.7996 3.18007C11.7811 3.16929 11.763 3.1585 11.7453 3.14772C11.9544 2.94659 12.1626 2.74545 12.3697 2.5423C12.4257 2.5962 12.4821 2.64977 12.5389 2.703C12.3451 2.89403 12.1492 3.08304 11.9524 3.27002V3.27002ZM11.7637 3.44387C11.7083 3.42567 11.6571 3.40041 11.613 3.36604C11.5952 3.35257 11.5785 3.33808 11.5627 3.32258C11.6171 3.27103 11.6848 3.20635 11.7453 3.14772C11.763 3.1585 11.7811 3.16929 11.7996 3.18007C11.8498 3.21039 11.9011 3.2397 11.9524 3.27002C11.9103 3.30742 11.8673 3.34886 11.8314 3.38322C11.8088 3.40445 11.7863 3.42466 11.7637 3.44387V3.44387ZM11.6786 3.51159C11.6048 3.4843 11.5422 3.44286 11.492 3.38929C11.5139 3.3684 11.5374 3.34616 11.5627 3.32258C11.5785 3.33808 11.5952 3.35257 11.613 3.36604C11.6571 3.40041 11.7083 3.42567 11.7637 3.44387C11.736 3.46813 11.7073 3.49137 11.6786 3.51159V3.51159ZM13.1869 1.71552C13.1397 1.67307 13.0854 1.63972 13.0249 1.61647C13.0587 1.58615 13.0885 1.55987 13.112 1.53864C13.1708 1.56358 13.2218 1.59525 13.2648 1.63365C13.2409 1.65926 13.2149 1.68655 13.1869 1.71552ZM12.9418 1.96921C12.8817 1.9335 12.8219 1.89745 12.7624 1.86107C12.8496 1.7792 12.9552 1.68015 13.0249 1.61647C13.0854 1.63972 13.1397 1.67307 13.1869 1.71552C13.1161 1.79032 13.0239 1.88431 12.9418 1.96921V1.96921ZM12.3697 2.5423C12.3194 2.4958 12.261 2.44021 12.2108 2.39473C12.3933 2.21482 12.5771 2.03693 12.7624 1.86107C12.8219 1.89745 12.8817 1.9335 12.9418 1.96921C12.7532 2.16226 12.5625 2.35228 12.3697 2.5423V2.5423ZM11.7453 3.14772C11.7063 3.09112 11.6677 3.03486 11.6294 2.97893C11.8211 2.78285 12.0159 2.58778 12.2108 2.39473C12.261 2.44021 12.3194 2.4958 12.3697 2.5423C12.1626 2.74545 11.9544 2.94659 11.7453 3.14772V3.14772ZM11.5627 3.32258C11.5166 3.27609 11.4787 3.22252 11.452 3.16086C11.493 3.1174 11.5699 3.03958 11.6294 2.97893C11.6677 3.03486 11.7063 3.09112 11.7453 3.14772C11.6848 3.20635 11.6171 3.27103 11.5627 3.32258ZM11.492 3.38929C11.45 3.34482 11.4161 3.29125 11.3895 3.22959C11.3977 3.21949 11.4062 3.20972 11.4151 3.20028C11.4253 3.1895 11.4376 3.17636 11.452 3.16086C11.4787 3.22252 11.5166 3.27609 11.5627 3.32258C11.5374 3.34616 11.5139 3.3684 11.492 3.38929V3.38929ZM13.0249 1.61647C12.991 1.60333 12.9562 1.59423 12.9203 1.58817C12.8957 1.58413 12.869 1.58312 12.8424 1.58413C12.8762 1.55482 12.9039 1.53056 12.9254 1.51439C12.9839 1.50428 13.0403 1.51034 13.0895 1.52955C13.0977 1.53224 13.1052 1.53528 13.112 1.53864C13.0885 1.55987 13.0587 1.58615 13.0249 1.61647V1.61647ZM12.7624 1.86107C12.7296 1.85601 12.6968 1.85197 12.665 1.84692C12.6342 1.84287 12.6024 1.83883 12.5727 1.83378C12.6629 1.7509 12.7747 1.64477 12.8424 1.58413C12.869 1.58312 12.8957 1.58413 12.9203 1.58817C12.9562 1.59423 12.991 1.60333 13.0249 1.61647C12.9552 1.68015 12.8496 1.7792 12.7624 1.86107ZM12.2108 2.39473C12.1718 2.36239 12.139 2.32196 12.0939 2.29669C12.2518 2.14036 12.4114 1.98606 12.5727 1.83378C12.6024 1.83883 12.6342 1.84287 12.665 1.84692C12.6968 1.85197 12.7296 1.85601 12.7624 1.86107C12.5771 2.03693 12.3933 2.21482 12.2108 2.39473V2.39473ZM11.6294 2.97893C11.6164 2.92031 11.6034 2.86169 11.5904 2.80307C11.7565 2.63326 11.9247 2.46346 12.0939 2.29669C12.139 2.32196 12.1718 2.36239 12.2108 2.39473C12.0159 2.58778 11.8211 2.78285 11.6294 2.97893ZM11.452 3.16086C11.4294 3.10932 11.4151 3.0517 11.411 2.99106C11.4137 2.98837 11.4161 2.98567 11.4182 2.98298C11.451 2.9476 11.533 2.86371 11.5904 2.80307C11.6034 2.86169 11.6164 2.92031 11.6294 2.97893C11.5699 3.03958 11.493 3.1174 11.452 3.16086V3.16086ZM11.3895 3.22959C11.3874 3.2242 11.385 3.21848 11.3823 3.21241C11.3628 3.16289 11.3566 3.10628 11.3679 3.04665C11.3809 3.02778 11.3953 3.00925 11.411 2.99106C11.4151 3.0517 11.4294 3.10932 11.452 3.16086C11.4376 3.17636 11.4253 3.1895 11.4151 3.20028C11.4062 3.20972 11.3977 3.21949 11.3895 3.22959ZM12.8424 1.58413C12.8044 1.58615 12.7655 1.59423 12.7275 1.60838C12.7603 1.58312 12.7942 1.55987 12.8311 1.54269C12.8454 1.53662 12.8598 1.53123 12.8742 1.52652C12.8912 1.52112 12.9083 1.51708 12.9254 1.51439C12.9039 1.53056 12.8762 1.55482 12.8424 1.58413V1.58413ZM12.5727 1.83378C12.5255 1.84793 12.4784 1.86174 12.4312 1.87522C12.4979 1.81558 12.5635 1.75393 12.6301 1.69329C12.6619 1.66296 12.6947 1.63365 12.7275 1.60838C12.7655 1.59423 12.8044 1.58615 12.8424 1.58413C12.7747 1.64477 12.6629 1.7509 12.5727 1.83378V1.83378ZM12.0939 2.29669C12.0713 2.28355 12.0406 2.28052 12.0159 2.27142C12.1544 2.13902 12.2918 2.00661 12.4312 1.87522C12.4784 1.86174 12.5255 1.84793 12.5727 1.83378C12.4114 1.98606 12.2518 2.14036 12.0939 2.29669V2.29669ZM11.5904 2.80307C11.5918 2.77207 11.5932 2.74074 11.5945 2.70907C11.7319 2.56352 11.8693 2.40989 12.0159 2.27142C12.0406 2.28052 12.0713 2.28355 12.0939 2.29669C11.9247 2.46346 11.7565 2.63326 11.5904 2.80307ZM11.411 2.99106C11.4096 2.97152 11.4096 2.95131 11.411 2.93042C11.4459 2.86876 11.4992 2.81621 11.5494 2.76062C11.5651 2.74377 11.5802 2.72659 11.5945 2.70907C11.5932 2.74074 11.5918 2.77207 11.5904 2.80307C11.533 2.86371 11.451 2.9476 11.4182 2.98298C11.4161 2.98567 11.4137 2.98837 11.411 2.99106ZM11.3679 3.04665C11.3707 3.03115 11.3744 3.01566 11.3792 3.00016C11.3874 2.9759 11.3977 2.95265 11.411 2.93042C11.4096 2.95131 11.4096 2.97152 11.411 2.99106C11.3953 3.00925 11.3809 3.02778 11.3679 3.04665Z" fill="#FFBD00"/>
<path d="M12.5695 1.83517C12.6136 1.80586 12.6567 1.76947 12.7007 1.74724C12.6423 1.79676 12.5941 1.84629 12.5408 1.89581C12.5182 1.90457 12.4953 1.913 12.4721 1.92108C12.5049 1.89211 12.5374 1.86347 12.5695 1.83517V1.83517ZM12.4721 1.92108C12.4953 1.913 12.5182 1.90457 12.5408 1.89581C12.5346 1.90255 12.5285 1.90895 12.5223 1.91502C12.4352 1.99992 12.3306 2.10402 12.2701 2.16366C12.1696 2.2617 12.1676 2.26372 12.1686 2.26372C12.1686 2.26372 12.1686 2.26372 12.1368 2.29505C12.1276 2.29 12.1224 2.28292 12.1122 2.27888C12.227 2.16568 12.3501 2.03529 12.4721 1.92108V1.92108ZM12.1122 2.27888C12.1224 2.28292 12.1276 2.29 12.1368 2.29505C12.1204 2.31122 12.0968 2.33447 12.0609 2.36985C11.9963 2.43352 11.8815 2.54672 11.7769 2.64982C11.7714 2.65521 11.766 2.6606 11.7605 2.66599C11.7632 2.64847 11.7663 2.63129 11.7697 2.61444C11.8794 2.49922 11.9984 2.39006 12.1122 2.27888V2.27888ZM11.7697 2.61444C11.7663 2.63129 11.7632 2.64847 11.7605 2.66599C11.7082 2.72057 11.6559 2.76908 11.6026 2.82973C11.6252 2.78627 11.6569 2.74179 11.6928 2.69934C11.7174 2.67003 11.7441 2.64274 11.7697 2.61444V2.61444ZM12.7007 1.74724C12.7264 1.7341 12.752 1.72399 12.7766 1.71894C12.8115 1.71085 12.8668 1.7058 12.8956 1.72399C12.8576 1.76442 12.8166 1.80283 12.7776 1.84225C12.7681 1.85168 12.7585 1.86111 12.7489 1.87055C12.6792 1.87931 12.6098 1.88773 12.5408 1.89581C12.5941 1.84629 12.6423 1.79676 12.7007 1.74724V1.74724ZM12.1686 2.26372C12.1676 2.26372 12.1696 2.2617 12.2701 2.16366C12.3306 2.10402 12.4352 1.99992 12.5223 1.91502C12.5285 1.90895 12.5346 1.90255 12.5408 1.89581C12.6098 1.88773 12.6792 1.87931 12.7489 1.87055C12.5698 2.04709 12.3907 2.22363 12.2117 2.40017C12.1788 2.37288 12.1747 2.31628 12.1368 2.29505C12.1686 2.26372 12.1686 2.26372 12.1686 2.26372ZM11.7769 2.64982C11.8815 2.54672 11.9963 2.43352 12.0609 2.36985C12.0968 2.33447 12.1204 2.31122 12.1368 2.29505C12.1747 2.31628 12.1788 2.37288 12.2117 2.40017C12.0647 2.54504 11.9177 2.68991 11.7708 2.83478C11.7673 2.77818 11.7639 2.72192 11.7605 2.66599C11.766 2.6606 11.7714 2.65521 11.7769 2.64982ZM11.7605 2.66599C11.7639 2.72192 11.7673 2.77818 11.7708 2.83478C11.7461 2.85836 11.7219 2.88195 11.698 2.90553C11.658 2.94495 11.619 2.98538 11.578 3.02278C11.5595 2.99448 11.5647 2.9399 11.5729 2.90553C11.579 2.88127 11.5893 2.855 11.6026 2.82973C11.6559 2.76908 11.7082 2.72057 11.7605 2.66599V2.66599ZM12.7776 1.84225C12.8166 1.80283 12.8576 1.76442 12.8956 1.72399C12.9003 1.72669 12.9041 1.73005 12.9068 1.7341C12.914 1.7442 12.9079 1.76038 12.8956 1.77857C12.8771 1.80485 12.8453 1.83315 12.832 1.84831C12.8224 1.85842 12.8132 1.86819 12.8043 1.87762C12.7858 1.8756 12.7674 1.87324 12.7489 1.87055C12.7585 1.86111 12.7681 1.85168 12.7776 1.84225V1.84225ZM12.7489 1.87055C12.7674 1.87324 12.7858 1.8756 12.8043 1.87762C12.6228 2.0636 12.4331 2.24249 12.2475 2.42544C12.2363 2.41735 12.2229 2.41027 12.2117 2.40017C12.3907 2.22363 12.5698 2.04709 12.7489 1.87055V1.87055ZM12.2117 2.40017C12.2229 2.41027 12.2363 2.41735 12.2475 2.42544C12.0937 2.57806 11.9399 2.72967 11.7861 2.88128C11.7814 2.86578 11.7762 2.85028 11.7708 2.83478C11.9177 2.68991 12.0647 2.54504 12.2117 2.40017ZM11.698 2.90553C11.7219 2.88195 11.7461 2.85836 11.7708 2.83478C11.7762 2.85028 11.7814 2.86578 11.7861 2.88128C11.7585 2.90755 11.7318 2.93383 11.7041 2.9591C11.6898 2.97325 11.661 3.00256 11.6354 3.02076C11.617 3.03389 11.5995 3.04097 11.5882 3.0339C11.5841 3.0312 11.5807 3.02749 11.578 3.02278C11.619 2.98538 11.658 2.94495 11.698 2.90553Z" fill="url(#paint9_linear_811_7019)"/>
<path d="M2.60088 2.05209C2.58789 2.0184 2.58072 1.98539 2.57935 1.95304C2.59097 1.97191 2.6043 1.99078 2.61934 2.00964C2.62686 2.01975 2.63643 2.03188 2.64805 2.04603C2.64531 2.07837 2.646 2.11173 2.6501 2.14609C2.62959 2.11375 2.61319 2.08242 2.60088 2.05209V2.05209ZM2.67573 2.18147C2.66616 2.16934 2.65762 2.15755 2.6501 2.14609C2.646 2.11173 2.64531 2.07837 2.64805 2.04603C2.69829 2.10667 2.81518 2.22796 2.89823 2.31893C2.90233 2.36138 2.90643 2.40383 2.91054 2.44628C2.83364 2.35632 2.71265 2.232 2.67573 2.18147V2.18147ZM2.91054 2.44628C2.90643 2.40383 2.90233 2.36138 2.89823 2.31893C3.05306 2.48064 3.21096 2.64034 3.37092 2.797C3.35246 2.81924 3.3299 2.83642 3.31452 2.86068C3.17815 2.72423 3.04383 2.58576 2.91054 2.44628ZM3.31452 2.86068C3.3299 2.83642 3.35246 2.81924 3.37092 2.797C3.54215 2.96579 3.71646 3.13256 3.89077 3.29832C3.85454 3.29832 3.81831 3.29832 3.78208 3.29832C3.62418 3.15581 3.34528 2.891 3.31452 2.86068ZM3.95639 3.44387C3.91743 3.41557 3.84155 3.34583 3.78208 3.29832C3.81831 3.29832 3.85454 3.29832 3.89077 3.29832C3.92358 3.32763 3.95741 3.35897 3.98715 3.38727C4.01791 3.41658 4.05175 3.44791 4.08558 3.47419C4.05892 3.47621 4.03192 3.47722 4.00458 3.47722C3.98886 3.46712 3.97279 3.456 3.95639 3.44387V3.44387ZM4.00458 3.47722C4.03192 3.47722 4.05892 3.47621 4.08558 3.47419C4.11532 3.49744 4.14608 3.51967 4.17786 3.53888C4.15121 3.53686 4.1242 3.53079 4.09686 3.52068C4.0661 3.51058 4.03534 3.49542 4.00458 3.47722V3.47722ZM2.61934 2.00964C2.6043 1.99078 2.59097 1.97191 2.57935 1.95304C2.57832 1.92879 2.58037 1.90554 2.58755 1.88229C2.5937 1.85871 2.60122 1.83614 2.61011 1.81457C2.61216 1.81727 2.61455 1.8203 2.61729 1.82367C2.63164 1.84287 2.65317 1.86915 2.68188 1.90049C2.66343 1.94597 2.65215 1.99448 2.64805 2.04603C2.63643 2.03188 2.62686 2.01975 2.61934 2.00964V2.00964ZM2.64805 2.04603C2.65215 1.99448 2.66343 1.94597 2.68188 1.90049C2.7393 1.96618 2.84594 2.07635 2.92797 2.16429C2.9184 2.21617 2.90849 2.26772 2.89823 2.31893C2.81518 2.22796 2.69829 2.10667 2.64805 2.04603V2.04603ZM2.89823 2.31893C2.90849 2.26772 2.9184 2.21617 2.92797 2.16429C3.1033 2.34622 3.28171 2.52613 3.46115 2.703C3.43141 2.73535 3.39757 2.76264 3.37092 2.797C3.21096 2.64034 3.05306 2.48064 2.89823 2.31893ZM3.37092 2.797C3.39757 2.76264 3.43141 2.73535 3.46115 2.703C3.65494 2.89403 3.8518 3.08304 4.04867 3.27002C3.99604 3.27946 3.9434 3.28889 3.89077 3.29832C3.71646 3.13256 3.54215 2.96579 3.37092 2.797V2.797ZM3.98715 3.38727C3.95741 3.35897 3.92358 3.32763 3.89077 3.29832C3.9434 3.28889 3.99604 3.27946 4.04867 3.27002C4.08968 3.30742 4.13275 3.34886 4.16966 3.38322C4.19222 3.40445 4.21478 3.42466 4.23631 3.44387C4.18914 3.46004 4.1389 3.46914 4.08558 3.47419C4.05175 3.44791 4.01791 3.41658 3.98715 3.38727V3.38727ZM4.08558 3.47419C4.1389 3.46914 4.18914 3.46004 4.23631 3.44387C4.26502 3.46813 4.2927 3.49137 4.32244 3.51159C4.30261 3.51967 4.28211 3.52641 4.26092 3.5318C4.23323 3.53888 4.20555 3.5409 4.17786 3.53888C4.14608 3.51967 4.11532 3.49744 4.08558 3.47419ZM2.61729 1.82367C2.61455 1.8203 2.61216 1.81727 2.61011 1.81457C2.63882 1.74281 2.68188 1.68318 2.73623 1.63365C2.76015 1.65926 2.78579 1.68655 2.81313 1.71552C2.75673 1.76606 2.71059 1.82973 2.68188 1.90049C2.65317 1.86915 2.63164 1.84287 2.61729 1.82367ZM2.68188 1.90049C2.71059 1.82973 2.75673 1.76606 2.81313 1.71552C2.8849 1.79032 2.97718 1.88431 3.05921 1.96921C3.01546 2.03457 2.97171 2.0996 2.92797 2.16429C2.84594 2.07635 2.7393 1.96618 2.68188 1.90049ZM2.92797 2.16429C2.97171 2.0996 3.01546 2.03457 3.05921 1.96921C3.24787 2.16226 3.43859 2.35228 3.63135 2.5423C3.57462 2.5962 3.51788 2.64977 3.46115 2.703C3.28171 2.52613 3.1033 2.34622 2.92797 2.16429V2.16429ZM3.46115 2.703C3.51788 2.64977 3.57462 2.5962 3.63135 2.5423C3.83745 2.74545 4.04662 2.94659 4.25579 3.14772C4.23733 3.1585 4.21922 3.16929 4.20145 3.18007C4.15018 3.21039 4.09994 3.2397 4.04867 3.27002C3.8518 3.08304 3.65494 2.89403 3.46115 2.703V2.703ZM4.16966 3.38322C4.13275 3.34886 4.08968 3.30742 4.04867 3.27002C4.09994 3.2397 4.15018 3.21039 4.20145 3.18007C4.21922 3.16929 4.23733 3.1585 4.25579 3.14772C4.31628 3.20635 4.38396 3.27103 4.4383 3.32258C4.42258 3.33808 4.40583 3.35257 4.38806 3.36604C4.34295 3.40041 4.2927 3.42567 4.23631 3.44387C4.21478 3.42466 4.19222 3.40445 4.16966 3.38322V3.38322ZM4.23631 3.44387C4.2927 3.42567 4.34295 3.40041 4.38806 3.36604C4.40583 3.35257 4.42258 3.33808 4.4383 3.32258C4.46291 3.34616 4.48615 3.3684 4.50803 3.38929C4.45778 3.44286 4.39626 3.4843 4.32244 3.51159C4.2927 3.49137 4.26502 3.46813 4.23631 3.44387V3.44387ZM2.73623 1.63365C2.77929 1.59525 2.82988 1.56358 2.88798 1.53864C2.91259 1.55987 2.94232 1.58615 2.97616 1.61647C2.91566 1.63972 2.86029 1.67307 2.81313 1.71552C2.78579 1.68655 2.76015 1.65926 2.73623 1.63365ZM2.81313 1.71552C2.86029 1.67307 2.91566 1.63972 2.97616 1.61647C3.04588 1.68015 3.15047 1.7792 3.23865 1.86107C3.17849 1.89745 3.11868 1.9335 3.05921 1.96921C2.97718 1.88431 2.8849 1.79032 2.81313 1.71552V1.71552ZM3.05921 1.96921C3.11868 1.9335 3.17849 1.89745 3.23865 1.86107C3.42389 2.03693 3.60743 2.21482 3.78926 2.39473C3.74004 2.44021 3.68057 2.4958 3.63135 2.5423C3.43859 2.35228 3.24787 2.16226 3.05921 1.96921V1.96921ZM3.63135 2.5423C3.68057 2.4958 3.74004 2.44021 3.78926 2.39473C3.9851 2.58778 4.17889 2.78285 4.37165 2.97893C4.33269 3.03486 4.29407 3.09112 4.25579 3.14772C4.04662 2.94659 3.83745 2.74545 3.63135 2.5423ZM4.25579 3.14772C4.29407 3.09112 4.33269 3.03486 4.37165 2.97893C4.43112 3.03958 4.507 3.1174 4.54904 3.16086C4.52238 3.22252 4.48444 3.27609 4.4383 3.32258C4.38396 3.27103 4.31628 3.20635 4.25579 3.14772ZM4.4383 3.32258C4.48444 3.27609 4.52238 3.22252 4.54904 3.16086C4.56339 3.17636 4.57536 3.1895 4.58493 3.20028C4.59381 3.20972 4.60236 3.21949 4.61056 3.22959C4.58493 3.29125 4.55109 3.34482 4.50803 3.38929C4.48615 3.3684 4.46291 3.34616 4.4383 3.32258V3.32258ZM2.88798 1.53864C2.8955 1.53528 2.90302 1.53224 2.91054 1.52955C2.95975 1.51034 3.01615 1.50428 3.07562 1.51439C3.09612 1.53056 3.12381 1.55482 3.15765 1.58413C3.13099 1.58312 3.10535 1.58413 3.08074 1.58817C3.04452 1.59423 3.00965 1.60367 2.97616 1.61647C2.94232 1.58615 2.91259 1.55987 2.88798 1.53864V1.53864ZM2.97616 1.61647C3.00965 1.60367 3.04452 1.59423 3.08074 1.58817C3.10535 1.58413 3.13099 1.58312 3.15765 1.58413C3.22532 1.64477 3.33811 1.7509 3.42834 1.83378C3.39758 1.83883 3.36682 1.84287 3.33605 1.84692C3.30427 1.85197 3.27146 1.85601 3.23865 1.86107C3.15047 1.7792 3.04588 1.68015 2.97616 1.61647ZM3.23865 1.86107C3.27146 1.85601 3.30427 1.85197 3.33605 1.84692C3.36682 1.84287 3.39758 1.83883 3.42834 1.83378C3.58966 1.98606 3.74927 2.14036 3.90717 2.29669C3.86206 2.32196 3.82822 2.36239 3.78926 2.39473C3.60743 2.21482 3.42389 2.03693 3.23865 1.86107V1.86107ZM3.78926 2.39473C3.82822 2.36239 3.86206 2.32196 3.90717 2.29669C4.07635 2.46346 4.24451 2.63326 4.41062 2.80307C4.39763 2.86169 4.38464 2.92031 4.37165 2.97893C4.17889 2.78285 3.9851 2.58778 3.78926 2.39473V2.39473ZM4.37165 2.97893C4.38464 2.92031 4.39763 2.86169 4.41062 2.80307C4.46804 2.86371 4.55006 2.9476 4.58185 2.98298C4.58458 2.98567 4.58732 2.98837 4.59005 2.99106C4.58595 3.0517 4.5716 3.10932 4.54904 3.16086C4.507 3.1174 4.43112 3.03958 4.37165 2.97893V2.97893ZM4.58493 3.20028C4.57536 3.1895 4.56339 3.17636 4.54904 3.16086C4.5716 3.10932 4.58595 3.0517 4.59005 2.99106C4.60577 3.00925 4.62013 3.02778 4.63312 3.04665C4.6444 3.10628 4.63824 3.16289 4.61876 3.21241C4.61603 3.21848 4.61329 3.2242 4.61056 3.22959C4.60236 3.21949 4.59381 3.20972 4.58493 3.20028V3.20028ZM3.07562 1.51439C3.09202 1.51708 3.10877 1.52112 3.12586 1.52652C3.1409 1.53123 3.15525 1.53662 3.16892 1.54269C3.20584 1.55987 3.2407 1.58312 3.27351 1.60838C3.23454 1.59423 3.19558 1.58615 3.15765 1.58413C3.12381 1.55482 3.09612 1.53056 3.07562 1.51439V1.51439ZM3.15765 1.58413C3.19558 1.58615 3.23454 1.59423 3.27351 1.60838C3.30632 1.63365 3.3381 1.66296 3.37092 1.69329C3.43756 1.75393 3.50216 1.81558 3.56983 1.87522C3.52267 1.86174 3.4755 1.84793 3.42834 1.83378C3.33811 1.7509 3.22532 1.64477 3.15765 1.58413V1.58413ZM3.42834 1.83378C3.4755 1.84793 3.52267 1.86174 3.56983 1.87522C3.70826 2.00661 3.84668 2.13902 3.9851 2.27142C3.96049 2.28052 3.92973 2.28355 3.90717 2.29669C3.74927 2.14036 3.58966 1.98606 3.42834 1.83378V1.83378ZM3.90717 2.29669C3.92973 2.28355 3.96049 2.28052 3.9851 2.27142C4.1307 2.40989 4.26912 2.56352 4.40651 2.70907C4.40788 2.74074 4.40925 2.77207 4.41062 2.80307C4.24451 2.63326 4.07635 2.46346 3.90717 2.29669ZM4.58185 2.98298C4.55006 2.9476 4.46804 2.86371 4.41062 2.80307C4.40925 2.77207 4.40788 2.74074 4.40651 2.70907C4.42087 2.72659 4.43557 2.74377 4.4506 2.76062C4.50187 2.81621 4.55519 2.86876 4.59005 2.93042C4.59142 2.95131 4.59142 2.97152 4.59005 2.99106C4.58732 2.98837 4.58458 2.98567 4.58185 2.98298ZM4.59005 2.99106C4.59142 2.97152 4.59142 2.95131 4.59005 2.93042C4.60236 2.95265 4.61363 2.9759 4.62184 3.00016C4.62662 3.01566 4.63038 3.03115 4.63312 3.04665C4.62013 3.02778 4.60577 3.00925 4.59005 2.99106Z" fill="#FFBD00"/>
<path d="M3.52907 1.92108C3.50583 1.913 3.48259 1.90457 3.45935 1.89581C3.40706 1.84629 3.35784 1.79676 3.30042 1.74724C3.34451 1.76947 3.38758 1.80586 3.43167 1.83517C3.46379 1.86347 3.49626 1.89211 3.52907 1.92108ZM3.88794 2.27888C3.87872 2.28292 3.87359 2.29 3.86436 2.29505C3.83258 2.26372 3.83258 2.26372 3.83258 2.26372C3.83258 2.26372 3.83052 2.2617 3.73107 2.16366C3.67057 2.10402 3.56496 1.99992 3.47883 1.91502C3.47268 1.90895 3.46619 1.90255 3.45935 1.89581C3.48259 1.90457 3.50583 1.913 3.52907 1.92108C3.65006 2.03529 3.77413 2.16568 3.88794 2.27888ZM4.23144 2.61444C4.23417 2.63129 4.23725 2.64847 4.24066 2.66599C4.2352 2.6606 4.22973 2.65521 4.22426 2.64982C4.11967 2.54672 4.00483 2.43352 3.94024 2.36985C3.90435 2.33447 3.88077 2.31122 3.86436 2.29505C3.87359 2.29 3.87872 2.28292 3.88794 2.27888C4.00176 2.39006 4.12172 2.49922 4.23144 2.61444V2.61444ZM4.30834 2.69934C4.3432 2.74179 4.37498 2.78627 4.39857 2.82973C4.34525 2.76908 4.29296 2.72057 4.24066 2.66599C4.23725 2.64847 4.23417 2.63129 4.23144 2.61444C4.25707 2.64274 4.28373 2.67003 4.30834 2.69934V2.69934ZM3.45935 1.89581C3.39031 1.88773 3.32127 1.87931 3.25223 1.87055C3.24266 1.86111 3.23309 1.85168 3.22352 1.84225C3.18353 1.80283 3.14354 1.76442 3.10561 1.72399C3.13329 1.7058 3.18968 1.71085 3.22352 1.71894C3.24915 1.72399 3.27479 1.7341 3.30042 1.74724C3.35784 1.79676 3.40706 1.84629 3.45935 1.89581ZM3.86436 2.29505C3.82642 2.31628 3.82232 2.37288 3.78951 2.40017C3.61042 2.22363 3.43132 2.04709 3.25223 1.87055C3.32127 1.87931 3.39031 1.88773 3.45935 1.89581C3.46619 1.90255 3.47268 1.90895 3.47883 1.91502C3.56496 1.99992 3.67057 2.10402 3.73107 2.16366C3.83052 2.2617 3.83258 2.26372 3.83258 2.26372C3.83258 2.26372 3.83258 2.26372 3.86436 2.29505V2.29505ZM4.24066 2.66599C4.23725 2.72192 4.23383 2.77818 4.23041 2.83478C4.08345 2.68991 3.93648 2.54504 3.78951 2.40017C3.82232 2.37288 3.82642 2.31628 3.86436 2.29505C3.88077 2.31122 3.90435 2.33447 3.94024 2.36985C4.00483 2.43352 4.11967 2.54672 4.22426 2.64982C4.22973 2.65521 4.2352 2.6606 4.24066 2.66599ZM4.39857 2.82973C4.4119 2.855 4.42215 2.88127 4.4283 2.90553C4.4365 2.9399 4.44061 2.99448 4.42317 3.02278C4.38216 2.98538 4.34217 2.94495 4.30321 2.90553C4.2786 2.88195 4.25434 2.85836 4.23041 2.83478C4.23383 2.77818 4.23725 2.72192 4.24066 2.66599C4.29296 2.72057 4.34525 2.76908 4.39857 2.82973V2.82973ZM3.25223 1.87055C3.23377 1.87324 3.21532 1.8756 3.19686 1.87762C3.18798 1.86819 3.17875 1.85842 3.16918 1.84831C3.15585 1.83315 3.12406 1.80485 3.10561 1.77857C3.0933 1.76038 3.08613 1.7442 3.09433 1.7341C3.09706 1.73005 3.10082 1.72669 3.10561 1.72399C3.14354 1.76442 3.18353 1.80283 3.22352 1.84225C3.23309 1.85168 3.24266 1.86111 3.25223 1.87055V1.87055ZM3.78951 2.40017C3.77823 2.41027 3.7649 2.41735 3.7526 2.42544C3.56804 2.24249 3.37835 2.0636 3.19686 1.87762C3.21532 1.8756 3.23377 1.87324 3.25223 1.87055C3.43132 2.04709 3.61042 2.22363 3.78951 2.40017V2.40017ZM4.23041 2.83478C4.22494 2.85028 4.21947 2.86578 4.214 2.88128C4.0602 2.72967 3.9064 2.57806 3.7526 2.42544C3.7649 2.41735 3.77823 2.41027 3.78951 2.40017C3.93648 2.54504 4.08345 2.68991 4.23041 2.83478ZM4.42317 3.02278C4.41976 3.02749 4.416 3.0312 4.4119 3.0339C4.40164 3.04097 4.38421 3.03389 4.36576 3.02076C4.3391 3.00256 4.31141 2.97325 4.29706 2.9591C4.26937 2.93383 4.24169 2.90755 4.214 2.88128C4.21947 2.86578 4.22494 2.85028 4.23041 2.83478C4.25434 2.85836 4.2786 2.88195 4.30321 2.90553C4.34217 2.94495 4.38216 2.98538 4.42317 3.02278Z" fill="url(#paint10_linear_811_7019)"/>
<defs>
<linearGradient id="paint0_linear_811_7019" x1="8.00028" y1="0.499863" x2="8.00028" y2="14.5763" gradientUnits="userSpaceOnUse">
<stop stop-color="#FFD401"/>
<stop offset="1" stop-color="#FFB800"/>
</linearGradient>
<linearGradient id="paint1_linear_811_7019" x1="1393.05" y1="1295.13" x2="1411.25" y2="1313.8" gradientUnits="userSpaceOnUse">
<stop stop-color="#F7A602"/>
<stop offset="1" stop-color="#FFFFF7"/>
</linearGradient>
<linearGradient id="paint2_linear_811_7019" x1="774.416" y1="7131.57" x2="1110.55" y2="6272.72" gradientUnits="userSpaceOnUse">
<stop stop-color="#FFFF42"/>
<stop offset="1" stop-color="#FFB117"/>
</linearGradient>
<linearGradient id="paint3_linear_811_7019" x1="1892.83" y1="6912.57" x2="2019.42" y2="6996" gradientUnits="userSpaceOnUse">
<stop stop-color="#FFBE1B"/>
<stop offset="1" stop-color="white"/>
</linearGradient>
<linearGradient id="paint4_linear_811_7019" x1="4549.53" y1="3459.98" x2="4268.82" y2="3191.3" gradientUnits="userSpaceOnUse">
<stop stop-color="#FFFFCD"/>
<stop offset="1" stop-color="#FEAF04"/>
</linearGradient>
<linearGradient id="paint5_linear_811_7019" x1="2508.2" y1="1806.59" x2="2457.53" y2="1701.54" gradientUnits="userSpaceOnUse">
<stop stop-color="#FFBE19"/>
<stop offset="1" stop-color="#FFFFE3"/>
</linearGradient>
<linearGradient id="paint6_linear_811_7019" x1="4314.99" y1="1482.94" x2="4479.6" y2="1375.12" gradientUnits="userSpaceOnUse">
<stop stop-color="#FFDA25"/>
<stop offset="1" stop-color="#FFE93A"/>
</linearGradient>
<linearGradient id="paint7_linear_811_7019" x1="6846.21" y1="1482.94" x2="6681.57" y2="1375.05" gradientUnits="userSpaceOnUse">
<stop stop-color="#FFDA25"/>
<stop offset="1" stop-color="#FFE93A"/>
</linearGradient>
<linearGradient id="paint8_linear_811_7019" x1="689.454" y1="4165" x2="808.285" y2="4280.8" gradientUnits="userSpaceOnUse">
<stop stop-color="#FFDA25"/>
<stop offset="1" stop-color="#FFE93A"/>
</linearGradient>
<linearGradient id="paint9_linear_811_7019" x1="4864.41" y1="1422.99" x2="5000.26" y2="1313.21" gradientUnits="userSpaceOnUse">
<stop stop-color="#FFDA25"/>
<stop offset="1" stop-color="#FFE93A"/>
</linearGradient>
<linearGradient id="paint10_linear_811_7019" x1="3886.37" y1="1422.99" x2="3750.52" y2="1313.2" gradientUnits="userSpaceOnUse">
<stop stop-color="#FFDA25"/>
<stop offset="1" stop-color="#FFE93A"/>
</linearGradient>
</defs>
</svg>
