<svg width="95" height="85" viewBox="0 0 81 75" fill="none" xmlns="http://www.w3.org/2000/svg">
<rect x="0.490234" y="0.158813" width="80" height="74" rx="9.28012" fill="#FCEFCB"/>
<path d="M65.8409 31.9609C65.0374 29.6855 49.7632 27.7185 49.7632 27.7185C49.7632 27.7185 42.9958 13.6415 40.4923 13.6415C37.9888 13.6415 31.2214 27.7185 31.2214 27.7185C31.2214 27.7185 15.9473 29.6855 15.1438 31.9609C14.3406 34.2364 25.812 45.2061 25.812 45.2061C25.812 45.2061 22.8414 58.9518 25.1679 60.4966C27.4944 62.0414 40.4923 53.1463 40.4923 53.1463C40.4923 53.1463 53.4902 62.0414 55.8168 60.4966C58.1433 58.9518 55.1726 45.2061 55.1726 45.2061C55.1726 45.2061 66.644 34.2364 65.8409 31.9609Z" fill="#F9BA06"/>
<path d="M49.7601 27.718C49.7601 27.718 42.9927 13.641 40.4892 13.641C37.9856 13.641 31.2182 27.718 31.2182 27.718C31.2182 27.718 15.9441 29.685 15.1406 31.9604H65.8374C65.0342 29.6847 49.7601 27.718 49.7601 27.718Z" fill="#FFD400"/>
<path d="M40.4865 14.8987C38.0638 14.8987 31.5143 28.1226 31.5143 28.1226C31.5143 28.1226 16.7324 29.9703 15.955 32.1081C15.1776 34.2459 26.2793 44.5505 26.2793 44.5505C26.2793 44.5505 23.4043 57.4637 25.6563 58.9148C27.9083 60.366 40.4869 51.1715 40.4869 51.1715C40.4869 51.1715 53.0657 60.366 55.3174 58.9148C57.5691 57.4637 54.6944 44.5505 54.6944 44.5505C54.6944 44.5505 65.7958 34.2459 65.0187 32.1081C64.2416 29.9703 49.4594 28.1226 49.4594 28.1226C49.4594 28.1226 42.9093 14.8987 40.4865 14.8987Z" fill="#FFD400"/>
<path d="M40.4928 14.8986C38.0701 14.8986 31.5205 28.1225 31.5205 28.1225C31.5205 28.1225 16.3219 29.9702 15.5448 32.108C14.7677 34.2458 27.9517 44.5503 27.9517 44.5503C27.9517 44.5503 25.8747 54.9963 28.521 55.5903C31.3684 56.2292 37.3832 49.9588 40.4038 48.8066C41.5801 48.3579 50.9963 56.7801 53.0346 55.6358C55.3623 54.3287 52.2018 44.5506 52.2018 44.5506C52.2018 44.5506 66.2189 34.2461 65.4415 32.1083C64.6641 29.9705 49.4657 28.1228 49.4657 28.1228C49.4657 28.1228 42.9155 14.8986 40.4928 14.8986Z" fill="#FFE000"/>
<path d="M40.4437 43.2856C23.8637 43.2859 15.7402 33.7259 16.3287 32.108C17.106 29.9702 31.4714 28.1225 31.4714 28.1225C31.4714 28.1225 38.0209 14.0601 40.4437 14.0601C42.8664 14.0601 49.4159 28.1225 49.4159 28.1225L59.3036 29.8148C59.8921 31.4324 55.5553 43.2856 40.4437 43.2856Z" fill="#FFF200"/>
<path d="M25.6644 32.6841C27.9319 32.3395 29.6775 31.4422 29.5631 30.6799C29.4488 29.9177 27.5179 29.5792 25.2503 29.9238C22.9828 30.2685 21.2372 31.1658 21.3516 31.928C21.4659 32.6902 23.3968 33.0288 25.6644 32.6841Z" fill="white"/>
<path d="M19.2658 33.6314C20.024 33.5161 20.5783 33.0202 20.5038 32.524C20.4293 32.0277 19.7543 31.7188 18.996 31.8342C18.2377 31.9495 17.6834 32.4453 17.7579 32.9416C17.8324 33.4379 18.5075 33.7467 19.2658 33.6314Z" fill="white"/>
<path d="M35.2753 21.9054C33.955 24.2773 33.2883 26.4278 33.7861 26.7086C34.284 26.9894 35.7579 25.2941 37.0782 22.9222C38.3985 20.5502 39.0652 18.3997 38.5673 18.1189C38.0695 17.8381 36.5956 19.5334 35.2753 21.9054Z" fill="white"/>
<path d="M29.7676 42.951C31.4418 42.951 32.799 42.3765 32.799 41.6679C32.799 40.9592 31.4418 40.3848 29.7676 40.3848C28.0935 40.3848 26.7363 40.9592 26.7363 41.6679C26.7363 42.3765 28.0935 42.951 29.7676 42.951Z" fill="#FF6B86"/>
<path d="M51.211 42.9508C52.8851 42.9508 54.2423 42.3763 54.2423 41.6676C54.2423 40.959 52.8851 40.3845 51.211 40.3845C49.5369 40.3845 48.1797 40.959 48.1797 41.6676C48.1797 42.3763 49.5369 42.9508 51.211 42.9508Z" fill="#FF6B86"/>
<path d="M52.0797 35.8049L53.9249 34.1439L51.1602 34.561L52.4349 37.2127L54.4634 35.8609L52.0797 35.8049Z" fill="#42210B"/>
<path d="M28.8955 35.8048L27.0502 34.1438L29.8149 34.5609L28.5402 37.2125L26.5117 35.8608L28.8955 35.8048Z" fill="#42210B"/>
<path d="M31.4935 40.1566C33.1835 40.1566 34.5534 38.7776 34.5534 37.0765C34.5534 35.3754 33.1835 33.9963 31.4935 33.9963C29.8036 33.9963 28.4336 35.3754 28.4336 37.0765C28.4336 38.7776 29.8036 40.1566 31.4935 40.1566Z" fill="#42210B"/>
<path d="M32.443 39.6146C32.8484 39.6146 33.177 39.2838 33.177 38.8757C33.177 38.4676 32.8484 38.1368 32.443 38.1368C32.0376 38.1368 31.709 38.4676 31.709 38.8757C31.709 39.2838 32.0376 39.6146 32.443 39.6146Z" fill="white"/>
<path d="M29.9028 37.5628C30.4642 37.7589 31.1262 37.3176 31.3814 36.5772C31.6367 35.8367 31.3885 35.0775 30.8271 34.8814C30.2657 34.6853 29.6036 35.1266 29.3484 35.8671C29.0931 36.6075 29.3413 37.3667 29.9028 37.5628Z" fill="white"/>
<path d="M49.4818 40.1562C51.1717 40.1562 52.5417 38.7772 52.5417 37.0761C52.5417 35.375 51.1717 33.996 49.4818 33.996C47.7918 33.996 46.4219 35.375 46.4219 37.0761C46.4219 38.7772 47.7918 40.1562 49.4818 40.1562Z" fill="#42210B"/>
<path d="M50.4313 39.6141C50.8367 39.6141 51.1653 39.2833 51.1653 38.8752C51.1653 38.4672 50.8367 38.1364 50.4313 38.1364C50.0259 38.1364 49.6973 38.4672 49.6973 38.8752C49.6973 39.2833 50.0259 39.6141 50.4313 39.6141Z" fill="white"/>
<path d="M47.891 37.5626C48.4524 37.7587 49.1145 37.3174 49.3697 36.5769C49.625 35.8365 49.3768 35.0773 48.8153 34.8812C48.2539 34.6851 47.5919 35.1264 47.3367 35.8668C47.0814 36.6073 47.3296 37.3665 47.891 37.5626Z" fill="white"/>
<path d="M40.4917 39.6449C39.2019 39.6396 38.2324 40.0772 37.5305 40.7892C37.0284 41.2986 37.3975 42.1682 38.1104 42.1682H42.8729C43.5858 42.1682 43.9546 41.2986 43.4529 40.7892C42.7509 40.0772 41.7815 39.6396 40.4917 39.6449Z" fill="#42210B"/>
<path d="M35.6934 29.8187C35.5152 30.2433 35.2382 30.6303 34.9019 30.9442C34.5655 31.2581 34.1867 31.5243 33.7812 31.7261C33.3747 31.9268 32.9519 32.0875 32.5156 32.1869C32.0783 32.2872 31.6379 32.3451 31.1771 32.3087C31.0806 32.3011 31.0089 32.2163 31.0161 32.1191C31.0215 32.0536 31.0614 31.9995 31.1161 31.9736L31.1258 31.9685C31.8957 31.6053 32.6539 31.2872 33.3665 30.911C33.7259 30.7271 34.0657 30.5212 34.408 30.312C34.7494 30.0984 35.0653 29.8589 35.4209 29.6117L35.4315 29.6045C35.5114 29.5488 35.6211 29.569 35.6758 29.6494C35.7113 29.7006 35.7154 29.7652 35.6934 29.8187Z" fill="#42210B"/>
<path d="M45.5575 29.6119C45.9131 29.859 46.229 30.0985 46.5707 30.3121C46.9127 30.521 47.2525 30.7273 47.6118 30.9111C48.3245 31.2871 49.0827 31.6051 49.8526 31.9686L49.8623 31.9734C49.9497 32.0148 49.9871 32.1199 49.9466 32.2079C49.9186 32.2674 49.862 32.3038 49.8016 32.3085C49.3408 32.3449 48.9004 32.2873 48.4631 32.1867C48.0265 32.0873 47.604 31.9266 47.1975 31.726C46.792 31.5241 46.4129 31.258 46.0769 30.9441C45.7408 30.6302 45.4639 30.2432 45.2853 29.8185C45.2476 29.7286 45.2897 29.6249 45.379 29.5869C45.4359 29.5628 45.4987 29.5711 45.5462 29.6036L45.5575 29.6119Z" fill="#42210B"/>
</svg>
