<svg width="95" height="85" viewBox="0 0 81 75" fill="none" xmlns="http://www.w3.org/2000/svg">
<rect x="0.359375" y="0.28125" width="80.2621" height="73.7552" rx="9.28012" fill="#FCEFCB"/>
<path d="M65.9191 31.9779C65.1133 29.7099 49.7891 27.7495 49.7891 27.7495C49.7891 27.7495 42.9995 13.719 40.4874 13.719C37.976 13.719 31.1861 27.7495 31.1861 27.7495C31.1861 27.7495 15.8619 29.7099 15.056 31.9779C14.2502 34.2458 25.759 45.1793 25.759 45.1793C25.759 45.1793 22.7786 58.8796 25.113 60.4193C27.4475 61.959 40.4878 53.0932 40.4878 53.0932C40.4878 53.0932 53.5283 61.959 55.8624 60.4193C58.1969 58.8796 55.2165 45.1793 55.2165 45.1793C55.2165 45.1793 66.7246 34.2458 65.9191 31.9779Z" fill="#F9BA06"/>
<path d="M49.7877 27.7495C49.7877 27.7495 42.9981 13.719 40.4861 13.719C37.9747 13.719 31.1847 27.7495 31.1847 27.7495C31.1847 27.7495 15.8605 29.71 15.0547 31.9779H65.9178C65.1116 29.7096 49.7877 27.7495 49.7877 27.7495Z" fill="#FFD400"/>
<path d="M40.4851 14.9724C38.0544 14.9724 31.4834 28.1527 31.4834 28.1527C31.4834 28.1527 16.653 29.9942 15.8731 32.125C15.0935 34.2557 26.2313 44.5262 26.2313 44.5262C26.2313 44.5262 23.3468 57.3967 25.6062 58.8431C27.8656 60.2894 40.4854 51.1253 40.4854 51.1253C40.4854 51.1253 53.1055 60.2894 55.3646 58.8431C57.6237 57.3967 54.7395 44.5262 54.7395 44.5262C54.7395 44.5262 65.8774 34.2557 65.0974 32.125C64.3175 29.9942 49.4871 28.1527 49.4871 28.1527C49.4871 28.1527 42.9158 14.9724 40.4851 14.9724Z" fill="#FFD400"/>
<path d="M40.483 14.9724C38.0523 14.9724 31.4813 28.1527 31.4813 28.1527C31.4813 28.1527 16.2331 29.9942 15.4531 32.125C14.6732 34.2557 27.9004 44.5262 27.9004 44.5262C27.9004 44.5262 25.8167 54.9377 28.4716 55.5297C31.3283 56.1664 37.3632 49.9168 40.3934 48.7684C41.5736 48.3212 51.021 56.7155 53.0656 55.5751C55.401 54.2722 52.2301 44.5265 52.2301 44.5265C52.2301 44.5265 66.2932 34.256 65.5132 32.1253C64.7333 29.9945 49.485 28.153 49.485 28.153C49.485 28.153 42.9137 14.9724 40.483 14.9724Z" fill="#FFE000"/>
<path d="M40.4369 43.2655C23.8026 43.2659 15.6527 33.7375 16.2428 32.1249C17.0227 29.9942 31.4352 28.1526 31.4352 28.1526C31.4352 28.1526 38.0062 14.1366 40.4369 14.1366C42.8676 14.1366 49.4386 28.1526 49.4386 28.1526L59.3591 29.8393C59.9491 31.4515 55.5984 43.2655 40.4369 43.2655Z" fill="#FFF200"/>
<path d="M25.6167 32.6918C27.8917 32.3483 29.643 31.454 29.5283 30.6943C29.4135 29.9346 27.4763 29.5971 25.2013 29.9407C22.9263 30.2842 21.175 31.1785 21.2897 31.9382C21.4044 32.6979 23.3417 33.0353 25.6167 32.6918Z" fill="white"/>
<path d="M19.1947 33.6505C19.9552 33.5356 20.5112 33.0414 20.4365 32.5468C20.3617 32.0521 19.6846 31.7443 18.924 31.8592C18.1634 31.9741 17.6075 32.4683 17.6822 32.9629C17.7569 33.4576 18.4341 33.7654 19.1947 33.6505Z" fill="white"/>
<path d="M35.2629 21.9599C33.9383 24.324 33.2696 26.4675 33.7692 26.7474C34.2688 27.0274 35.7477 25.3378 37.0723 22.9737C38.3969 20.6095 39.0657 18.4661 38.566 18.1861C38.0664 17.9062 36.5876 19.5958 35.2629 21.9599Z" fill="white"/>
<path d="M29.7346 42.9318C31.4143 42.9318 32.7759 42.3592 32.7759 41.6529C32.7759 40.9466 31.4143 40.374 29.7346 40.374C28.055 40.374 26.6934 40.9466 26.6934 41.6529C26.6934 42.3592 28.055 42.9318 29.7346 42.9318Z" fill="#FF6B86"/>
<path d="M51.2463 42.9314C52.926 42.9314 54.2876 42.3589 54.2876 41.6525C54.2876 40.9462 52.926 40.3737 51.2463 40.3737C49.5667 40.3737 48.2051 40.9462 48.2051 41.6525C48.2051 42.3589 49.5667 42.9314 51.2463 42.9314Z" fill="#FF6B86"/>
<path d="M52.1178 35.8084L53.9694 34.153L51.1953 34.5686L52.4742 37.2116L54.5094 35.8642L52.1178 35.8084Z" fill="#42210B"/>
<path d="M28.8564 35.8087L27.0051 34.1532L29.7789 34.5689L28.5003 37.2118L26.4648 35.8645L28.8564 35.8087Z" fill="#42210B"/>
<path d="M31.4664 40.1461C33.1619 40.1461 34.5364 38.7717 34.5364 37.0762C34.5364 35.3807 33.1619 34.0062 31.4664 34.0062C29.771 34.0062 28.3965 35.3807 28.3965 37.0762C28.3965 38.7717 29.771 40.1461 31.4664 40.1461Z" fill="#42210B"/>
<path d="M32.4181 39.6059C32.8248 39.6059 33.1545 39.2762 33.1545 38.8695C33.1545 38.4628 32.8248 38.1331 32.4181 38.1331C32.0114 38.1331 31.6816 38.4628 31.6816 38.8695C31.6816 39.2762 32.0114 39.6059 32.4181 39.6059Z" fill="white"/>
<path d="M29.8777 37.5612C30.4409 37.7567 31.1051 37.3168 31.3612 36.5788C31.6173 35.8408 31.3683 35.0841 30.805 34.8887C30.2418 34.6932 29.5776 35.1331 29.3215 35.8711C29.0654 36.6091 29.3144 37.3658 29.8777 37.5612Z" fill="white"/>
<path d="M49.5133 40.1464C51.2088 40.1464 52.5833 38.7719 52.5833 37.0764C52.5833 35.3809 51.2088 34.0065 49.5133 34.0065C47.8178 34.0065 46.4434 35.3809 46.4434 37.0764C46.4434 38.7719 47.8178 40.1464 49.5133 40.1464Z" fill="#42210B"/>
<path d="M50.4649 39.606C50.8717 39.606 51.2014 39.2763 51.2014 38.8696C51.2014 38.4629 50.8717 38.1332 50.4649 38.1332C50.0582 38.1332 49.7285 38.4629 49.7285 38.8696C49.7285 39.2763 50.0582 39.606 50.4649 39.606Z" fill="white"/>
<path d="M47.9305 37.5845C48.4938 37.7799 49.1581 37.34 49.4142 36.6019C49.6702 35.8638 49.4212 35.1071 48.8579 34.9116C48.2945 34.7162 47.6303 35.1561 47.3742 35.8942C47.1181 36.6322 47.3672 37.389 47.9305 37.5845Z" fill="white"/>
<path d="M43.8845 42.2836C43.5205 41.6866 43.0314 41.2236 42.4366 40.9786C41.8424 40.7304 41.1719 40.6613 40.4919 40.6638C39.8119 40.6613 39.1417 40.7307 38.5472 40.9789C37.9521 41.2233 37.4633 41.6866 37.099 42.2836C37.0665 42.3366 36.9974 42.3537 36.9444 42.3212C36.9006 42.2944 36.8817 42.2423 36.8946 42.195L36.8953 42.1928C37.0908 41.4879 37.5957 40.8184 38.2915 40.4547C38.9812 40.0797 39.7599 39.9857 40.4916 39.9791C41.2233 39.9857 42.002 40.0794 42.6917 40.4551C43.3875 40.8181 43.8924 41.4876 44.0879 42.1928L44.0886 42.195C44.1053 42.2549 44.0703 42.3171 44.0103 42.3335C43.9611 42.3474 43.91 42.3256 43.8845 42.2836Z" fill="#42210B"/>
</svg>
