<svg width="95" height="85" viewBox="0 0 81 75" fill="none" xmlns="http://www.w3.org/2000/svg">
<rect x="0.359375" y="0.281372" width="80.2625" height="73.755" rx="9.28012" fill="#FCEFCB"/>
<path d="M65.9214 31.978C65.1153 29.7101 49.791 27.7496 49.791 27.7496C49.791 27.7496 43.0014 13.7191 40.4897 13.7191C37.978 13.7191 31.1884 27.7496 31.1884 27.7496C31.1884 27.7496 15.8641 29.7101 15.058 31.978C14.2522 34.2459 25.7612 45.1794 25.7612 45.1794C25.7612 45.1794 22.7808 58.8797 25.115 60.4194C27.4492 61.9591 40.4897 53.0933 40.4897 53.0933C40.4897 53.0933 53.5302 61.9591 55.8644 60.4194C58.1986 58.8797 55.2182 45.1794 55.2182 45.1794C55.2182 45.1794 66.7272 34.2459 65.9214 31.978Z" fill="#F9BA06"/>
<path d="M49.7916 27.7496C49.7916 27.7496 43.002 13.7191 40.4903 13.7191C37.9786 13.7191 31.189 27.7496 31.189 27.7496C31.189 27.7496 15.8647 29.7101 15.0586 31.978H65.9217C65.1159 29.7101 49.7916 27.7496 49.7916 27.7496Z" fill="#FFD400"/>
<path d="M40.489 14.9722C38.0584 14.9722 31.4873 28.1527 31.4873 28.1527C31.4873 28.1527 16.657 29.9943 15.877 32.125C15.0971 34.2557 26.2352 44.5266 26.2352 44.5266C26.2352 44.5266 23.3507 57.3968 25.6101 58.8432C27.8692 60.2898 40.4893 51.1254 40.4893 51.1254C40.4893 51.1254 53.1095 60.2898 55.3686 58.8432C57.6277 57.3968 54.7435 44.5266 54.7435 44.5266C54.7435 44.5266 65.8813 34.2557 65.1017 32.125C64.3217 29.9946 49.4914 28.1527 49.4914 28.1527C49.4914 28.1527 42.9197 14.9722 40.489 14.9722Z" fill="#FFD400"/>
<path d="M40.4889 14.972C38.0582 14.972 31.4871 28.1526 31.4871 28.1526C31.4871 28.1526 16.2386 29.9941 15.459 32.1249C14.679 34.2556 27.9066 44.5264 27.9066 44.5264C27.9066 44.5264 25.8228 54.9376 28.4777 55.5293C31.3345 56.1664 37.3691 49.9167 40.3996 48.7681C41.5798 48.3209 51.0268 56.7151 53.0718 55.5747C55.4072 54.2718 52.2363 44.5264 52.2363 44.5264C52.2363 44.5264 66.2993 34.2556 65.5194 32.1249C64.7394 29.9945 49.4912 28.1526 49.4912 28.1526C49.4912 28.1526 42.9195 14.972 40.4889 14.972Z" fill="#FFE000"/>
<path d="M40.4408 43.2651C23.8065 43.2654 15.6563 33.737 16.2467 32.1244C17.0267 29.994 31.4391 28.1521 31.4391 28.1521C31.4391 28.1521 38.0102 14.1361 40.4408 14.1361C42.8715 14.1361 49.4426 28.1521 49.4426 28.1521L59.3627 29.8385C59.9531 31.4511 55.602 43.2651 40.4408 43.2651Z" fill="#FFF200"/>
<path d="M25.6205 32.6972C27.8955 32.3537 29.6468 31.4595 29.5321 30.6999C29.4174 29.9404 27.4802 29.6031 25.2052 29.9466C22.9302 30.2901 21.1789 31.1843 21.2936 31.9439C21.4083 32.7034 23.3455 33.0407 25.6205 32.6972Z" fill="white"/>
<path d="M19.1869 33.6519C19.9476 33.537 20.5038 33.0431 20.4292 32.5486C20.3545 32.0541 19.6773 31.7464 18.9165 31.8612C18.1558 31.9761 17.5996 32.4701 17.6742 32.9645C17.7489 33.459 18.4261 33.7668 19.1869 33.6519Z" fill="white"/>
<path d="M35.2571 21.9588C33.9325 24.3229 33.2637 26.4664 33.7633 26.7463C34.263 27.0263 35.7418 25.3367 37.0664 22.9725C38.391 20.6084 39.0598 18.465 38.5602 18.185C38.0605 17.9051 36.5817 19.5946 35.2571 21.9588Z" fill="white"/>
<path d="M29.7327 42.9319C31.4123 42.9319 32.7739 42.3593 32.7739 41.653C32.7739 40.9467 31.4123 40.3741 29.7327 40.3741C28.053 40.3741 26.6914 40.9467 26.6914 41.653C26.6914 42.3593 28.053 42.9319 29.7327 42.9319Z" fill="#FF6B86"/>
<path d="M51.2463 42.9319C52.926 42.9319 54.2876 42.3593 54.2876 41.653C54.2876 40.9467 52.926 40.3741 51.2463 40.3741C49.5667 40.3741 48.2051 40.9467 48.2051 41.653C48.2051 42.3593 49.5667 42.9319 51.2463 42.9319Z" fill="#FF6B86"/>
<path d="M52.1237 35.8096L53.975 34.1542L51.2012 34.5699L52.4801 37.2131L54.5153 35.8655L52.1237 35.8096Z" fill="#42210B"/>
<path d="M28.8603 35.8094L27.009 34.1539L29.7828 34.5696L28.5039 37.2129L26.4688 35.8652L28.8603 35.8094Z" fill="#42210B"/>
<path d="M31.4684 40.1469C33.1639 40.1469 34.5384 38.7724 34.5384 37.0769C34.5384 35.3814 33.1639 34.007 31.4684 34.007C29.7729 34.007 28.3984 35.3814 28.3984 37.0769C28.3984 38.7724 29.7729 40.1469 31.4684 40.1469Z" fill="#42210B"/>
<path d="M32.4181 39.6069C32.8248 39.6069 33.1545 39.2772 33.1545 38.8705C33.1545 38.4637 32.8248 38.134 32.4181 38.134C32.0114 38.134 31.6816 38.4637 31.6816 38.8705C31.6816 39.2772 32.0114 39.6069 32.4181 39.6069Z" fill="white"/>
<path d="M29.8715 37.5779C30.4348 37.7734 31.099 37.3336 31.3552 36.5956C31.6114 35.8576 31.3624 35.1009 30.7992 34.9054C30.2359 34.7099 29.5716 35.1497 29.3155 35.8877C29.0593 36.6257 29.3083 37.3824 29.8715 37.5779Z" fill="white"/>
<path d="M49.5192 40.1465C51.2147 40.1465 52.5891 38.772 52.5891 37.0766C52.5891 35.3811 51.2147 34.0066 49.5192 34.0066C47.8237 34.0066 46.4492 35.3811 46.4492 37.0766C46.4492 38.772 47.8237 40.1465 49.5192 40.1465Z" fill="#42210B"/>
<path d="M50.4688 39.6069C50.8755 39.6069 51.2053 39.2772 51.2053 38.8705C51.2053 38.4637 50.8755 38.134 50.4688 38.134C50.0621 38.134 49.7324 38.4637 49.7324 38.8705C49.7324 39.2772 50.0621 39.6069 50.4688 39.6069Z" fill="white"/>
<path d="M47.9203 37.5782C48.4836 37.7737 49.1479 37.3339 49.404 36.5959C49.6602 35.8579 49.4112 35.1011 48.848 34.9056C48.2847 34.7101 47.6205 35.1499 47.3643 35.8879C47.1082 36.6259 47.3571 37.3827 47.9203 37.5782Z" fill="white"/>
<path d="M44.2831 41.3865H36.6915C36.408 41.3865 36.1777 41.1566 36.1777 40.8728C36.1777 40.5889 36.4076 40.359 36.6915 40.359H44.2831C44.5667 40.359 44.7969 40.5889 44.7969 40.8728C44.7969 41.1566 44.567 41.3865 44.2831 41.3865Z" fill="#42210B"/>
</svg>
