<svg width="95" height="85" viewBox="0 0 81 75" fill="none" xmlns="http://www.w3.org/2000/svg">
<rect x="0.359375" y="0.281128" width="80.2619" height="73.7553" rx="9.28012" fill="#FCEFCB"/>
<path d="M65.9169 31.978C65.111 29.71 49.7868 27.7493 49.7868 27.7493C49.7868 27.7493 42.9972 13.7188 40.4855 13.7188C37.9737 13.7188 31.1841 27.7493 31.1841 27.7493C31.1841 27.7493 15.8599 29.7097 15.0541 31.978C14.2483 34.2459 25.757 45.1793 25.757 45.1793C25.757 45.1793 22.7766 58.8797 25.1111 60.4194C27.4456 61.9591 40.4858 53.0933 40.4858 53.0933C40.4858 53.0933 53.526 61.9591 55.8605 60.4194C58.1946 58.8797 55.2146 45.1793 55.2146 45.1793C55.2146 45.1793 66.7227 34.2459 65.9169 31.978Z" fill="#F9BA06"/>
<path d="M49.7877 27.7493C49.7877 27.7493 42.9981 13.7188 40.4864 13.7188C37.9747 13.7188 31.1847 27.7493 31.1847 27.7493C31.1847 27.7493 15.8605 29.7097 15.0547 31.978H65.9174C65.112 29.71 49.7877 27.7493 49.7877 27.7493Z" fill="#FFD400"/>
<path d="M40.487 14.9717C38.0561 14.9717 31.4853 28.1519 31.4853 28.1519C31.4853 28.1519 16.6547 29.9935 15.875 32.1242C15.0954 34.2549 26.2329 44.5258 26.2329 44.5258C26.2329 44.5258 23.3484 57.396 25.6078 58.8424C27.8672 60.2887 40.487 51.1246 40.487 51.1246C40.487 51.1246 53.1072 60.2887 55.3663 58.8424C57.6257 57.396 54.7412 44.5258 54.7412 44.5258C54.7412 44.5258 65.879 34.2549 65.0991 32.1242C64.3191 29.9935 49.4888 28.1519 49.4888 28.1519C49.4888 28.1519 42.9177 14.9717 40.487 14.9717Z" fill="#FFD400"/>
<path d="M40.4869 14.9717C38.0559 14.9717 31.4852 28.1519 31.4852 28.1519C31.4852 28.1519 16.2366 29.9935 15.457 32.1242C14.6774 34.2549 27.9046 44.5258 27.9046 44.5258C27.9046 44.5258 25.8209 54.937 28.4758 55.5289C31.3325 56.1657 37.3674 49.9163 40.3973 48.7677C41.5775 48.3205 51.0248 56.7148 53.0695 55.5743C55.4049 54.2718 52.234 44.5261 52.234 44.5261C52.234 44.5261 66.297 34.2553 65.5174 32.1245C64.7375 29.9938 49.4892 28.1523 49.4892 28.1523C49.4892 28.1523 42.9176 14.9717 40.4869 14.9717Z" fill="#FFE000"/>
<path d="M40.435 43.2658C23.8006 43.2658 15.6507 33.7377 16.2408 32.1251C17.0208 29.9944 31.4332 28.1529 31.4332 28.1529C31.4332 28.1529 38.0043 14.1368 40.435 14.1368C42.8659 14.1368 49.4367 28.1529 49.4367 28.1529L59.3571 29.8395C59.9475 31.4518 55.5965 43.2658 40.435 43.2658Z" fill="#FFF200"/>
<path d="M25.6186 32.6853C27.8936 32.3418 29.6448 31.4476 29.5302 30.6881C29.4155 29.9285 27.4783 29.5913 25.2032 29.9348C22.9282 30.2783 21.177 31.1725 21.2916 31.932C21.4063 32.6916 23.3435 33.0288 25.6186 32.6853Z" fill="white"/>
<path d="M19.1832 33.6494C19.9439 33.5345 20.5001 33.0405 20.4253 32.546C20.3506 32.0515 19.6734 31.7438 18.9126 31.8588C18.1519 31.9737 17.5957 32.4677 17.6704 32.9622C17.7451 33.4567 18.4224 33.7644 19.1832 33.6494Z" fill="white"/>
<path d="M35.2608 21.964C33.9361 24.3282 33.2673 26.4718 33.7669 26.7518C34.2666 27.0317 35.7455 25.342 37.0702 22.9777C38.3949 20.6134 39.0637 18.4698 38.5641 18.1899C38.0645 17.91 36.5855 19.5997 35.2608 21.964Z" fill="white"/>
<path d="M29.7346 42.9314C31.4143 42.9314 32.7759 42.359 32.7759 41.6528C32.7759 40.9467 31.4143 40.3743 29.7346 40.3743C28.055 40.3743 26.6934 40.9467 26.6934 41.6528C26.6934 42.359 28.055 42.9314 29.7346 42.9314Z" fill="#FF6B86"/>
<path d="M51.2502 42.9313C52.9299 42.9313 54.2915 42.3589 54.2915 41.6527C54.2915 40.9466 52.9299 40.3741 51.2502 40.3741C49.5706 40.3741 48.209 40.9466 48.209 41.6527C48.209 42.3589 49.5706 42.9313 51.2502 42.9313Z" fill="#FF6B86"/>
<path d="M52.1234 35.8095L53.975 34.1541L51.2012 34.5694L52.4801 37.213L54.5152 35.8653L52.1234 35.8095Z" fill="#42210B"/>
<path d="M28.8606 35.8093L27.009 34.1538L29.7831 34.5692L28.5042 37.2127L26.4688 35.8651L28.8606 35.8093Z" fill="#42210B"/>
<path d="M31.4645 40.1463C33.16 40.1463 34.5344 38.7718 34.5344 37.0763C34.5344 35.3808 33.16 34.0063 31.4645 34.0063C29.769 34.0063 28.3945 35.3808 28.3945 37.0763C28.3945 38.7718 29.769 40.1463 31.4645 40.1463Z" fill="#42210B"/>
<path d="M32.4181 39.6061C32.8248 39.6061 33.1545 39.2764 33.1545 38.8697C33.1545 38.463 32.8248 38.1333 32.4181 38.1333C32.0113 38.1333 31.6816 38.463 31.6816 38.8697C31.6816 39.2764 32.0113 39.6061 32.4181 39.6061Z" fill="white"/>
<path d="M29.8796 37.57C30.4429 37.7655 31.1071 37.3256 31.3632 36.5876C31.6192 35.8496 31.3702 35.0929 30.807 34.8975C30.2437 34.702 29.5795 35.1419 29.3234 35.8799C29.0674 36.6179 29.3164 37.3746 29.8796 37.57Z" fill="white"/>
<path d="M49.5153 40.1464C51.2108 40.1464 52.5852 38.7719 52.5852 37.0764C52.5852 35.3809 51.2108 34.0065 49.5153 34.0065C47.8198 34.0065 46.4453 35.3809 46.4453 37.0764C46.4453 38.7719 47.8198 40.1464 49.5153 40.1464Z" fill="#42210B"/>
<path d="M50.4669 39.6061C50.8736 39.6061 51.2033 39.2764 51.2033 38.8697C51.2033 38.463 50.8736 38.1333 50.4669 38.1333C50.0602 38.1333 49.7305 38.463 49.7305 38.8697C49.7305 39.2764 50.0602 39.6061 50.4669 39.6061Z" fill="white"/>
<path d="M47.9265 37.57C48.4898 37.7655 49.154 37.3256 49.41 36.5876C49.6661 35.8496 49.4171 35.0929 48.8538 34.8975C48.2906 34.702 47.6264 35.1419 47.3703 35.8799C47.1142 36.6179 47.3632 37.3746 47.9265 37.57Z" fill="white"/>
<path d="M44.0129 39.3874C44.5812 39.3666 45.0003 39.9185 44.8256 40.4594C44.1573 42.5261 42.4892 43.9955 40.5253 44.0034C38.4857 44.0119 36.7499 42.5649 36.1181 40.4118C35.9601 39.8728 36.3705 39.3344 36.9318 39.3508C38.6441 39.4007 42.0732 39.459 44.0129 39.3874Z" fill="#42210B"/>
<path d="M40.4659 42.0813C41.553 40.8857 43.3986 42.3036 43.5106 42.3913C42.7045 43.217 41.6605 43.7194 40.516 43.7244C39.3759 43.7292 38.331 43.2391 37.5195 42.4257C37.6965 42.0646 39.6496 41.1026 40.4659 42.0813Z" fill="#F94B68"/>
</svg>
