<svg width="95" height="85" viewBox="0 0 81 75" fill="none" xmlns="http://www.w3.org/2000/svg">
<rect x="0.359375" y="0.281372" width="80.2619" height="73.755" rx="9.28012" fill="#FCEFCB"/>
<path d="M65.9188 31.978C65.113 29.7101 49.7888 27.7496 49.7888 27.7496C49.7888 27.7496 42.9992 13.7191 40.4874 13.7191C37.9757 13.7191 31.1861 27.7496 31.1861 27.7496C31.1861 27.7496 15.8619 29.7101 15.056 31.978C14.2502 34.2459 25.7589 45.1794 25.7589 45.1794C25.7589 45.1794 22.7786 58.8797 25.113 60.4194C27.4475 61.9591 40.4877 53.0933 40.4877 53.0933C40.4877 53.0933 53.528 61.9591 55.8624 60.4194C58.1966 58.8797 55.2165 45.1794 55.2165 45.1794C55.2165 45.1794 66.7246 34.2459 65.9188 31.978Z" fill="#F9BA06"/>
<path d="M49.7877 27.7494C49.7877 27.7494 42.9981 13.7189 40.4864 13.7189C37.9747 13.7189 31.1847 27.7494 31.1847 27.7494C31.1847 27.7494 15.8605 29.7098 15.0547 31.9778H65.9174C65.112 29.7098 49.7877 27.7494 49.7877 27.7494Z" fill="#FFD400"/>
<path d="M40.489 14.972C38.058 14.972 31.4873 28.1526 31.4873 28.1526C31.4873 28.1526 16.657 29.9941 15.877 32.1249C15.0971 34.2556 26.2349 44.5264 26.2349 44.5264C26.2349 44.5264 23.3504 57.3967 25.6098 58.843C27.8689 60.2897 40.489 51.1253 40.489 51.1253C40.489 51.1253 53.1092 60.2897 55.3683 58.843C57.6277 57.3967 54.7432 44.5264 54.7432 44.5264C54.7432 44.5264 65.881 34.2556 65.101 32.1249C64.3211 29.9945 49.4908 28.1526 49.4908 28.1526C49.4908 28.1526 42.9197 14.972 40.489 14.972Z" fill="#FFD400"/>
<path d="M40.485 14.9724C38.054 14.9724 31.4832 28.153 31.4832 28.153C31.4832 28.153 16.2347 29.9945 15.4551 32.1253C14.6751 34.256 27.9027 44.5268 27.9027 44.5268C27.9027 44.5268 25.8189 54.938 28.4738 55.5297C31.3306 56.1667 37.3655 49.9171 40.3954 48.7684C41.5756 48.3212 51.0229 56.7155 53.0676 55.5751C55.403 54.2722 52.2321 44.5268 52.2321 44.5268C52.2321 44.5268 66.2951 34.256 65.5155 32.1253C64.7355 29.9948 49.4873 28.153 49.4873 28.153C49.4873 28.153 42.9156 14.9724 40.485 14.9724Z" fill="#FFE000"/>
<path d="M40.4369 43.2652C23.8026 43.2655 15.6527 33.7371 16.2428 32.1245C17.0227 29.9941 31.4352 28.1523 31.4352 28.1523C31.4352 28.1523 38.0062 14.1362 40.4369 14.1362C42.8679 14.1362 49.4386 28.1523 49.4386 28.1523L59.3591 29.8386C59.9495 31.4512 55.5984 43.2652 40.4369 43.2652Z" fill="#FFF200"/>
<path d="M25.6146 32.687C27.8897 32.3435 29.6409 31.4493 29.5263 30.6898C29.4116 29.9303 27.4743 29.593 25.1993 29.9365C22.9243 30.28 21.173 31.1742 21.2877 31.9337C21.4024 32.6933 23.3396 33.0305 25.6146 32.687Z" fill="white"/>
<path d="M19.183 33.6516C19.9437 33.5368 20.4999 33.0428 20.4252 32.5483C20.3506 32.0539 19.6734 31.7461 18.9126 31.861C18.1519 31.9759 17.5957 32.4698 17.6703 32.9643C17.745 33.4588 18.4222 33.7665 19.183 33.6516Z" fill="white"/>
<path d="M35.2629 21.9644C33.9383 24.3285 33.2696 26.472 33.7692 26.7519C34.2688 27.0319 35.7477 25.3423 37.0723 22.9782C38.3969 20.614 39.0657 18.4706 38.566 18.1906C38.0664 17.9107 36.5876 19.6003 35.2629 21.9644Z" fill="white"/>
<path d="M29.7307 42.932C31.4104 42.932 32.772 42.3595 32.772 41.6532C32.772 40.9468 31.4104 40.3743 29.7307 40.3743C28.0511 40.3743 26.6895 40.9468 26.6895 41.6532C26.6895 42.3595 28.0511 42.932 29.7307 42.932Z" fill="#FF6B86"/>
<path d="M51.2444 42.9317C52.924 42.9317 54.2856 42.3591 54.2856 41.6528C54.2856 40.9465 52.924 40.3739 51.2444 40.3739C49.5647 40.3739 48.2031 40.9465 48.2031 41.6528C48.2031 42.3591 49.5647 42.9317 51.2444 42.9317Z" fill="#FF6B86"/>
<path d="M44.0285 39.3875C44.5968 39.3667 45.016 39.9187 44.8412 40.4592C44.1729 42.5263 42.5049 43.9953 40.541 44.0032C38.5014 44.0117 36.7655 42.5647 36.1338 40.4116C35.9758 39.8723 36.3861 39.3343 36.9475 39.351C38.6597 39.4008 42.0889 39.4591 44.0285 39.3875Z" fill="#42210B"/>
<path d="M40.4834 42.0813C41.5706 40.8857 43.4162 42.3036 43.5278 42.3913C42.722 43.2167 41.6781 43.7194 40.5336 43.7244C39.3935 43.7292 38.3486 43.2391 37.5371 42.4257C37.714 42.0646 39.6672 41.103 40.4834 42.0813Z" fill="#F94B68"/>
<path d="M32.2258 34.2259C32.2258 34.2259 31.0853 31.9535 29.205 32.9606C26.0367 34.6576 32.1403 39.2667 32.1403 39.2667C32.1403 39.2667 38.3966 34.8667 35.2875 33.0637C33.4425 31.9936 32.2258 34.2259 32.2258 34.2259Z" fill="#ED1C24"/>
<path d="M48.7531 34.2258C48.7531 34.2258 47.6127 31.9534 45.7324 32.9604C42.564 34.6575 48.6677 39.2666 48.6677 39.2666C48.6677 39.2666 54.9239 34.8666 51.8149 33.0636C49.9699 31.9935 48.7531 34.2258 48.7531 34.2258Z" fill="#ED1C24"/>
</svg>
