<svg width="90" height="88" viewBox="0 0 67 62" fill="none" xmlns="http://www.w3.org/2000/svg">
<rect x="0.669922" y="0.839355" width="65.641" height="60.3195" rx="30.1597" fill="#FCEFCB" fill-opacity="0.5"/>
<path d="M50.6044 27.5126C50.0622 25.9864 39.7499 24.6672 39.7499 24.6672C39.7499 24.6672 35.1809 15.2255 33.4906 15.2255C31.8004 15.2255 27.2314 24.6672 27.2314 24.6672C27.2314 24.6672 16.9191 25.9864 16.3768 27.5126C15.8346 29.0388 23.5792 36.3964 23.5792 36.3964C23.5792 36.3964 21.5736 45.6159 23.1446 46.652C24.7155 47.6882 33.4908 41.722 33.4908 41.722C33.4908 41.722 42.2661 47.6882 43.8371 46.652C45.4079 45.6159 43.4025 36.3964 43.4025 36.3964C43.4025 36.3964 51.1467 29.0388 50.6044 27.5126Z" fill="#F9BA06"/>
<path d="M39.7502 24.6671C39.7502 24.6671 35.1812 15.2253 33.491 15.2253C31.8007 15.2253 27.2315 24.6671 27.2315 24.6671C27.2315 24.6671 16.9192 25.9863 16.377 27.5125H50.6046C50.0625 25.9863 39.7502 24.6671 39.7502 24.6671Z" fill="#FFD400"/>
<path d="M33.4872 16.0687C31.8513 16.0687 27.4296 24.9385 27.4296 24.9385C27.4296 24.9385 17.4496 26.1777 16.9248 27.6116C16.3999 29.0454 23.895 35.9571 23.895 35.9571C23.895 35.9571 21.9539 44.618 23.4744 45.5913C24.9946 46.5648 33.4872 40.3977 33.4872 40.3977C33.4872 40.3977 41.9798 46.5648 43.5 45.5913C45.0205 44.618 43.0794 35.9571 43.0794 35.9571C43.0794 35.9571 50.5745 29.0454 50.0496 27.6116C49.5248 26.1779 39.5448 24.9385 39.5448 24.9385C39.5448 24.9385 35.1229 16.0687 33.4872 16.0687Z" fill="#FFD400"/>
<path d="M33.489 16.0691C31.8531 16.0691 27.4314 24.9388 27.4314 24.9388C27.4314 24.9388 17.17 26.1781 16.6454 27.6119C16.1205 29.0458 25.0219 35.9575 25.0219 35.9575C25.0219 35.9575 23.6196 42.9636 25.4062 43.3617C27.3287 43.7904 31.3898 39.5848 33.4287 38.8118C34.2229 38.5109 40.5804 44.1597 41.9564 43.3923C43.528 42.5155 41.3942 35.9575 41.3942 35.9575C41.3942 35.9575 50.8577 29.0458 50.3331 27.6119C49.8082 26.1783 39.5471 24.9388 39.5471 24.9388C39.5471 24.9388 35.1247 16.0691 33.489 16.0691Z" fill="#FFE000"/>
<path d="M33.4595 35.1081C22.2656 35.1083 16.7812 28.6962 17.1783 27.611C17.7032 26.1774 27.4019 24.9379 27.4019 24.9379C27.4019 24.9379 31.8238 15.506 33.4595 15.506C35.0954 15.506 39.5172 24.9379 39.5172 24.9379L46.193 26.0728C46.5903 27.1579 43.6623 35.1081 33.4595 35.1081Z" fill="#FFF200"/>
<path d="M23.4792 27.9898C25.0102 27.7586 26.1887 27.1569 26.1115 26.6457C26.0343 26.1346 24.7307 25.9077 23.1998 26.1388C21.6688 26.37 20.4903 26.9717 20.5675 27.4828C20.6446 27.994 21.9483 28.2209 23.4792 27.9898Z" fill="white"/>
<path d="M19.1519 28.639C19.6638 28.5617 20.0381 28.2293 19.9878 27.8966C19.9376 27.5638 19.4819 27.3567 18.9699 27.434C18.458 27.5113 18.0837 27.8437 18.1339 28.1765C18.1842 28.5092 18.6399 28.7163 19.1519 28.639Z" fill="white"/>
<path d="M29.9731 20.7742C29.0817 22.3652 28.6317 23.8076 28.9679 23.996C29.3041 24.1843 30.2993 23.0474 31.1907 21.4564C32.0821 19.8655 32.5321 18.4231 32.1959 18.2347C31.8597 18.0463 30.8645 19.1833 29.9731 20.7742Z" fill="white"/>
</svg>
