<svg width="383" height="216" viewBox="0 0 383 216" fill="none" xmlns="http://www.w3.org/2000/svg">
<path d="M366.135 0H48.865C39.551 0 32 7.55 32 16.865V198.162C32 207.476 39.55 215.027 48.865 215.027H366.135C375.449 215.027 383 207.476 383 198.162V16.865C383 7.551 375.449 0 366.135 0Z" fill="white"/>
<path d="M122.395 175.101H51.323C50.7765 175.101 50.2526 175.318 49.8663 175.705C49.48 176.091 49.263 176.616 49.263 177.162V192.821C49.2629 193.092 49.316 193.36 49.4195 193.61C49.523 193.86 49.6747 194.087 49.866 194.278C50.0573 194.47 50.2844 194.621 50.5344 194.725C50.7844 194.829 51.0524 194.882 51.323 194.882H122.395C122.666 194.882 122.934 194.829 123.184 194.725C123.434 194.621 123.661 194.47 123.852 194.278C124.044 194.087 124.196 193.86 124.299 193.61C124.403 193.36 124.456 193.092 124.456 192.821V177.162C124.456 176.616 124.239 176.091 123.853 175.705C123.466 175.318 122.942 175.101 122.396 175.101H122.395Z" stroke="#00805F" stroke-width="0.697"/>
<path d="M66.263 186.662L65.131 181.919H66.111L66.826 185.177L67.693 181.919H68.833L69.663 185.232L70.392 181.919H71.356L70.204 186.662H69.188L68.243 183.116L67.302 186.662H66.262H66.263ZM72.562 186.662H71.652V183.226H72.497V183.715C72.642 183.484 72.771 183.332 72.885 183.259C73.0033 183.185 73.1405 183.147 73.28 183.149C73.487 183.149 73.687 183.206 73.879 183.32L73.597 184.113C73.4719 184.023 73.3237 183.972 73.17 183.964C73.0528 183.961 72.9381 183.998 72.846 184.071C72.758 184.14 72.688 184.266 72.636 184.449C72.586 184.633 72.562 185.017 72.562 185.601V186.662ZM74.247 182.761V181.919H75.156V182.761H74.246H74.247ZM74.247 186.662V183.226H75.156V186.662H74.246H74.247ZM77.64 183.226V183.951H77.019V185.336C77.019 185.616 77.024 185.78 77.035 185.828C77.0481 185.874 77.0763 185.913 77.115 185.941C77.1611 185.972 77.2156 185.987 77.271 185.986C77.355 185.986 77.477 185.957 77.637 185.899L77.715 186.604C77.487 186.698 77.242 186.744 76.995 186.74C76.832 186.74 76.684 186.713 76.553 186.659C76.4384 186.616 76.3378 186.542 76.262 186.446C76.1945 186.338 76.1515 186.216 76.136 186.09C76.116 185.984 76.106 185.77 76.106 185.449V183.951H75.689V183.226H76.106V182.544L77.019 182.013V183.226H77.639H77.64ZM80.234 185.569L81.14 185.721C81.024 186.053 80.84 186.306 80.587 186.481C80.337 186.654 80.023 186.74 79.645 186.74C79.048 186.74 78.605 186.545 78.319 186.154C78.092 185.842 77.979 185.447 77.979 184.97C77.979 184.401 78.128 183.955 78.426 183.634C78.5679 183.476 78.7423 183.351 78.9372 183.267C79.1321 183.184 79.3429 183.143 79.555 183.149C80.065 183.149 80.469 183.318 80.765 183.657C81.06 183.993 81.202 184.51 81.189 185.206H78.909C78.916 185.476 78.989 185.686 79.129 185.837C79.1958 185.909 79.277 185.966 79.3672 186.005C79.4575 186.043 79.5548 186.062 79.653 186.061C79.783 186.065 79.9103 186.024 80.013 185.944C80.11 185.866 80.183 185.741 80.233 185.569H80.234ZM80.286 184.65C80.279 184.387 80.211 184.187 80.082 184.051C80.0223 183.985 79.9494 183.933 79.8681 183.897C79.7867 183.861 79.6988 183.843 79.61 183.844C79.517 183.841 79.4247 183.86 79.3396 183.897C79.2545 183.935 79.1788 183.991 79.118 184.061C78.988 184.206 78.925 184.402 78.928 184.65H80.286ZM84.403 184.275L83.578 184.126C83.671 183.794 83.831 183.548 84.058 183.388C84.284 183.229 84.62 183.149 85.066 183.149C85.472 183.149 85.774 183.197 85.972 183.294C86.171 183.389 86.31 183.511 86.39 183.66C86.472 183.807 86.513 184.077 86.513 184.472L86.503 185.533C86.503 185.835 86.517 186.058 86.545 186.203C86.575 186.345 86.63 186.498 86.71 186.662H85.81C85.7772 186.574 85.7482 186.484 85.723 186.394C85.7136 186.358 85.7029 186.322 85.691 186.287C85.5472 186.43 85.3784 186.545 85.193 186.627C85.014 186.703 84.8214 186.741 84.627 186.74C84.273 186.74 83.993 186.644 83.789 186.452C83.6897 186.359 83.6112 186.246 83.5586 186.121C83.5061 185.995 83.4806 185.86 83.484 185.724C83.481 185.542 83.5295 185.362 83.624 185.206C83.7158 185.054 83.8509 184.932 84.012 184.857C84.18 184.775 84.422 184.704 84.736 184.644C85.161 184.564 85.456 184.489 85.62 184.42V184.33C85.62 184.155 85.577 184.031 85.49 183.958C85.404 183.882 85.24 183.844 85.002 183.844C84.8683 183.836 84.7354 183.87 84.622 183.941C84.532 184.004 84.459 184.115 84.402 184.275H84.403ZM85.62 185.012C85.4382 185.068 85.2536 185.114 85.067 185.151C84.814 185.205 84.649 185.258 84.572 185.31C84.5176 185.344 84.4728 185.391 84.4416 185.447C84.4105 185.503 84.3941 185.566 84.394 185.63C84.394 185.758 84.441 185.868 84.536 185.96C84.5841 186.006 84.6408 186.042 84.703 186.066C84.7651 186.09 84.8314 186.101 84.898 186.099C85.062 186.099 85.218 186.045 85.368 185.938C85.4712 185.864 85.5471 185.758 85.584 185.637C85.608 185.559 85.62 185.411 85.62 185.194V185.012ZM90.074 186.662H89.164V183.226H90.009V183.715C90.153 183.484 90.283 183.332 90.397 183.259C90.5153 183.185 90.6525 183.147 90.792 183.149C90.999 183.149 91.198 183.206 91.39 183.32L91.109 184.113C90.9839 184.023 90.8357 183.972 90.682 183.964C90.5648 183.961 90.4501 183.998 90.358 184.071C90.27 184.14 90.2 184.266 90.148 184.449C90.098 184.633 90.074 185.017 90.074 185.601V186.662ZM93.748 185.569L94.654 185.721C94.538 186.053 94.354 186.306 94.101 186.481C93.851 186.654 93.537 186.74 93.16 186.74C92.562 186.74 92.12 186.545 91.833 186.154C91.606 185.842 91.493 185.447 91.493 184.97C91.493 184.401 91.643 183.955 91.94 183.634C92.0819 183.476 92.2563 183.351 92.4512 183.267C92.6461 183.184 92.8569 183.143 93.069 183.149C93.579 183.149 93.983 183.318 94.279 183.657C94.574 183.993 94.716 184.51 94.703 185.206H92.425C92.432 185.476 92.505 185.686 92.645 185.837C92.7115 185.909 92.7926 185.967 92.8829 186.005C92.9733 186.044 93.0708 186.063 93.169 186.061C93.299 186.065 93.4263 186.024 93.529 185.944C93.625 185.866 93.699 185.741 93.749 185.569H93.748ZM93.8 184.65C93.794 184.387 93.726 184.187 93.596 184.051C93.5363 183.985 93.4634 183.933 93.3821 183.897C93.3007 183.861 93.2128 183.843 93.124 183.844C93.031 183.841 92.9387 183.86 92.8536 183.897C92.7685 183.935 92.6928 183.991 92.632 184.061C92.502 184.206 92.439 184.402 92.442 184.65H93.8ZM96.365 186.662L94.98 183.226H95.935L96.582 184.98L96.77 185.566C96.82 185.417 96.85 185.319 96.863 185.271C96.893 185.174 96.926 185.077 96.96 184.98L97.614 183.226H98.549L97.184 186.662H96.364H96.365ZM99.082 182.761V181.919H99.992V182.761H99.082ZM99.082 186.662V183.226H99.992V186.662H99.082ZM102.89 185.569L103.795 185.721C103.679 186.053 103.495 186.306 103.242 186.481C102.992 186.654 102.678 186.74 102.301 186.74C101.703 186.74 101.261 186.545 100.974 186.154C100.748 185.842 100.634 185.447 100.634 184.97C100.634 184.401 100.784 183.955 101.081 183.634C101.223 183.476 101.398 183.351 101.593 183.268C101.788 183.184 101.999 183.143 102.211 183.149C102.721 183.149 103.125 183.318 103.421 183.657C103.716 183.993 103.857 184.51 103.844 185.206H101.566C101.573 185.476 101.646 185.686 101.786 185.837C101.852 185.909 101.934 185.967 102.024 186.005C102.114 186.044 102.212 186.063 102.31 186.061C102.44 186.065 102.567 186.024 102.67 185.944C102.767 185.866 102.84 185.741 102.89 185.569ZM102.94 184.65C102.935 184.387 102.867 184.187 102.737 184.051C102.677 183.985 102.604 183.933 102.523 183.897C102.442 183.861 102.354 183.843 102.265 183.844C102.172 183.841 102.08 183.86 101.995 183.897C101.909 183.935 101.834 183.991 101.773 184.061C101.643 184.206 101.58 184.402 101.583 184.65H102.941H102.94ZM105.202 186.662L104.115 183.226H104.998L105.642 185.478L106.234 183.226H107.111L107.684 185.478L108.341 183.226H109.237L108.133 186.662H107.26L106.668 184.453L106.085 186.662H105.202Z" fill="#00805F"/>
<path d="M57.644 91.14C57.6281 91.0872 57.5978 91.04 57.5564 91.0036C57.5151 90.9672 57.4643 90.9431 57.41 90.934L55.556 90.652L54.726 88.894C54.7032 88.8439 54.6667 88.8013 54.6207 88.7712C54.5746 88.7411 54.521 88.7248 54.466 88.724C54.411 88.7248 54.3573 88.7411 54.3113 88.7712C54.2653 88.8013 54.2287 88.8439 54.206 88.894L53.376 90.652L51.523 90.934C51.4683 90.943 51.4173 90.9671 51.3758 91.0037C51.3342 91.0403 51.3038 91.0879 51.288 91.141C51.2714 91.1947 51.2694 91.2519 51.2825 91.3066C51.2955 91.3613 51.3229 91.4115 51.362 91.452L52.703 92.821L52.387 94.754C52.3775 94.8093 52.3832 94.8661 52.4034 94.9184C52.4237 94.9707 52.4578 95.0165 52.502 95.051C52.5452 95.0842 52.5972 95.1041 52.6516 95.1082C52.7059 95.1122 52.7603 95.1004 52.808 95.074L54.466 94.161L56.125 95.074C56.1668 95.0966 56.2135 95.1087 56.261 95.109C56.3059 95.1082 56.3501 95.0972 56.3902 95.0768C56.4302 95.0565 56.4652 95.0273 56.4923 94.9915C56.5195 94.9557 56.5381 94.9141 56.5469 94.8701C56.5557 94.826 56.5544 94.7805 56.543 94.737L56.229 92.821L57.571 91.452C57.6099 91.4114 57.6372 91.3612 57.65 91.3065C57.6628 91.2518 57.6608 91.1946 57.644 91.141V91.14ZM65.595 91.14C65.5791 91.0872 65.5488 91.04 65.5074 91.0036C65.4661 90.9672 65.4153 90.9431 65.361 90.934L63.507 90.652L62.677 88.894C62.6542 88.8439 62.6177 88.8013 62.5717 88.7712C62.5256 88.7411 62.472 88.7248 62.417 88.724C62.362 88.7248 62.3083 88.7411 62.2623 88.7712C62.2163 88.8013 62.1797 88.8439 62.157 88.894L61.327 90.652L59.473 90.934C59.4185 90.943 59.3676 90.9672 59.3262 91.0038C59.2848 91.0405 59.2546 91.088 59.239 91.141C59.2221 91.1946 59.22 91.2518 59.2328 91.3065C59.2457 91.3612 59.273 91.4115 59.312 91.452L60.654 92.821L60.337 94.754C60.3276 94.8094 60.3335 94.8662 60.3539 94.9186C60.3743 94.9709 60.4086 95.0166 60.453 95.051C60.4961 95.084 60.5479 95.1037 60.6021 95.1078C60.6562 95.1119 60.7104 95.1002 60.758 95.074L62.417 94.161L64.075 95.074C64.1168 95.0966 64.1635 95.1087 64.211 95.109C64.371 95.109 64.501 94.973 64.501 94.805C64.5011 94.7822 64.4987 94.7594 64.494 94.737L64.18 92.821L65.522 91.452C65.5609 91.4114 65.5882 91.3612 65.601 91.3065C65.6138 91.2518 65.6118 91.1946 65.595 91.141V91.14ZM73.546 91.14C73.5303 91.087 73.4998 91.0395 73.4583 91.0031C73.4167 90.9666 73.3656 90.9427 73.311 90.934L71.457 90.652L70.627 88.894C70.6042 88.8439 70.5677 88.8013 70.5217 88.7712C70.4756 88.7411 70.422 88.7248 70.367 88.724C70.312 88.7248 70.2583 88.7411 70.2123 88.7712C70.1663 88.8013 70.1297 88.8439 70.107 88.894L69.278 90.652L67.424 90.934C67.3695 90.943 67.3186 90.9672 67.2772 91.0038C67.2358 91.0405 67.2056 91.088 67.19 91.141C67.1731 91.1946 67.171 91.2518 67.1838 91.3065C67.1967 91.3612 67.224 91.4115 67.263 91.452L68.605 92.821L68.288 94.754C68.2785 94.8093 68.2842 94.8661 68.3044 94.9184C68.3247 94.9707 68.3588 95.0165 68.403 95.051C68.4463 95.084 68.4983 95.1037 68.5526 95.1078C68.6069 95.1118 68.6612 95.1001 68.709 95.074L70.368 94.161L72.026 95.074C72.0678 95.0966 72.1145 95.1087 72.162 95.109C72.2069 95.1082 72.2511 95.0972 72.2912 95.0768C72.3312 95.0565 72.3662 95.0273 72.3933 94.9915C72.4205 94.9557 72.4391 94.9141 72.4479 94.8701C72.4567 94.826 72.4554 94.7805 72.444 94.737L72.13 92.821L73.472 91.452C73.511 91.4115 73.5384 91.3613 73.5514 91.3066C73.5644 91.2519 73.5625 91.1947 73.546 91.141V91.14ZM81.496 91.14C81.4801 91.0872 81.4498 91.04 81.4084 91.0036C81.3671 90.9672 81.3163 90.9431 81.262 90.934L79.408 90.652L78.578 88.894C78.5552 88.8439 78.5187 88.8013 78.4727 88.7712C78.4266 88.7411 78.373 88.7248 78.318 88.724C78.263 88.7248 78.2093 88.7411 78.1633 88.7712C78.1173 88.8013 78.0807 88.8439 78.058 88.894L77.228 90.652L75.374 90.934C75.3195 90.943 75.2686 90.9672 75.2272 91.0038C75.1858 91.0405 75.1556 91.088 75.14 91.141C75.1232 91.1947 75.1213 91.2519 75.1343 91.3067C75.1473 91.3614 75.1749 91.4116 75.214 91.452L76.555 92.821L76.239 94.754C76.2295 94.8093 76.2352 94.8661 76.2554 94.9184C76.2757 94.9707 76.3098 95.0165 76.354 95.051C76.3973 95.084 76.4493 95.1037 76.5036 95.1078C76.5579 95.1118 76.6122 95.1001 76.66 95.074L78.318 94.161L79.977 95.074C80.019 95.097 80.067 95.109 80.113 95.109C80.1579 95.1082 80.2021 95.0972 80.2422 95.0768C80.2822 95.0565 80.3172 95.0273 80.3443 94.9915C80.3715 94.9557 80.3901 94.9141 80.3989 94.8701C80.4077 94.826 80.4064 94.7805 80.395 94.737L80.081 92.821L81.423 91.452C81.4619 91.4114 81.4892 91.3612 81.502 91.3065C81.5148 91.2518 81.5128 91.1946 81.496 91.141V91.14ZM89.447 91.14C89.4313 91.087 89.4008 91.0395 89.3593 91.0031C89.3177 90.9666 89.2666 90.9427 89.212 90.934L87.358 90.652L86.529 88.894C86.5062 88.8439 86.4697 88.8013 86.4237 88.7712C86.3776 88.7411 86.324 88.7248 86.269 88.724C86.214 88.7248 86.1604 88.7411 86.1143 88.7712C86.0683 88.8013 86.0317 88.8439 86.009 88.894L85.179 90.652L83.325 90.934C83.2705 90.943 83.2196 90.9672 83.1782 91.0038C83.1368 91.0405 83.1066 91.088 83.091 91.141C83.0741 91.1946 83.072 91.2518 83.0848 91.3065C83.0977 91.3612 83.125 91.4115 83.164 91.452L84.506 92.821L84.189 94.754C84.1795 94.8093 84.1852 94.8661 84.2054 94.9184C84.2257 94.9707 84.2598 95.0165 84.304 95.051C84.3473 95.084 84.3993 95.1037 84.4536 95.1078C84.5079 95.1118 84.5622 95.1001 84.61 95.074L86.269 94.161L87.927 95.074C87.9688 95.0966 88.0155 95.1087 88.063 95.109C88.223 95.109 88.353 94.973 88.353 94.805C88.3531 94.7821 88.3508 94.7593 88.346 94.737L88.032 92.821L89.373 91.452C89.4121 91.4116 89.4397 91.3614 89.4527 91.3067C89.4657 91.2519 89.4637 91.1947 89.447 91.141V91.14Z" fill="#FFBA32"/>
<path d="M209.077 88.429H95.564C95.3327 88.429 95.1109 88.5208 94.9474 88.6844C94.7839 88.8479 94.692 89.0697 94.692 89.301V94.532C94.692 95.013 95.082 95.404 95.564 95.404H209.077C209.558 95.404 209.949 95.014 209.949 94.532V89.301C209.949 89.0697 209.857 88.8479 209.694 88.6844C209.53 88.5208 209.308 88.429 209.077 88.429V88.429Z" stroke="#FFBA32" stroke-width="0.349"/>
<path d="M94.518 89.3C94.518 88.723 94.986 88.254 95.564 88.254H158.63V95.578H95.564C95.4266 95.5782 95.2905 95.5512 95.1636 95.4987C95.0366 95.4462 94.9212 95.3691 94.8241 95.272C94.7269 95.1748 94.6499 95.0594 94.5974 94.9325C94.5448 94.8055 94.5179 94.6694 94.518 94.532V89.3Z" fill="#FFBA32"/>
<path d="M214.383 92.5057V91.8842L216.583 88.4091H217.072V89.3239H216.762L215.188 91.8146V91.8544H218.203V92.5057H214.383ZM216.797 93.5V92.3168L216.801 92.0334V88.4091H217.53V93.5H216.797ZM220.75 93.5696C220.439 93.5696 220.159 93.5099 219.91 93.3906C219.663 93.2696 219.466 93.1039 219.318 92.8935C219.171 92.683 219.092 92.4427 219.082 92.1726H219.828C219.846 92.3913 219.943 92.5711 220.119 92.712C220.294 92.8529 220.505 92.9233 220.75 92.9233C220.946 92.9233 221.119 92.8786 221.27 92.7891C221.422 92.6979 221.541 92.5728 221.628 92.4137C221.715 92.2546 221.759 92.0732 221.759 91.8693C221.759 91.6622 221.715 91.4774 221.625 91.315C221.536 91.1526 221.412 91.025 221.255 90.9322C221.099 90.8394 220.92 90.7921 220.718 90.7905C220.564 90.7905 220.409 90.817 220.253 90.87C220.097 90.9231 219.971 90.9927 219.875 91.0788L219.172 90.9744L219.458 88.4091H222.257V89.0678H220.096L219.935 90.4922H219.965C220.064 90.3961 220.196 90.3157 220.36 90.2511C220.526 90.1864 220.703 90.1541 220.892 90.1541C221.202 90.1541 221.478 90.2279 221.72 90.3754C221.963 90.5228 222.155 90.7242 222.294 90.9794C222.435 91.233 222.504 91.5246 222.503 91.8544C222.504 92.1842 222.43 92.4783 222.279 92.7369C222.13 92.9954 221.923 93.1992 221.657 93.3484C221.394 93.4959 221.092 93.5696 220.75 93.5696Z" fill="#00805F"/>
<path d="M214 94.892H222.92V95.3693H214V94.892Z" fill="#00805F"/>
<path d="M57.644 104.884C57.6281 104.831 57.5978 104.784 57.5564 104.748C57.5151 104.711 57.4643 104.687 57.41 104.678L55.556 104.396L54.726 102.637C54.7036 102.587 54.6671 102.545 54.621 102.515C54.5749 102.485 54.5211 102.468 54.466 102.468C54.4109 102.468 54.357 102.485 54.311 102.515C54.2648 102.545 54.2283 102.587 54.206 102.637L53.376 104.396L51.523 104.678C51.4683 104.686 51.4171 104.71 51.3755 104.747C51.3339 104.783 51.3035 104.831 51.288 104.884C51.2712 104.938 51.2693 104.995 51.2823 105.05C51.2953 105.105 51.3228 105.155 51.362 105.196L52.703 106.564L52.387 108.497C52.3774 108.552 52.383 108.609 52.4033 108.661C52.4235 108.714 52.4577 108.76 52.502 108.794C52.545 108.828 52.597 108.848 52.6515 108.852C52.706 108.856 52.7604 108.844 52.808 108.817L54.466 107.905L56.126 108.817C56.168 108.841 56.216 108.852 56.261 108.852C56.3058 108.851 56.3499 108.84 56.3898 108.82C56.4298 108.8 56.4647 108.77 56.4918 108.735C56.5189 108.699 56.5376 108.658 56.5465 108.614C56.5554 108.57 56.5542 108.524 56.543 108.481L56.229 106.564L57.571 105.196C57.6099 105.155 57.6373 105.105 57.6501 105.05C57.663 104.995 57.6608 104.938 57.644 104.884ZM65.595 104.884C65.5791 104.831 65.5488 104.784 65.5074 104.748C65.4661 104.711 65.4153 104.687 65.361 104.678L63.507 104.396L62.677 102.637C62.6541 102.587 62.6175 102.545 62.5715 102.515C62.5254 102.485 62.4719 102.469 62.417 102.468C62.3621 102.469 62.3087 102.485 62.2627 102.515C62.2167 102.545 62.1801 102.587 62.157 102.637L61.327 104.396L59.473 104.678C59.4186 104.687 59.3679 104.711 59.3265 104.748C59.2852 104.784 59.2549 104.831 59.239 104.884C59.222 104.938 59.2198 104.995 59.2327 105.05C59.2455 105.105 59.2729 105.155 59.312 105.196L60.654 106.564L60.337 108.497C60.3279 108.552 60.3339 108.609 60.3543 108.661C60.3747 108.714 60.4088 108.759 60.453 108.794C60.4962 108.827 60.5478 108.847 60.602 108.852C60.6562 108.856 60.7103 108.844 60.758 108.818L62.418 107.905L64.075 108.818C64.118 108.841 64.165 108.852 64.211 108.852C64.371 108.852 64.501 108.716 64.501 108.549C64.5011 108.526 64.4988 108.503 64.494 108.481L64.18 106.564L65.522 105.196C65.5609 105.155 65.5883 105.105 65.6011 105.05C65.614 104.995 65.6118 104.938 65.595 104.884ZM73.546 104.884C73.5306 104.831 73.5002 104.783 73.4586 104.747C73.417 104.71 73.3657 104.686 73.311 104.678L71.457 104.396L70.627 102.637C70.6041 102.587 70.5675 102.545 70.5215 102.515C70.4754 102.485 70.4219 102.469 70.367 102.468C70.3121 102.469 70.2587 102.485 70.2127 102.515C70.1667 102.545 70.1301 102.587 70.107 102.637L69.278 104.396L67.424 104.678C67.3696 104.687 67.3189 104.711 67.2775 104.748C67.2362 104.784 67.2058 104.831 67.19 104.884C67.173 104.938 67.1708 104.995 67.1837 105.05C67.1965 105.105 67.2239 105.155 67.263 105.196L68.605 106.564L68.288 108.497C68.2784 108.552 68.284 108.609 68.3043 108.661C68.3245 108.714 68.3587 108.76 68.403 108.794C68.446 108.828 68.4983 108.848 68.553 108.852C68.6072 108.856 68.6613 108.844 68.709 108.818L70.369 107.905L72.026 108.818C72.069 108.841 72.116 108.852 72.162 108.852C72.2068 108.851 72.2509 108.84 72.2908 108.82C72.3308 108.8 72.3657 108.77 72.3928 108.735C72.4199 108.699 72.4386 108.658 72.4475 108.614C72.4564 108.57 72.4552 108.524 72.444 108.481L72.13 106.564L73.472 105.196C73.5109 105.155 73.5383 105.105 73.5513 105.05C73.5643 104.995 73.5625 104.938 73.546 104.884ZM81.496 104.884C81.4801 104.831 81.4498 104.784 81.4084 104.748C81.3671 104.711 81.3163 104.687 81.262 104.678L79.408 104.396L78.578 102.637C78.5551 102.587 78.5185 102.545 78.4725 102.515C78.4264 102.485 78.3729 102.469 78.318 102.468C78.2631 102.469 78.2097 102.485 78.1637 102.515C78.1177 102.545 78.0811 102.587 78.058 102.637L77.228 104.396L75.374 104.678C75.3196 104.687 75.2689 104.711 75.2275 104.748C75.1862 104.784 75.1558 104.831 75.14 104.884C75.1232 104.938 75.1213 104.995 75.1343 105.05C75.1473 105.105 75.1748 105.155 75.214 105.196L76.555 106.564L76.239 108.497C76.2294 108.552 76.235 108.609 76.2553 108.661C76.2755 108.714 76.3097 108.76 76.354 108.794C76.397 108.828 76.4493 108.848 76.504 108.852C76.5582 108.856 76.6123 108.844 76.66 108.818L78.318 107.905L79.978 108.818C80.019 108.841 80.068 108.852 80.113 108.852C80.1578 108.851 80.2019 108.84 80.2418 108.82C80.2818 108.8 80.3167 108.77 80.3438 108.735C80.3709 108.699 80.3896 108.658 80.3985 108.614C80.4074 108.57 80.4062 108.524 80.395 108.481L80.081 106.564L81.423 105.196C81.4619 105.155 81.4893 105.105 81.5021 105.05C81.515 104.995 81.5128 104.938 81.496 104.884Z" fill="#FFBA32"/>
<path d="M89.447 104.884C89.4316 104.831 89.4013 104.783 89.3596 104.747C89.318 104.71 89.2668 104.686 89.212 104.678L87.358 104.396L86.529 102.637C86.5061 102.587 86.4695 102.545 86.4235 102.515C86.3775 102.485 86.3239 102.469 86.269 102.468C86.2142 102.469 86.1607 102.485 86.1147 102.515C86.0687 102.545 86.0321 102.587 86.009 102.637L85.179 104.396L83.325 104.678C83.2706 104.687 83.2198 104.711 83.1785 104.747C83.1371 104.784 83.1068 104.831 83.091 104.884C83.0742 104.938 83.072 104.995 83.0849 105.05C83.0977 105.105 83.125 105.155 83.164 105.196L84.506 106.564L84.189 108.497C84.1794 108.552 84.185 108.609 84.2053 108.661C84.2256 108.714 84.2597 108.76 84.304 108.794C84.3471 108.828 84.3993 108.848 84.454 108.852C84.5082 108.856 84.5623 108.844 84.61 108.818L86.27 107.905L87.927 108.818C87.97 108.841 88.017 108.852 88.063 108.852C88.223 108.852 88.353 108.716 88.353 108.549C88.3532 108.526 88.3508 108.503 88.346 108.481L88.032 106.564L89.373 105.196C89.412 105.155 89.4394 105.105 89.4524 105.05C89.4654 104.995 89.4635 104.938 89.447 104.884Z" fill="#D2D5D9"/>
<path d="M209.077 102.172H95.564C95.3327 102.172 95.1109 102.264 94.9474 102.427C94.7839 102.591 94.692 102.813 94.692 103.044V108.275C94.692 108.757 95.082 109.147 95.564 109.147H209.077C209.558 109.147 209.949 108.757 209.949 108.275V103.044C209.949 102.813 209.857 102.591 209.694 102.427C209.53 102.264 209.308 102.172 209.077 102.172V102.172Z" stroke="#FFBA32" stroke-width="0.349"/>
<path d="M94.598 103.044C94.598 102.466 95.068 101.998 95.644 101.998H106.281V109.321H95.644C95.3666 109.321 95.1005 109.211 94.9044 109.015C94.7082 108.819 94.598 108.552 94.598 108.275V103.044Z" fill="#FFBA32"/>
<path d="M216.421 102.409V107.5H215.651V103.18H215.621L214.403 103.975V103.239L215.673 102.409H216.421ZM219.571 107.57C219.229 107.57 218.924 107.511 218.656 107.393C218.389 107.275 218.178 107.112 218.022 106.903C217.868 106.693 217.785 106.449 217.773 106.173H218.554C218.564 106.323 218.614 106.454 218.706 106.565C218.798 106.675 218.919 106.759 219.069 106.819C219.218 106.879 219.383 106.908 219.566 106.908C219.766 106.908 219.944 106.874 220.098 106.804C220.253 106.734 220.375 106.637 220.463 106.513C220.551 106.387 220.595 106.242 220.595 106.078C220.595 105.907 220.551 105.757 220.463 105.628C220.377 105.497 220.25 105.395 220.083 105.32C219.917 105.245 219.716 105.208 219.481 105.208H219.051V104.582H219.481C219.67 104.582 219.836 104.548 219.978 104.48C220.122 104.412 220.235 104.317 220.316 104.196C220.398 104.074 220.438 103.93 220.438 103.766C220.438 103.609 220.403 103.472 220.331 103.356C220.262 103.239 220.162 103.147 220.033 103.08C219.905 103.014 219.755 102.981 219.581 102.981C219.415 102.981 219.26 103.011 219.116 103.073C218.973 103.132 218.857 103.219 218.768 103.331C218.678 103.442 218.63 103.576 218.624 103.732H217.88C217.889 103.456 217.97 103.214 218.124 103.006C218.28 102.797 218.485 102.634 218.74 102.516C218.996 102.398 219.279 102.339 219.591 102.339C219.917 102.339 220.199 102.403 220.436 102.531C220.674 102.657 220.858 102.825 220.988 103.036C221.118 103.246 221.183 103.476 221.181 103.727C221.183 104.012 221.104 104.254 220.943 104.452C220.784 104.651 220.572 104.785 220.306 104.853V104.892C220.645 104.944 220.906 105.078 221.092 105.295C221.279 105.512 221.372 105.781 221.37 106.103C221.372 106.383 221.294 106.634 221.137 106.856C220.981 107.078 220.768 107.253 220.498 107.381C220.228 107.507 219.919 107.57 219.571 107.57Z" fill="#00805F"/>
<path d="M214 108.892H221.818V109.369H214V108.892Z" fill="#00805F"/>
<path d="M57.644 118.628C57.6282 118.575 57.5979 118.528 57.5565 118.491C57.5152 118.454 57.4644 118.43 57.41 118.421L55.556 118.139L54.726 116.381C54.7031 116.331 54.6666 116.288 54.6206 116.258C54.5745 116.228 54.5209 116.212 54.466 116.211C54.4111 116.212 54.3576 116.229 54.3116 116.259C54.2656 116.289 54.229 116.331 54.206 116.381L53.376 118.139L51.523 118.421C51.4682 118.43 51.4171 118.454 51.3755 118.49C51.3339 118.527 51.3036 118.575 51.288 118.628C51.2712 118.682 51.2693 118.739 51.2823 118.794C51.2953 118.848 51.3228 118.899 51.362 118.939L52.702 120.308L52.387 122.241C52.3774 122.296 52.383 122.353 52.4033 122.405C52.4235 122.458 52.4576 122.504 52.502 122.538C52.5453 122.571 52.5973 122.591 52.6516 122.595C52.7059 122.599 52.7602 122.587 52.808 122.561L54.466 121.649L56.125 122.561C56.168 122.585 56.215 122.596 56.261 122.596C56.3059 122.595 56.3501 122.584 56.3901 122.564C56.4302 122.543 56.4651 122.514 56.4923 122.478C56.5194 122.443 56.5381 122.401 56.5469 122.357C56.5557 122.313 56.5543 122.267 56.543 122.224L56.229 120.308L57.571 118.939C57.6097 118.898 57.6368 118.848 57.6497 118.793C57.6625 118.739 57.6605 118.682 57.644 118.628ZM65.594 118.628C65.5782 118.575 65.5481 118.528 65.5069 118.491C65.4658 118.455 65.4152 118.43 65.361 118.421L63.507 118.139L62.677 116.381C62.6541 116.331 62.6176 116.288 62.5716 116.258C62.5255 116.228 62.4719 116.212 62.417 116.211C62.3621 116.212 62.3086 116.229 62.2626 116.259C62.2166 116.289 62.18 116.331 62.157 116.381L61.327 118.139L59.473 118.421C59.4183 118.43 59.3672 118.454 59.3257 118.49C59.2843 118.527 59.2542 118.575 59.239 118.628C59.222 118.682 59.2198 118.739 59.2327 118.793C59.2455 118.848 59.2729 118.898 59.312 118.939L60.654 120.308L60.337 122.241C60.3273 122.296 60.3329 122.353 60.3534 122.406C60.3738 122.458 60.4083 122.504 60.453 122.538C60.4962 122.571 60.548 122.59 60.6021 122.594C60.6562 122.598 60.7103 122.587 60.758 122.561L62.417 121.649L64.075 122.561C64.118 122.585 64.165 122.596 64.211 122.596C64.371 122.596 64.501 122.46 64.501 122.292C64.501 122.269 64.4987 122.246 64.494 122.224L64.18 120.308L65.522 118.939C65.5607 118.898 65.5878 118.848 65.6007 118.793C65.6135 118.739 65.6115 118.682 65.595 118.628H65.594ZM73.546 118.628C73.5306 118.575 73.5003 118.527 73.4587 118.49C73.4171 118.453 73.3658 118.429 73.311 118.421L71.457 118.139L70.627 116.381C70.6041 116.331 70.5676 116.288 70.5216 116.258C70.4755 116.228 70.4219 116.212 70.367 116.211C70.3121 116.212 70.2586 116.229 70.2126 116.259C70.1666 116.289 70.13 116.331 70.107 116.381L69.277 118.139L67.424 118.421C67.3693 118.43 67.3182 118.454 67.2767 118.49C67.2352 118.527 67.2051 118.575 67.19 118.628C67.173 118.682 67.1708 118.739 67.1837 118.793C67.1965 118.848 67.2239 118.898 67.263 118.939L68.605 120.308L68.288 122.241C68.2784 122.296 68.284 122.353 68.3043 122.405C68.3245 122.458 68.3586 122.504 68.403 122.538C68.4463 122.571 68.4983 122.591 68.5526 122.595C68.6069 122.599 68.6612 122.587 68.709 122.561L70.368 121.649L72.026 122.561C72.069 122.585 72.116 122.596 72.162 122.596C72.2069 122.595 72.2511 122.584 72.2911 122.564C72.3312 122.543 72.3661 122.514 72.3933 122.478C72.4204 122.443 72.4391 122.401 72.4479 122.357C72.4567 122.313 72.4553 122.267 72.444 122.224L72.13 120.308L73.472 118.939C73.5111 118.899 73.5387 118.848 73.5517 118.794C73.5647 118.739 73.5627 118.682 73.546 118.628Z" fill="#FFBA32"/>
<path d="M81.496 118.628C81.4802 118.575 81.4499 118.528 81.4085 118.491C81.3672 118.454 81.3164 118.43 81.262 118.421L79.408 118.139L78.578 116.381C78.5551 116.331 78.5186 116.288 78.4726 116.258C78.4266 116.228 78.373 116.212 78.318 116.211C78.2631 116.212 78.2096 116.229 78.1636 116.259C78.1176 116.289 78.081 116.331 78.058 116.381L77.228 118.139L75.374 118.421C75.3193 118.43 75.2682 118.454 75.2267 118.49C75.1853 118.527 75.1552 118.575 75.14 118.628C75.1234 118.682 75.1214 118.739 75.1345 118.794C75.1475 118.848 75.1749 118.898 75.214 118.939L76.555 120.308L76.239 122.241C76.2294 122.296 76.235 122.353 76.2553 122.405C76.2755 122.458 76.3097 122.504 76.354 122.538C76.3973 122.571 76.4493 122.591 76.5036 122.595C76.5579 122.599 76.6122 122.587 76.66 122.561L78.318 121.649L79.978 122.561C80.019 122.585 80.068 122.596 80.113 122.596C80.1579 122.595 80.2021 122.584 80.2422 122.564C80.2822 122.543 80.3172 122.514 80.3443 122.478C80.3715 122.443 80.3901 122.401 80.3989 122.357C80.4077 122.313 80.4064 122.267 80.395 122.224L80.081 120.308L81.423 118.939C81.4618 118.898 81.489 118.848 81.5018 118.793C81.5147 118.739 81.5127 118.682 81.496 118.628ZM89.447 118.628C89.4316 118.575 89.4014 118.527 89.3597 118.49C89.3181 118.453 89.2668 118.429 89.212 118.421L87.358 118.139L86.529 116.381C86.5061 116.331 86.4696 116.288 86.4236 116.258C86.3776 116.228 86.324 116.212 86.269 116.211C86.2141 116.212 86.1606 116.229 86.1146 116.259C86.0686 116.289 86.032 116.331 86.009 116.381L85.179 118.139L83.325 118.421C83.2703 118.43 83.2192 118.454 83.1777 118.49C83.1363 118.527 83.1062 118.575 83.091 118.628C83.074 118.682 83.0718 118.739 83.0847 118.793C83.0975 118.848 83.1249 118.898 83.164 118.939L84.506 120.308L84.189 122.241C84.1794 122.296 84.185 122.353 84.2053 122.405C84.2255 122.458 84.2597 122.504 84.304 122.538C84.3475 122.571 84.3994 122.59 84.4536 122.594C84.5079 122.598 84.5621 122.587 84.61 122.561L86.27 121.649L87.927 122.561C87.97 122.585 88.017 122.596 88.063 122.596C88.223 122.596 88.353 122.46 88.353 122.292C88.3531 122.269 88.3508 122.246 88.346 122.224L88.032 120.308L89.373 118.939C89.4121 118.899 89.4397 118.848 89.4527 118.794C89.4657 118.739 89.4637 118.682 89.447 118.628Z" fill="#D2D5D9"/>
<path d="M209.077 115.917H95.564C95.3327 115.917 95.1109 116.009 94.9474 116.172C94.7839 116.336 94.692 116.558 94.692 116.789V122.02C94.692 122.502 95.082 122.892 95.564 122.892H209.077C209.558 122.892 209.949 122.502 209.949 122.02V116.789C209.949 116.558 209.857 116.336 209.694 116.172C209.53 116.009 209.308 115.917 209.077 115.917V115.917Z" stroke="#FFBA32" stroke-width="0.349"/>
<path d="M94.598 116.788C94.598 116.21 95.068 115.742 95.644 115.742H101.691V123.066H95.644C95.3665 123.066 95.1004 122.955 94.9043 122.759C94.7082 122.563 94.598 122.296 94.598 122.019V116.788Z" fill="#FFBA32"/>
<path d="M216.267 120.57C216.04 120.566 215.816 120.525 215.596 120.445C215.377 120.366 215.178 120.233 214.999 120.048C214.82 119.862 214.677 119.613 214.569 119.299C214.463 118.986 214.41 118.595 214.41 118.126C214.41 117.682 214.454 117.288 214.542 116.943C214.631 116.598 214.76 116.307 214.927 116.07C215.095 115.832 215.297 115.65 215.534 115.526C215.771 115.402 216.037 115.339 216.332 115.339C216.635 115.339 216.904 115.399 217.14 115.518C217.375 115.638 217.565 115.803 217.711 116.013C217.859 116.224 217.952 116.463 217.992 116.732H217.234C217.183 116.519 217.081 116.346 216.928 116.212C216.776 116.078 216.577 116.011 216.332 116.011C215.959 116.011 215.668 116.173 215.459 116.498C215.252 116.823 215.148 117.274 215.146 117.853H215.183C215.271 117.708 215.379 117.586 215.506 117.485C215.636 117.382 215.78 117.303 215.939 117.249C216.1 117.192 216.269 117.164 216.446 117.164C216.741 117.164 217.008 117.236 217.246 117.38C217.487 117.523 217.678 117.72 217.821 117.972C217.963 118.224 218.034 118.512 218.034 118.837C218.034 119.162 217.961 119.456 217.813 119.719C217.667 119.983 217.462 120.192 217.197 120.346C216.932 120.498 216.622 120.573 216.267 120.57ZM216.265 119.923C216.46 119.923 216.635 119.875 216.789 119.779C216.943 119.683 217.065 119.554 217.154 119.391C217.244 119.229 217.289 119.047 217.289 118.847C217.289 118.651 217.245 118.473 217.157 118.312C217.071 118.152 216.951 118.024 216.799 117.93C216.648 117.835 216.476 117.788 216.282 117.788C216.134 117.788 215.998 117.816 215.872 117.873C215.747 117.929 215.638 118.007 215.544 118.106C215.449 118.206 215.375 118.32 215.32 118.449C215.267 118.577 215.24 118.712 215.24 118.854C215.24 119.045 215.284 119.221 215.372 119.384C215.462 119.546 215.583 119.677 215.738 119.777C215.893 119.874 216.069 119.923 216.265 119.923Z" fill="#00805F"/>
<path d="M214 121.892H218.45V122.369H214V121.892Z" fill="#00805F"/>
<path d="M57.644 132.372C57.6281 132.319 57.5977 132.272 57.5564 132.235C57.5151 132.199 57.4644 132.174 57.41 132.165L55.556 131.883L54.726 130.125C54.7032 130.075 54.6667 130.032 54.6207 130.002C54.5746 129.972 54.521 129.956 54.466 129.955C54.4111 129.956 54.3576 129.973 54.3116 130.003C54.2656 130.033 54.229 130.075 54.206 130.125L53.376 131.883L51.523 132.165C51.4682 132.174 51.417 132.198 51.3754 132.234C51.3338 132.271 51.3035 132.319 51.288 132.372C51.2715 132.426 51.2696 132.483 51.2826 132.538C51.2956 132.592 51.323 132.642 51.362 132.683L52.703 134.052L52.387 135.985C52.3773 136.04 52.3829 136.097 52.4031 136.149C52.4234 136.202 52.4576 136.248 52.502 136.282C52.5453 136.315 52.5973 136.335 52.6516 136.339C52.7059 136.343 52.7602 136.331 52.808 136.305L54.466 135.392L56.126 136.305C56.1673 136.328 56.2138 136.34 56.261 136.34C56.3059 136.339 56.3501 136.328 56.3902 136.308C56.4302 136.287 56.4652 136.258 56.4923 136.222C56.5195 136.187 56.5381 136.145 56.5469 136.101C56.5557 136.057 56.5543 136.011 56.543 135.968L56.229 134.052L57.571 132.683C57.6097 132.642 57.6368 132.592 57.6497 132.537C57.6625 132.483 57.6605 132.426 57.644 132.372ZM65.595 132.372C65.5791 132.319 65.5487 132.272 65.5074 132.235C65.4661 132.199 65.4154 132.174 65.361 132.165L63.507 131.883L62.677 130.125C62.6542 130.075 62.6177 130.032 62.5717 130.002C62.5256 129.972 62.472 129.956 62.417 129.955C62.3621 129.956 62.3086 129.973 62.2626 130.003C62.2166 130.033 62.18 130.075 62.157 130.125L61.327 131.883L59.473 132.165C59.4186 132.174 59.3678 132.198 59.3265 132.235C59.2851 132.272 59.2548 132.319 59.239 132.372C59.2218 132.426 59.2195 132.483 59.2323 132.538C59.2452 132.592 59.2727 132.643 59.312 132.683L60.654 134.052L60.337 135.985C60.3279 136.04 60.3339 136.097 60.3543 136.149C60.3747 136.202 60.4088 136.247 60.453 136.282C60.4962 136.315 60.548 136.334 60.6021 136.338C60.6562 136.342 60.7103 136.331 60.758 136.305L62.418 135.392L64.075 136.305C64.1166 136.328 64.1634 136.34 64.211 136.34C64.371 136.34 64.501 136.204 64.501 136.036C64.5011 136.013 64.4987 135.99 64.494 135.968L64.18 134.052L65.522 132.683C65.5607 132.642 65.5878 132.592 65.6007 132.537C65.6135 132.483 65.6115 132.426 65.595 132.372Z" fill="#FFBA32"/>
<path d="M73.546 132.372C73.5305 132.319 73.5002 132.271 73.4586 132.234C73.417 132.198 73.3658 132.174 73.311 132.165L71.457 131.883L70.627 130.125C70.6042 130.075 70.5677 130.032 70.5217 130.002C70.4756 129.972 70.422 129.956 70.367 129.955C70.3121 129.956 70.2586 129.973 70.2126 130.003C70.1666 130.033 70.13 130.075 70.107 130.125L69.278 131.883L67.424 132.165C67.3696 132.174 67.3188 132.198 67.2775 132.235C67.2361 132.272 67.2058 132.319 67.19 132.372C67.1728 132.426 67.1705 132.483 67.1833 132.538C67.1962 132.592 67.2237 132.643 67.263 132.683L68.605 134.052L68.288 135.985C68.2783 136.04 68.2838 136.097 68.3041 136.149C68.3244 136.202 68.3586 136.248 68.403 136.282C68.4463 136.315 68.4983 136.335 68.5526 136.339C68.6069 136.343 68.6612 136.331 68.709 136.305L70.369 135.392L72.026 136.305C72.0676 136.328 72.1144 136.34 72.162 136.34C72.2069 136.339 72.2511 136.328 72.2912 136.308C72.3312 136.287 72.3662 136.258 72.3933 136.222C72.4205 136.187 72.4391 136.145 72.4479 136.101C72.4567 136.057 72.4553 136.011 72.444 135.968L72.13 134.052L73.472 132.683C73.5111 132.643 73.5387 132.592 73.5517 132.538C73.5647 132.483 73.5627 132.426 73.546 132.372ZM81.496 132.372C81.4801 132.319 81.4497 132.272 81.4084 132.235C81.3671 132.199 81.3164 132.174 81.262 132.165L79.408 131.883L78.578 130.125C78.5552 130.075 78.5187 130.032 78.4727 130.002C78.4266 129.972 78.373 129.956 78.318 129.955C78.2631 129.956 78.2096 129.973 78.1636 130.003C78.1176 130.033 78.081 130.075 78.058 130.125L77.228 131.883L75.374 132.165C75.3196 132.174 75.2688 132.198 75.2275 132.235C75.1861 132.272 75.1558 132.319 75.14 132.372C75.1234 132.426 75.1216 132.483 75.1346 132.538C75.1476 132.592 75.175 132.642 75.214 132.683L76.555 134.052L76.239 135.985C76.2293 136.04 76.2348 136.097 76.2551 136.149C76.2754 136.202 76.3096 136.248 76.354 136.282C76.3973 136.315 76.4493 136.335 76.5036 136.339C76.5579 136.343 76.6122 136.331 76.66 136.305L78.318 135.392L79.978 136.305C80.019 136.328 80.068 136.34 80.113 136.34C80.1579 136.339 80.2021 136.328 80.2422 136.308C80.2822 136.287 80.3172 136.258 80.3443 136.222C80.3715 136.187 80.3901 136.145 80.3989 136.101C80.4077 136.057 80.4063 136.011 80.395 135.968L80.081 134.052L81.423 132.683C81.4617 132.642 81.4888 132.592 81.5017 132.537C81.5145 132.483 81.5125 132.426 81.496 132.372ZM89.447 132.372C89.4315 132.319 89.4012 132.271 89.3596 132.234C89.318 132.198 89.2668 132.174 89.212 132.165L87.358 131.883L86.529 130.125C86.5062 130.075 86.4697 130.032 86.4237 130.002C86.3776 129.972 86.324 129.956 86.269 129.955C86.2141 129.956 86.1606 129.973 86.1146 130.003C86.0686 130.033 86.032 130.075 86.009 130.125L85.179 131.883L83.325 132.165C83.2706 132.174 83.2198 132.198 83.1785 132.235C83.1371 132.272 83.1068 132.319 83.091 132.372C83.0738 132.426 83.0715 132.483 83.0843 132.538C83.0972 132.592 83.1247 132.643 83.164 132.683L84.506 134.052L84.189 135.985C84.1793 136.04 84.1849 136.097 84.2051 136.149C84.2254 136.202 84.2596 136.248 84.304 136.282C84.3475 136.315 84.3994 136.334 84.4536 136.338C84.5078 136.342 84.5621 136.331 84.61 136.305L86.27 135.392L87.927 136.305C87.9686 136.328 88.0154 136.34 88.063 136.34C88.223 136.34 88.353 136.204 88.353 136.036C88.3531 136.013 88.3508 135.99 88.346 135.968L88.032 134.052L89.373 132.683C89.4121 132.643 89.4397 132.592 89.4527 132.538C89.4657 132.483 89.4637 132.426 89.447 132.372Z" fill="#D2D5D9"/>
<path d="M209.077 129.66H95.564C95.3327 129.66 95.1109 129.752 94.9474 129.915C94.7839 130.079 94.692 130.301 94.692 130.532V135.763C94.692 136.245 95.082 136.635 95.564 136.635H209.077C209.558 136.635 209.949 136.245 209.949 135.763V130.532C209.949 130.301 209.857 130.079 209.694 129.915C209.53 129.752 209.308 129.66 209.077 129.66V129.66Z" stroke="#FFBA32" stroke-width="0.349"/>
<path d="M94.598 130.532C94.598 129.954 95.068 129.486 95.644 129.486H95.819V136.809H95.644C95.3666 136.809 95.1005 136.699 94.9044 136.503C94.7082 136.306 94.598 136.04 94.598 135.763V130.532Z" fill="#FFBA32"/>
<path d="M216.262 134.585C215.869 134.583 215.534 134.479 215.255 134.274C214.977 134.068 214.764 133.769 214.616 133.376C214.469 132.984 214.395 132.511 214.395 131.957C214.395 131.405 214.469 130.934 214.616 130.543C214.766 130.152 214.979 129.853 215.258 129.648C215.538 129.442 215.873 129.339 216.262 129.339C216.651 129.339 216.985 129.443 217.264 129.65C217.542 129.856 217.755 130.154 217.903 130.545C218.052 130.935 218.126 131.405 218.126 131.957C218.126 132.512 218.053 132.986 217.905 133.379C217.758 133.77 217.545 134.069 217.266 134.276C216.988 134.482 216.653 134.585 216.262 134.585ZM216.262 133.921C216.607 133.921 216.876 133.753 217.07 133.416C217.265 133.08 217.363 132.593 217.363 131.957C217.363 131.534 217.319 131.177 217.229 130.886C217.141 130.592 217.014 130.37 216.849 130.219C216.685 130.067 216.489 129.991 216.262 129.991C215.919 129.991 215.65 130.16 215.454 130.498C215.259 130.836 215.16 131.322 215.158 131.957C215.158 132.381 215.202 132.74 215.29 133.033C215.38 133.325 215.506 133.546 215.67 133.697C215.835 133.846 216.032 133.921 216.262 133.921Z" fill="#00805F"/>
<path d="M214 135.892H218.522V136.369H214V135.892Z" fill="#00805F"/>
<path d="M57.644 146.115C57.6281 146.062 57.5978 146.015 57.5564 145.979C57.5151 145.942 57.4643 145.918 57.41 145.909L55.556 145.627L54.726 143.868C54.7031 143.818 54.6665 143.776 54.6205 143.746C54.5744 143.716 54.5209 143.7 54.466 143.699C54.4111 143.7 54.3577 143.716 54.3117 143.746C54.2657 143.776 54.2291 143.818 54.206 143.868L53.376 145.627L51.523 145.909C51.4683 145.917 51.4171 145.941 51.3755 145.978C51.3339 146.014 51.3035 146.062 51.288 146.115C51.2712 146.169 51.2693 146.226 51.2823 146.281C51.2953 146.336 51.3228 146.386 51.362 146.427L52.703 147.795L52.387 149.728C52.3774 149.783 52.383 149.84 52.4033 149.892C52.4235 149.945 52.4577 149.991 52.502 150.025C52.545 150.059 52.5973 150.079 52.652 150.083C52.7062 150.087 52.7603 150.075 52.808 150.049L54.466 149.136L56.126 150.049C56.168 150.072 56.216 150.083 56.261 150.083C56.3058 150.082 56.3499 150.071 56.3898 150.051C56.4298 150.031 56.4647 150.001 56.4918 149.966C56.5189 149.93 56.5376 149.889 56.5465 149.845C56.5554 149.801 56.5542 149.755 56.543 149.712L56.229 147.795L57.571 146.427C57.6099 146.386 57.6373 146.336 57.6501 146.281C57.663 146.226 57.6608 146.169 57.644 146.115Z" fill="#FFBA32"/>
<path d="M65.595 146.115C65.5792 146.062 65.5489 146.015 65.5075 145.978C65.4662 145.942 65.4154 145.918 65.361 145.909L63.507 145.627L62.677 143.868C62.6541 143.818 62.6175 143.776 62.5715 143.746C62.5254 143.716 62.4719 143.7 62.417 143.699C62.362 143.699 62.3083 143.715 62.262 143.745C62.216 143.775 62.1796 143.818 62.157 143.868L61.327 145.627L59.473 145.909C59.4186 145.918 59.3679 145.942 59.3266 145.979C59.2852 146.015 59.2549 146.062 59.239 146.115C59.2222 146.169 59.2202 146.226 59.233 146.281C59.2458 146.336 59.2731 146.386 59.312 146.427L60.654 147.795L60.337 149.728C60.3279 149.783 60.3339 149.84 60.3543 149.892C60.3747 149.945 60.4088 149.99 60.453 150.025C60.4961 150.058 60.5479 150.078 60.6021 150.082C60.6562 150.086 60.7104 150.074 60.758 150.048L62.417 149.136L64.075 150.048C64.118 150.072 64.165 150.083 64.211 150.083C64.371 150.083 64.501 149.947 64.501 149.78C64.5012 149.757 64.4988 149.734 64.494 149.712L64.18 147.795L65.522 146.427C65.5609 146.386 65.5881 146.336 65.601 146.281C65.6138 146.226 65.6117 146.169 65.595 146.115ZM73.546 146.115C73.5306 146.062 73.5003 146.014 73.4586 145.978C73.417 145.941 73.3657 145.917 73.311 145.909L71.457 145.627L70.627 143.868C70.6098 143.831 70.5849 143.798 70.5539 143.771C70.523 143.744 70.4866 143.724 70.4473 143.713C70.4081 143.701 70.3667 143.698 70.3262 143.703C70.2856 143.709 70.2467 143.723 70.212 143.745C70.166 143.775 70.1296 143.818 70.107 143.868L69.278 145.627L67.424 145.909C67.3696 145.918 67.3189 145.942 67.2776 145.979C67.2362 146.015 67.2059 146.062 67.19 146.115C67.1732 146.169 67.1712 146.226 67.184 146.281C67.1968 146.336 67.2241 146.386 67.263 146.427L68.605 147.795L68.288 149.728C68.2783 149.783 68.2839 149.84 68.3041 149.892C68.3244 149.945 68.3586 149.991 68.403 150.025C68.446 150.059 68.498 150.079 68.5525 150.083C68.607 150.087 68.6614 150.075 68.709 150.048L70.368 149.136L72.026 150.048C72.069 150.072 72.116 150.083 72.162 150.083C72.2068 150.082 72.2509 150.071 72.2908 150.051C72.3308 150.031 72.3657 150.001 72.3928 149.966C72.42 149.93 72.4386 149.889 72.4475 149.845C72.4564 149.801 72.4552 149.755 72.444 149.712L72.13 147.795L73.472 146.427C73.511 146.386 73.5385 146.336 73.5515 146.281C73.5645 146.226 73.5626 146.169 73.546 146.115ZM81.496 146.115C81.4802 146.062 81.4499 146.015 81.4085 145.978C81.3672 145.942 81.3164 145.918 81.262 145.909L79.408 145.627L78.578 143.868C78.5551 143.818 78.5185 143.776 78.4725 143.746C78.4265 143.716 78.3729 143.7 78.318 143.699C78.263 143.699 78.2093 143.715 78.163 143.745C78.117 143.775 78.0806 143.818 78.058 143.868L77.228 145.627L75.374 145.909C75.3196 145.918 75.2689 145.942 75.2276 145.979C75.1862 146.015 75.1559 146.062 75.14 146.115C75.1232 146.169 75.1211 146.226 75.1342 146.281C75.1472 146.336 75.1748 146.386 75.214 146.427L76.555 147.795L76.239 149.728C76.2293 149.783 76.2349 149.84 76.2551 149.892C76.2754 149.945 76.3096 149.991 76.354 150.025C76.397 150.059 76.449 150.079 76.5035 150.083C76.558 150.087 76.6124 150.075 76.66 150.048L78.318 149.136L79.977 150.048C80.019 150.072 80.067 150.083 80.113 150.083C80.1578 150.082 80.2019 150.071 80.2418 150.051C80.2818 150.031 80.3167 150.001 80.3438 149.966C80.3709 149.93 80.3897 149.889 80.3985 149.845C80.4074 149.801 80.4062 149.755 80.395 149.712L80.081 147.795L81.423 146.427C81.4619 146.386 81.4891 146.336 81.502 146.281C81.5148 146.226 81.5127 146.169 81.496 146.115ZM89.447 146.115C89.4316 146.062 89.4013 146.014 89.3596 145.978C89.318 145.941 89.2667 145.917 89.212 145.909L87.358 145.627L86.529 143.868C86.5061 143.818 86.4695 143.776 86.4235 143.746C86.3775 143.716 86.3239 143.7 86.269 143.699C86.214 143.699 86.1603 143.715 86.114 143.745C86.068 143.775 86.0316 143.818 86.009 143.868L85.179 145.627L83.325 145.909C83.2706 145.918 83.2199 145.942 83.1786 145.979C83.1372 146.015 83.1069 146.062 83.091 146.115C83.0742 146.169 83.0722 146.226 83.085 146.281C83.0978 146.336 83.1251 146.386 83.164 146.427L84.506 147.795L84.189 149.728C84.1793 149.783 84.1849 149.84 84.2051 149.892C84.2254 149.945 84.2596 149.991 84.304 150.025C84.347 150.059 84.399 150.079 84.4535 150.083C84.508 150.087 84.5624 150.075 84.61 150.048L86.269 149.136L87.927 150.048C87.97 150.072 88.017 150.083 88.063 150.083C88.223 150.083 88.353 149.947 88.353 149.78C88.3532 149.757 88.3509 149.734 88.346 149.712L88.032 147.795L89.373 146.427C89.412 146.386 89.4395 146.336 89.4525 146.281C89.4655 146.226 89.4636 146.169 89.447 146.115Z" fill="#D2D5D9"/>
<path d="M209.077 143.404H95.564C95.4495 143.404 95.3361 143.427 95.2303 143.47C95.1245 143.514 95.0284 143.578 94.9474 143.659C94.8664 143.74 94.8022 143.837 94.7584 143.942C94.7146 144.048 94.692 144.162 94.692 144.276V149.507C94.692 149.989 95.082 150.379 95.564 150.379H209.077C209.558 150.379 209.949 149.989 209.949 149.507V144.276C209.949 144.162 209.926 144.048 209.883 143.942C209.839 143.837 209.775 143.74 209.694 143.659C209.613 143.578 209.517 143.514 209.411 143.47C209.305 143.427 209.192 143.404 209.077 143.404V143.404Z" stroke="#FFBA32" stroke-width="0.349"/>
<path d="M94.598 144.276C94.598 143.698 95.068 143.23 95.644 143.23H98.968V150.553H95.644C95.3666 150.553 95.1005 150.443 94.9044 150.247C94.7082 150.05 94.598 149.784 94.598 149.507V144.276Z" fill="#FFBA32"/>
<path d="M216.267 149.57C216.04 149.566 215.816 149.525 215.596 149.445C215.377 149.366 215.178 149.233 214.999 149.048C214.82 148.862 214.677 148.613 214.569 148.299C214.463 147.986 214.41 147.595 214.41 147.126C214.41 146.682 214.454 146.288 214.542 145.943C214.631 145.598 214.76 145.307 214.927 145.07C215.095 144.832 215.297 144.65 215.534 144.526C215.771 144.402 216.037 144.339 216.332 144.339C216.635 144.339 216.904 144.399 217.14 144.518C217.375 144.638 217.565 144.803 217.711 145.013C217.859 145.224 217.952 145.463 217.992 145.732H217.234C217.183 145.519 217.081 145.346 216.928 145.212C216.776 145.078 216.577 145.011 216.332 145.011C215.959 145.011 215.668 145.173 215.459 145.498C215.252 145.823 215.148 146.274 215.146 146.853H215.183C215.271 146.708 215.379 146.586 215.506 146.485C215.636 146.382 215.78 146.303 215.939 146.249C216.1 146.192 216.269 146.164 216.446 146.164C216.741 146.164 217.008 146.236 217.246 146.38C217.487 146.523 217.678 146.72 217.821 146.972C217.963 147.224 218.034 147.512 218.034 147.837C218.034 148.162 217.961 148.456 217.813 148.719C217.667 148.983 217.462 149.192 217.197 149.346C216.932 149.498 216.622 149.573 216.267 149.57ZM216.265 148.923C216.46 148.923 216.635 148.875 216.789 148.779C216.943 148.683 217.065 148.554 217.154 148.391C217.244 148.229 217.289 148.047 217.289 147.847C217.289 147.651 217.245 147.473 217.157 147.312C217.071 147.152 216.951 147.024 216.799 146.93C216.648 146.835 216.476 146.788 216.282 146.788C216.134 146.788 215.998 146.816 215.872 146.873C215.747 146.929 215.638 147.007 215.544 147.106C215.449 147.206 215.375 147.32 215.32 147.449C215.267 147.577 215.24 147.712 215.24 147.854C215.24 148.045 215.284 148.221 215.372 148.384C215.462 148.546 215.583 148.677 215.738 148.777C215.893 148.874 216.069 148.923 216.265 148.923Z" fill="#00805F"/>
<path d="M214 150.892H218.45V151.369H214V150.892Z" fill="#00805F"/>
<path d="M50.955 69.757V60.77H54.939C55.74 60.77 56.349 60.852 56.766 61.015C57.183 61.175 57.516 61.459 57.766 61.867C58.016 62.277 58.139 62.727 58.139 63.222C58.139 63.86 57.933 64.397 57.52 64.835C57.107 65.272 56.47 65.55 55.608 65.668C55.922 65.819 56.161 65.968 56.325 66.116C56.672 66.434 57.001 66.833 57.312 67.311L58.875 69.757H57.38L56.19 67.887C55.9227 67.4619 55.6367 67.0489 55.333 66.649C55.108 66.363 54.906 66.163 54.726 66.049C54.5609 65.939 54.3783 65.8578 54.186 65.809C53.9671 65.7742 53.7455 65.7598 53.524 65.766H52.145V69.757H50.955H50.956H50.955ZM52.145 64.737H54.7C55.244 64.737 55.67 64.681 55.975 64.571C56.282 64.456 56.515 64.277 56.675 64.031C56.835 63.782 56.913 63.512 56.913 63.222C56.913 62.797 56.758 62.448 56.447 62.174C56.141 61.9 55.654 61.764 54.988 61.764H52.144V64.737H52.145ZM64.827 67.661L65.967 67.801C65.787 68.468 65.454 68.985 64.967 69.352C64.481 69.72 63.86 69.904 63.104 69.904C62.152 69.904 61.396 69.612 60.836 69.028C60.28 68.439 60.002 67.615 60.002 66.557C60.002 65.462 60.284 64.612 60.848 64.007C61.412 63.402 62.144 63.1 63.043 63.1C63.913 63.1 64.624 63.396 65.176 63.989C65.728 64.581 66.004 65.415 66.004 66.489C66.004 66.555 66.002 66.653 65.998 66.784H61.143C61.183 67.499 61.386 68.047 61.749 68.427C62.113 68.807 62.567 68.997 63.11 68.997C63.515 68.997 63.86 68.891 64.146 68.678C64.432 68.466 64.659 68.126 64.826 67.661H64.827ZM61.204 65.877H64.839C64.79 65.329 64.651 64.918 64.422 64.644C64.259 64.4392 64.0507 64.2751 63.8135 64.1646C63.5763 64.054 63.3166 64.0001 63.055 64.007C62.548 64.007 62.121 64.177 61.775 64.516C61.431 64.855 61.241 65.308 61.205 65.876V65.877H61.204ZM69.669 69.757L67.193 63.247H68.357L69.755 67.145C69.906 67.567 70.045 68.004 70.172 68.457C70.27 68.114 70.407 67.701 70.582 67.219L72.029 63.247H73.163L70.699 69.757H69.669ZM74.646 62.039V60.77H75.75V62.04H74.646V62.039ZM74.646 69.757V63.247H75.75V69.757H74.646ZM82.394 67.66L83.534 67.801C83.354 68.468 83.022 68.985 82.535 69.352C82.049 69.72 81.428 69.904 80.672 69.904C79.719 69.904 78.963 69.612 78.404 69.028C77.848 68.439 77.57 67.615 77.57 66.557C77.57 65.462 77.852 64.612 78.416 64.007C78.98 63.402 79.711 63.1 80.61 63.1C81.48 63.1 82.192 63.396 82.744 63.989C83.295 64.581 83.571 65.415 83.571 66.489C83.571 66.555 83.569 66.653 83.565 66.784H78.71C78.75 67.499 78.953 68.047 79.317 68.427C79.681 68.807 80.134 68.997 80.677 68.997C81.082 68.997 81.427 68.891 81.714 68.678C82 68.466 82.227 68.126 82.394 67.661V67.66ZM78.771 65.877H82.407C82.357 65.329 82.219 64.918 81.99 64.644C81.827 64.4392 81.6187 64.2751 81.3815 64.1646C81.1443 64.054 80.8846 64.0001 80.623 64.007C80.116 64.007 79.689 64.177 79.341 64.516C78.998 64.855 78.808 65.308 78.771 65.876V65.877ZM86.631 69.757L84.637 63.247H85.777L86.813 67.004L87.2 68.402C87.216 68.332 87.328 67.885 87.537 67.06L88.573 63.247H89.707L90.682 67.023L91.007 68.267L91.38 67.011L92.496 63.247H93.569L91.534 69.757H90.387L89.351 65.858L89.101 64.748L87.782 69.757H86.63H86.631ZM94.561 67.814L95.653 67.642C95.714 68.079 95.883 68.415 96.163 68.647C96.443 68.88 96.836 68.997 97.338 68.997C97.845 68.997 98.221 68.895 98.466 68.69C98.712 68.482 98.834 68.239 98.834 67.96C98.8364 67.8421 98.8076 67.7256 98.7505 67.6223C98.6934 67.5191 98.6101 67.4327 98.509 67.372C98.359 67.274 97.982 67.15 97.381 66.998C96.572 66.794 96.011 66.618 95.696 66.471C95.4044 66.3369 95.1573 66.1221 94.984 65.852C94.8249 65.5873 94.7422 65.2838 94.745 64.975C94.745 64.685 94.811 64.418 94.942 64.172C95.077 63.923 95.258 63.717 95.487 63.553C95.7001 63.4069 95.9369 63.299 96.187 63.234C96.497 63.1425 96.8188 63.0974 97.142 63.1C97.653 63.1 98.102 63.173 98.485 63.32C98.873 63.468 99.159 63.668 99.343 63.921C99.527 64.171 99.653 64.505 99.723 64.926L98.644 65.073C98.595 64.738 98.452 64.477 98.215 64.289C97.982 64.101 97.651 64.007 97.222 64.007C96.715 64.007 96.354 64.091 96.137 64.258C95.92 64.426 95.812 64.622 95.812 64.847C95.812 64.99 95.857 65.119 95.947 65.233C96.037 65.351 96.177 65.449 96.37 65.527C96.48 65.568 96.805 65.662 97.345 65.809C98.125 66.018 98.669 66.189 98.975 66.324C99.285 66.454 99.529 66.647 99.705 66.9C99.88 67.154 99.968 67.468 99.968 67.844C99.968 68.212 99.86 68.56 99.643 68.887C99.431 69.209 99.123 69.461 98.718 69.641C98.284 69.822 97.816 69.911 97.345 69.904C96.499 69.904 95.853 69.728 95.407 69.377C94.967 69.025 94.684 68.504 94.562 67.814H94.561Z" fill="#212326"/>
<path opacity="0.2" d="M260 55.046C260 54.468 260.468 54 261.046 54H383V78H261.046C260.769 77.9992 260.503 77.8887 260.307 77.6928C260.111 77.4968 260.001 77.2312 260 76.954V55.046Z" fill="#D9D9D9"/>
<path d="M330.477 90.505H262.474C262.242 90.4995 262.01 90.5405 261.794 90.6256C261.578 90.7107 261.38 90.8382 261.214 91.0007C261.048 91.1631 260.915 91.3572 260.825 91.5715C260.735 91.7858 260.688 92.016 260.688 92.2485C260.688 92.4811 260.735 92.7113 260.825 92.9256C260.915 93.1399 261.048 93.334 261.214 93.4964C261.38 93.6589 261.578 93.7864 261.794 93.8715C262.01 93.9566 262.242 93.9976 262.474 93.992H330.477C330.709 93.9976 330.941 93.9566 331.157 93.8715C331.374 93.7864 331.571 93.6589 331.737 93.4964C331.904 93.334 332.036 93.1399 332.126 92.9256C332.216 92.7113 332.263 92.4811 332.263 92.2485C332.263 92.016 332.216 91.7858 332.126 91.5715C332.036 91.3572 331.904 91.1631 331.737 91.0007C331.571 90.8382 331.374 90.7107 331.157 90.6256C330.941 90.5405 330.709 90.4995 330.477 90.505ZM282.392 59.634H269.141C268.909 59.6285 268.677 59.6695 268.461 59.7546C268.245 59.8397 268.047 59.9672 267.881 60.1297C267.715 60.2921 267.582 60.4862 267.492 60.7005C267.402 60.9148 267.355 61.145 267.355 61.3775C267.355 61.6101 267.402 61.8403 267.492 62.0546C267.582 62.2689 267.715 62.463 267.881 62.6254C268.047 62.7879 268.245 62.9154 268.461 63.0005C268.677 63.0856 268.909 63.1266 269.141 63.121H282.392C282.625 63.1266 282.856 63.0856 283.072 63.0005C283.289 62.9154 283.486 62.7879 283.652 62.6254C283.819 62.463 283.951 62.2689 284.041 62.0546C284.131 61.8403 284.178 61.6101 284.178 61.3775C284.178 61.145 284.131 60.9148 284.041 60.7005C283.951 60.4862 283.819 60.2921 283.652 60.1297C283.486 59.9672 283.289 59.8397 283.072 59.7546C282.856 59.6695 282.625 59.6285 282.392 59.634ZM290.327 66.957H269.925C269.593 66.957 269.264 67.0224 268.958 67.1495C268.651 67.2765 268.372 67.4627 268.137 67.6975C267.903 67.9322 267.717 68.2109 267.589 68.5176C267.462 68.8243 267.397 69.1531 267.397 69.485V69.486C267.397 70.1565 267.663 70.7995 268.137 71.2736C268.612 71.7477 269.255 72.014 269.925 72.014H290.327C290.997 72.014 291.641 71.7477 292.115 71.2736C292.589 70.7995 292.855 70.1565 292.855 69.486V69.485C292.855 69.1531 292.79 68.8243 292.663 68.5176C292.536 68.2109 292.349 67.9322 292.115 67.6975C291.88 67.4627 291.601 67.2765 291.294 67.1495C290.988 67.0224 290.659 66.957 290.327 66.957Z" fill="#D9D9D9"/>
<path d="M311.82 114.513H263.694C262.908 114.513 262.154 114.825 261.598 115.381C261.042 115.937 260.73 116.691 260.73 117.477V117.478C260.73 118.264 261.042 119.018 261.598 119.574C262.154 120.13 262.908 120.442 263.694 120.442H311.82C312.606 120.442 313.36 120.13 313.916 119.574C314.472 119.018 314.784 118.264 314.784 117.478V117.477C314.784 116.691 314.472 115.937 313.916 115.381C313.36 114.825 312.606 114.513 311.82 114.513Z" fill="#FFBA32"/>
<path d="M336.057 131.252H265.612C264.317 131.252 263.075 131.766 262.16 132.682C261.244 133.597 260.73 134.839 260.73 136.134V136.135C260.73 136.776 260.856 137.411 261.102 138.003C261.347 138.596 261.707 139.134 262.16 139.587C262.613 140.04 263.151 140.4 263.744 140.645C264.336 140.891 264.971 141.017 265.612 141.017H336.057C336.698 141.017 337.333 140.891 337.925 140.645C338.518 140.4 339.056 140.04 339.509 139.587C339.962 139.134 340.322 138.596 340.567 138.003C340.813 137.411 340.939 136.776 340.939 136.135V136.134C340.939 134.839 340.425 133.597 339.509 132.682C338.594 131.766 337.352 131.252 336.057 131.252ZM297.696 150.607H263.52C262.78 150.607 262.07 150.901 261.547 151.424C261.024 151.947 260.73 152.657 260.73 153.397C260.73 154.137 261.024 154.847 261.547 155.37C262.07 155.893 262.78 156.187 263.52 156.187H297.696C298.436 156.187 299.146 155.893 299.669 155.37C300.192 154.847 300.486 154.137 300.486 153.397C300.486 152.657 300.192 151.947 299.669 151.424C299.146 150.901 298.436 150.607 297.696 150.607Z" fill="#D9D9D9"/>
<path d="M261 179C261 178.47 261.211 177.961 261.586 177.586C261.961 177.211 262.47 177 263 177H382V181H263C262.47 181 261.961 180.789 261.586 180.414C261.211 180.039 261 179.53 261 179ZM261 190C261 189.47 261.211 188.961 261.586 188.586C261.961 188.211 262.47 188 263 188H382V192H263C262.47 192 261.961 191.789 261.586 191.414C261.211 191.039 261 190.53 261 190Z" fill="#F2F2F2"/>
<path d="M134.859 31.104C134.84 30.524 134.955 29.624 135.089 28.524H135.053C133.999 30.644 132.83 31.304 131.623 31.304C130.227 31.304 129.381 30.104 129.381 28.384C129.381 25.126 131.623 21.308 135.189 21.308C135.84 21.308 136.569 21.428 137.048 21.588L136.071 26.766C135.745 28.545 135.63 30.086 135.668 31.104H134.859ZM136.088 22.227C135.877 22.147 135.551 22.087 134.977 22.087C132.332 22.087 130.262 25.167 130.243 28.185C130.223 29.425 130.569 30.544 131.815 30.544C133.309 30.544 134.998 28.204 135.436 25.726L136.088 22.226V22.227ZM137.008 35.022L138.845 24.806C139.075 23.525 139.248 22.386 139.363 21.508H140.148L139.861 23.447H139.899C140.723 22.147 141.873 21.307 143.099 21.307C144.843 21.307 145.495 22.867 145.495 24.427C145.495 27.665 143.368 31.301 140.436 31.301C139.535 31.301 138.941 31.081 138.593 30.881H138.555L137.829 35.018L137.008 35.022ZM138.733 30.004C139.154 30.344 139.767 30.544 140.515 30.544C142.948 30.544 144.635 26.944 144.635 24.484C144.635 23.344 144.213 22.084 142.852 22.084C141.55 22.084 139.844 23.804 139.326 26.703L138.733 30.003V30.004ZM145.497 35.022L147.335 24.806C147.565 23.525 147.738 22.386 147.853 21.508H148.639L148.351 23.447H148.389C149.213 22.147 150.363 21.307 151.59 21.307C153.334 21.307 153.985 22.867 153.985 24.427C153.985 27.665 151.858 31.301 148.926 31.301C148.025 31.301 147.431 31.081 147.086 30.881H147.048L146.322 35.018L145.497 35.022ZM147.221 30.004C147.643 30.344 148.256 30.544 149.004 30.544C151.438 30.544 153.124 26.944 153.124 24.484C153.124 23.344 152.702 22.084 151.342 22.084C150.039 22.084 148.333 23.804 147.816 26.703L147.221 30.003V30.004ZM157.683 29.984C158.167 30.314 158.733 30.496 159.312 30.504C160.519 30.504 161.323 29.604 161.323 28.523C161.323 27.563 160.939 26.983 160.077 26.403C159.176 25.783 158.68 24.923 158.68 24.043C158.68 22.543 159.83 21.306 161.44 21.306C162.073 21.306 162.705 21.526 162.973 21.746L162.667 22.486C162.379 22.306 161.881 22.086 161.344 22.086C160.233 22.086 159.505 22.886 159.505 23.885C159.505 24.785 159.984 25.283 160.75 25.807C161.632 26.427 162.169 27.307 162.169 28.267C162.169 30.205 160.808 31.285 159.237 31.285C158.412 31.285 157.684 30.965 157.378 30.705L157.683 29.984ZM166.941 19.388L166.539 21.508H168.704L168.551 22.248H166.383L165.367 27.965C165.252 28.605 165.176 29.105 165.176 29.625C165.176 30.185 165.425 30.525 166 30.525C166.306 30.525 166.498 30.505 166.67 30.445L166.726 31.143C166.434 31.2342 166.131 31.2814 165.825 31.283C164.733 31.283 164.311 30.526 164.311 29.723C164.311 29.203 164.367 28.703 164.522 27.963L165.556 22.247H164.235L164.369 21.507H165.709L166.015 19.787L166.941 19.387V19.388ZM175.927 25.006C175.927 27.466 174.374 31.304 171.385 31.304C169.392 31.304 168.453 29.564 168.453 27.584C168.453 24.789 170.197 21.308 172.995 21.308C175.199 21.308 175.927 23.268 175.927 25.006ZM169.315 27.506C169.315 29.185 170.062 30.544 171.519 30.544C173.608 30.544 175.065 27.304 175.065 25.006C175.065 23.746 174.604 22.068 172.918 22.068C170.772 22.068 169.315 25.046 169.315 27.506ZM176.75 31.104L177.92 24.646C178.149 23.426 178.284 22.346 178.36 21.508H179.127C179.05 22.128 178.973 22.768 178.858 23.587H178.897C179.471 22.305 180.372 21.307 181.522 21.307C181.638 21.309 181.753 21.322 181.867 21.347L181.713 22.247C181.607 22.2214 181.498 22.208 181.388 22.207C180.18 22.207 178.839 24.107 178.456 26.227L177.593 31.105L176.75 31.104ZM186.773 30.564C186.295 30.884 185.413 31.284 184.263 31.284C182.117 31.284 181.37 29.524 181.37 27.684C181.37 24.926 183.209 21.308 185.854 21.308C187.368 21.308 188 22.348 188 23.405C188 25.844 185.317 26.524 182.309 26.505C182.212 26.944 182.193 28.203 182.385 28.883C182.711 29.983 183.42 30.503 184.395 30.503C185.411 30.503 186.101 30.123 186.523 29.862L186.773 30.564ZM185.701 22.087C184.282 22.087 182.998 23.687 182.443 25.747C184.838 25.766 187.137 25.346 187.137 23.447C187.137 22.547 186.563 22.087 185.701 22.087Z" fill="black"/>
<path d="M66.625 16.834C66.6179 16.7862 66.5955 16.7419 66.561 16.708C66.5275 16.6751 66.4837 16.6547 66.437 16.65C66.358 16.644 64.827 16.62 64.827 16.62L63.42 15.194C63.294 15.064 63.047 15.102 62.95 15.131L62.307 15.339C62.2281 15.0675 62.1254 14.8034 62 14.55C61.543 13.643 60.876 13.162 60.07 13.161H60.067C60.011 13.161 59.955 13.167 59.899 13.172C59.7352 12.9554 59.5207 12.7824 59.2743 12.6684C59.0278 12.5543 58.7571 12.5027 58.486 12.518C57.442 12.546 56.405 13.33 55.563 14.728C54.97 15.707 54.523 16.942 54.393 17.893L52.342 18.556C51.738 18.753 51.719 18.773 51.64 19.367C51.58 19.817 50 32.563 50 32.563L63.242 34.952L68.982 33.464L66.625 16.834ZM61.644 15.553L60.616 15.884C60.608 15.334 60.546 14.568 60.3 13.906C61.09 14.061 61.48 14.994 61.644 15.551V15.553ZM59.924 16.108L57.713 16.82C57.927 15.967 58.332 15.117 58.83 14.56C59.039 14.318 59.294 14.123 59.58 13.99C59.868 14.617 59.93 15.506 59.924 16.106V16.108ZM58.504 13.238C58.725 13.226 58.944 13.286 59.131 13.409C58.825 13.58 58.551 13.803 58.321 14.067C57.659 14.807 57.152 15.957 56.95 17.067L55.138 17.654C55.493 15.907 56.896 13.286 58.504 13.238Z" fill="#95BF47"/>
<path d="M66.437 16.65C66.359 16.644 64.827 16.62 64.827 16.62L63.42 15.194C63.3719 15.1468 63.3098 15.1166 63.243 15.108V34.952L68.983 33.464L66.625 16.834C66.6181 16.7863 66.596 16.7421 66.562 16.708C66.5282 16.6749 66.4841 16.6544 66.437 16.65Z" fill="#5E8E3E"/>
<path d="M60.062 19.73L59.395 22.332C58.8832 22.1102 58.3272 22.0089 57.77 22.036C56.479 22.121 56.464 22.972 56.479 23.186C56.549 24.351 59.483 24.603 59.648 27.328C59.778 29.472 58.558 30.94 56.8 31.057C54.69 31.196 53.53 29.897 53.53 29.897L53.976 27.917C53.976 27.917 55.144 28.831 56.079 28.768C56.689 28.728 56.909 28.21 56.887 27.843C56.794 26.328 54.405 26.415 54.255 23.921C54.128 21.824 55.449 19.696 58.364 19.504C59.487 19.431 60.062 19.73 60.062 19.73Z" fill="white"/>
<path d="M76.757 25.282C76.092 24.906 75.752 24.588 75.752 24.152C75.752 23.596 76.227 23.24 76.969 23.24C77.832 23.24 78.604 23.616 78.604 23.616L79.207 21.673C79.207 21.673 78.649 21.217 77.003 21.217C74.713 21.217 73.125 22.585 73.125 24.509C73.125 25.599 73.865 26.431 74.855 27.027C75.654 27.503 75.939 27.843 75.939 28.336C75.939 28.852 75.539 29.268 74.799 29.268C73.694 29.268 72.651 28.673 72.651 28.673L72.003 30.616C72.003 30.616 72.967 31.29 74.588 31.29C76.946 31.29 78.638 30.08 78.638 27.9C78.638 26.73 77.784 25.897 76.758 25.282H76.757ZM86.147 21.195C84.987 21.195 84.075 21.77 83.372 22.642L83.334 22.622L84.339 17.13H81.72L79.172 31.112H81.797L82.671 26.335C83.013 24.529 83.907 23.422 84.743 23.422C85.333 23.422 85.561 23.839 85.561 24.433C85.561 24.84 85.521 25.245 85.446 25.643L84.456 31.112H87.081L88.107 25.461C88.22 24.873 88.284 24.275 88.297 23.675C88.294 22.127 87.515 21.195 86.147 21.195H86.146H86.147ZM94.226 21.194C91.07 21.194 88.981 24.171 88.981 27.482C88.981 29.604 90.235 31.309 92.591 31.309C95.691 31.309 97.781 28.414 97.781 25.024C97.78 23.058 96.677 21.194 94.226 21.194ZM92.933 29.205C92.04 29.205 91.66 28.412 91.66 27.421C91.66 25.854 92.44 23.296 93.864 23.296C94.796 23.296 95.1 24.129 95.1 24.942C95.1 26.63 94.32 29.207 92.933 29.207V29.205ZM104.49 21.194C102.719 21.194 101.713 22.826 101.713 22.826H101.676L101.826 21.358H99.51C99.398 22.348 99.186 23.857 98.978 24.987L97.153 34.997H99.778L100.5 30.952H100.556C100.556 30.952 101.094 31.309 102.096 31.309C105.175 31.309 107.189 28.018 107.189 24.686C107.186 22.842 106.409 21.194 104.489 21.194H104.49ZM101.98 29.247C101.583 29.2521 101.197 29.1112 100.897 28.851L101.335 26.293C101.639 24.587 102.495 23.457 103.405 23.457C104.205 23.457 104.452 24.23 104.452 24.964C104.45 26.729 103.445 29.247 101.981 29.247H101.98ZM110.933 17.27C110.732 17.2693 110.533 17.3103 110.349 17.3903C110.165 17.4704 109.999 17.5877 109.863 17.735C109.58 18.0392 109.425 18.4414 109.432 18.857C109.432 19.673 109.926 20.225 110.667 20.225H110.705C111.523 20.225 112.225 19.65 112.245 18.639C112.245 17.846 111.732 17.271 110.933 17.271V17.27ZM107.265 31.111H109.888L111.675 21.415H109.033L107.265 31.111ZM118.345 21.395H116.52L116.615 20.939C116.767 20.007 117.299 19.174 118.174 19.174C118.459 19.174 118.741 19.221 119.012 19.314L119.522 17.174C119.522 17.174 119.067 16.936 118.098 16.936C117.167 16.936 116.235 17.214 115.532 17.849C114.638 18.641 114.22 19.791 114.012 20.942L113.935 21.398H112.72L112.34 23.46H113.556L112.168 31.114H114.793L116.177 23.457H117.983L118.346 21.395H118.345ZM124.655 21.415C124.655 21.415 123.015 25.725 122.28 28.077H122.243C122.192 27.32 121.596 21.415 121.596 21.415H118.84L120.418 30.318C120.456 30.516 120.437 30.635 120.362 30.774C120.058 31.389 119.544 31.984 118.936 32.42C118.442 32.797 117.891 33.035 117.454 33.193L118.176 35.513C118.708 35.397 119.811 34.938 120.745 34.026C121.942 32.856 123.045 31.051 124.185 28.593L127.397 21.415H124.656H124.655Z" fill="black"/>
<path d="M256.865 21.0811H218.919C218.08 21.0811 217.276 21.4142 216.683 22.0072C216.09 22.6002 215.757 23.4044 215.757 24.2431C215.757 25.0817 216.09 25.8859 216.683 26.4789C217.276 27.0719 218.08 27.4051 218.919 27.4051H256.865C257.704 27.4051 258.508 27.0719 259.101 26.4789C259.694 25.8859 260.027 25.0817 260.027 24.2431C260.027 23.4044 259.694 22.6002 259.101 22.0072C258.508 21.4142 257.704 21.0811 256.865 21.0811Z" fill="#F2F2F2"/>
<path d="M32 43.913H383" stroke="#DADADA" stroke-width="0.174"/>
<path d="M14.5663 145.972C13.0549 130.354 26.1147 123.703 31.8222 123.021C32.7317 122.71 32.028 120.049 30.8231 120.063C22.3128 120.156 8.40329 131.77 10.764 147.024C13.1243 162.279 32.9891 176.649 34.9016 176.707C36.4326 176.753 36.2275 177.347 35.9339 177.639C29.7463 180.339 31.8259 184.759 33.4138 183.248C37.4469 179.457 42.363 178.376 44.6479 177.629C46.931 176.884 46.9503 173.876 45.3674 173.116C36.6654 168.805 36.9697 166.489 35.4283 165.923C33.9611 165.595 32.1869 167.641 33.44 169.192C35.5724 170.97 36.4423 172.229 36.6114 172.635C30.5782 171.656 14.7135 153.192 14.5663 145.972Z" fill="#F3451F"/>
<path d="M366.135 0.526978H48.865C39.842 0.526978 32.527 7.84198 32.527 16.865V198.162C32.527 207.185 39.842 214.5 48.865 214.5H366.135C375.158 214.5 382.473 207.185 382.473 198.162V16.865C382.473 7.84198 375.158 0.526978 366.135 0.526978V0.526978Z" stroke="black" stroke-opacity="0.08" stroke-width="1.054"/>
</svg>
