<svg width="19" height="19" viewBox="0 0 19 19" fill="none" xmlns="http://www.w3.org/2000/svg">
<rect x="0.574219" y="0.2146" width="18" height="18" rx="3.375" fill="#F84E24"/>
<path d="M5.82141 5.48877C5.74597 5.33159 5.58654 5.23157 5.41146 5.23157C5.23637 5.23157 5.07837 5.33159 5.0015 5.48877L4.08623 7.37924L2.04216 7.68217C1.87134 7.70789 1.729 7.82792 1.67633 7.99224C1.62366 8.15657 1.66637 8.33804 1.78878 8.4595L3.27201 9.93272L2.92185 12.0147C2.89338 12.1861 2.96455 12.3605 3.10547 12.4619C3.24639 12.5634 3.43286 12.5762 3.5866 12.4948L5.41288 11.516L7.23916 12.4948C7.39289 12.5762 7.57936 12.5648 7.72029 12.4619C7.86121 12.359 7.93238 12.1861 7.90391 12.0147L7.55232 9.93272L9.03555 8.4595C9.15797 8.33804 9.20209 8.15657 9.148 7.99224C9.09391 7.82792 8.95299 7.70789 8.78218 7.68217L6.73668 7.37924L5.82141 5.48877Z" fill="#F43716"/>
<path d="M14.0493 5.48877C13.9739 5.33159 13.8144 5.23157 13.6394 5.23157C13.4643 5.23157 13.3063 5.33159 13.2294 5.48877L12.3141 7.37924L10.2701 7.68217C10.0992 7.70789 9.9569 7.82792 9.90424 7.99224C9.85157 8.15657 9.89427 8.33804 10.0167 8.4595L11.4999 9.93272L11.1498 12.0147C11.1213 12.1861 11.1925 12.3605 11.3334 12.4619C11.4743 12.5634 11.6608 12.5762 11.8145 12.4948L13.6408 11.516L15.4671 12.4948C15.6208 12.5762 15.8073 12.5648 15.9482 12.4619C16.0891 12.359 16.1603 12.1861 16.1318 12.0147L15.7802 9.93272L17.2635 8.4595C17.3859 8.33804 17.43 8.15657 17.3759 7.99224C17.3218 7.82792 17.1809 7.70789 17.0101 7.68217L14.9646 7.37924L14.0493 5.48877Z" fill="#F43716"/>
<path d="M10.256 4.01498C10.1449 3.78248 9.9102 3.63452 9.65244 3.63452C9.39468 3.63452 9.16207 3.78248 9.04891 4.01498L7.70144 6.81136L4.69216 7.25946C4.44069 7.2975 4.23113 7.47505 4.15359 7.71812C4.07605 7.96119 4.13892 8.22963 4.31914 8.40929L6.50276 10.5885L5.98724 13.6681C5.94533 13.9217 6.05011 14.1796 6.25757 14.3297C6.46504 14.4797 6.73956 14.4988 6.96588 14.3783L9.65454 12.9304L12.3432 14.3783C12.5695 14.4988 12.844 14.4819 13.0515 14.3297C13.259 14.1775 13.3638 13.9217 13.3218 13.6681L12.8042 10.5885L14.9878 8.40929C15.1681 8.22963 15.233 7.96119 15.1534 7.71812C15.0738 7.47505 14.8663 7.2975 14.6148 7.25946L11.6034 6.81136L10.256 4.01498Z" fill="url(#paint0_linear_202_1336)"/>
<path d="M11.4193 9.38379C11.4193 10.3608 10.6273 11.1528 9.65032 11.1528C8.67334 11.1528 7.88135 10.3608 7.88135 9.38379" stroke="#F33919" stroke-width="0.72" stroke-linecap="round"/>
<defs>
<linearGradient id="paint0_linear_202_1336" x1="9.65395" y1="3.63452" x2="9.65395" y2="14.4577" gradientUnits="userSpaceOnUse">
<stop stop-color="#FFFCFA"/>
<stop offset="1" stop-color="white"/>
</linearGradient>
</defs>
</svg>
